<svg id="Capa_1" data-name="Capa 1" xmlns="http://www.w3.org/2000/svg" viewBox="0 0 336.27 67.82"><defs><style>.cls-1{fill:#4a72b2;}</style></defs><path class="cls-1" d="M524.61,1052.7h-5.49a1.38,1.38,0,0,1-1.29-.87,14.68,14.68,0,0,0-4-5.74,13,13,0,0,0-7.76-3.2,4.3,4.3,0,0,0-1.71,0,12.42,12.42,0,0,0-5.84,1.75,16.64,16.64,0,0,0-2.79,2.22,1.4,1.4,0,0,0,.52,2.35l.13,0a14.05,14.05,0,0,1,2,.73l14,5.2q6.54,2.44,12.87,4.89a1.41,1.41,0,0,1,.87,1.57,18.28,18.28,0,0,1-1.88,5.53,19.05,19.05,0,0,1-4.1,5.25,26.66,26.66,0,0,1-3.28,2.64,20,20,0,0,1-3.88,2,21,21,0,0,1-4.69,1.24,21.79,21.79,0,0,1-5.63,0,19.6,19.6,0,0,1-7-2,26.66,26.66,0,0,1-5.5-3.75,20.61,20.61,0,0,1-5.86-10.37,1.41,1.41,0,0,1,1.31-1.76q1.18,0,2.42,0,1.6.06,3.15,0a1.38,1.38,0,0,1,1.33.87,14.48,14.48,0,0,0,4,5.71,13,13,0,0,0,7.76,3.28,11.35,11.35,0,0,0,4.48-.51,17.73,17.73,0,0,0,3.54-1.62,10.68,10.68,0,0,0,1.79-1.24h0a1.4,1.4,0,0,0-.46-2.34q-7.11-2.71-14.15-5.28-7.37-2.69-14.74-5.54a1.39,1.39,0,0,1-.86-1.62q2.21-9,8.86-13.49a25.08,25.08,0,0,1,6.36-3.16,20.45,20.45,0,0,1,8.57-.68,20.2,20.2,0,0,1,7,2,24,24,0,0,1,5.5,3.8A19.82,19.82,0,0,1,526,1051,1.41,1.41,0,0,1,524.61,1052.7Z" transform="translate(-483.89 -1010.89)"/><path class="cls-1" d="M534.7,1032.39a1.39,1.39,0,0,1-1.4-1.3q-.08-1.44-.08-3t.08-2.93a1.39,1.39,0,0,1,1.4-1.3h5.12a1.39,1.39,0,0,1,1.38,1.42q0,1.43,0,2.87t0,2.9a1.39,1.39,0,0,1-1.4,1.31Zm5.08,3.07a1.4,1.4,0,0,1,1.4,1.38q.14,9.82.06,19.82t0,20a1.4,1.4,0,0,1-1.4,1.41h-5.13a1.4,1.4,0,0,1-1.4-1.4v-40.92c0-.23,0-.34.09-.34Z" transform="translate(-483.89 -1010.89)"/><path class="cls-1" d="M587.26,1042a1.38,1.38,0,0,0,2,0,37.19,37.19,0,0,1,2.82-2.68,21.4,21.4,0,0,1,4.61-3,23,23,0,0,1,5.63-1.83,26.44,26.44,0,0,1,6.83-.34,19.21,19.21,0,0,1,6.19,1.49,21.15,21.15,0,0,1,5.16,3.16,21.87,21.87,0,0,1,4,4.39,24.8,24.8,0,0,1,2.73,5.12,23.69,23.69,0,0,1,1.54,6.57,71.5,71.5,0,0,1,.3,7.51q0,3.92-.26,8.06-.18,3.43-.15,6.82a1.4,1.4,0,0,1-1.4,1.42h-5.44a1.41,1.41,0,0,1-1.41-1.34,95.15,95.15,0,0,1,.11-10.44,77,77,0,0,0,0-11.18,16.07,16.07,0,0,0-1.36-5.25,13.58,13.58,0,0,0-3-4.22,13.88,13.88,0,0,0-9.73-3.84,13.41,13.41,0,0,0-5.55,1.11,13.77,13.77,0,0,0-4.27,2.94,14,14,0,0,0-2.86,4.35,17.79,17.79,0,0,0-1.32,5.42,73.27,73.27,0,0,0,0,10.92,91.46,91.46,0,0,1,.11,10.18,1.41,1.41,0,0,1-1.4,1.34h-5.51a1.4,1.4,0,0,1-1.41-1.34q-.16-4,0-8,.21-4.69.09-9a38.35,38.35,0,0,0-1-7.81,12.06,12.06,0,0,0-3.16-5.84,14.87,14.87,0,0,0-4.18-3,12.8,12.8,0,0,0-5.8-1.28,13.13,13.13,0,0,0-9.81,4,15.65,15.65,0,0,0-4.18,9.68,73.87,73.87,0,0,0,0,11,93.37,93.37,0,0,1,.11,10.31,1.41,1.41,0,0,1-1.4,1.34h-5.4a1.4,1.4,0,0,1-1.39-1.45q.09-2.75,0-5.41-.09-3.37-.21-6.57t-.13-6.19q0-3,.26-5.8a17.46,17.46,0,0,1,2.22-7.08,25.49,25.49,0,0,1,4.1-5.55,23.89,23.89,0,0,1,5.59-4.22,18.93,18.93,0,0,1,7.29-2.26,26.48,26.48,0,0,1,7,.21,20.78,20.78,0,0,1,5.67,1.83,22.77,22.77,0,0,1,4.65,3.07A32.79,32.79,0,0,1,587.26,1042Z" transform="translate(-483.89 -1010.89)"/><path class="cls-1" d="M646.05,1049.43l-.07.13q-.25.5-.56,1.21a16.43,16.43,0,0,0-.64,1.71,14.42,14.42,0,0,0-.47,1.92,10.69,10.69,0,0,0-.17,1.83,12.21,12.21,0,0,0,1.66,6.48,14.85,14.85,0,0,0,3.88,4.35,16.55,16.55,0,0,0,3.5,1.75,12.35,12.35,0,0,0,4.44.81,12.79,12.79,0,0,0,5.12-1.07,13,13,0,0,0,4.31-3,13.77,13.77,0,0,0,2.86-4.52,12.72,12.72,0,0,0,.77-5.76,15.12,15.12,0,0,0-.94-3.84,12.27,12.27,0,0,0-1.71-3.24,13.41,13.41,0,0,0-4.91-3.93,12.55,12.55,0,0,0-7-1.11,14.2,14.2,0,0,0-6,2.13A12.5,12.5,0,0,0,646.05,1049.43Zm-10.45-34.1,8.53-4.44v28.36a1.11,1.11,0,0,0,1.07-.26q.55-.43,1.24-.85a22.69,22.69,0,0,1,5.76-2.47,21.28,21.28,0,0,1,7.81-.51,18.88,18.88,0,0,1,7.76,2.35,20.81,20.81,0,0,1,6.14,5.2,21.91,21.91,0,0,1,3.84,7.42,23.22,23.22,0,0,1,.85,8.92,19.38,19.38,0,0,1-1.92,6.78,21,21,0,0,1-4.14,5.72,21.4,21.4,0,0,1-5.89,4.09,20.65,20.65,0,0,1-7,1.92,20.2,20.2,0,0,1-10.11-1.41,22.59,22.59,0,0,1-7.12-4.82,21.31,21.31,0,0,1-4.09-5.59,20.53,20.53,0,0,1-2.13-7.46q-.17-2.73-.09-5.42t.09-5.42Z" transform="translate(-483.89 -1010.89)"/><path class="cls-1" d="M703.85,1035.81a22.64,22.64,0,0,1,5.54,0,21.08,21.08,0,0,1,4.86,1.19,20,20,0,0,1,4.1,2.13,23.13,23.13,0,0,1,3.33,2.73,23.76,23.76,0,0,1,4.82,7.21,20.35,20.35,0,0,1,1.32,10.37,19.11,19.11,0,0,1-2.13,7.08,23.4,23.4,0,0,1-4,5.46,21.35,21.35,0,0,1-5.46,4.05,19.7,19.7,0,0,1-7.17,2.09,20.71,20.71,0,0,1-10.32-1.32,20.52,20.52,0,0,1-4-2.13,23,23,0,0,1-3.24-2.69,22.32,22.32,0,0,1-2.6-3.16,21,21,0,0,1-2.13-4,20.29,20.29,0,0,1-1.28-4.78,22,22,0,0,1,0-5.67,18.66,18.66,0,0,1,2.09-7.12,22.78,22.78,0,0,1,7.72-8.36,22.47,22.47,0,0,1,4.69-2.26q.85-.26,1.79-.47C702.35,1036,703.06,1035.92,703.85,1035.81Zm-6.06,11.26a14.42,14.42,0,0,0-2.56,3,12.11,12.11,0,0,0-1.62,4q-.17.85-.3,1.71a6.85,6.85,0,0,0,0,1.71,13.52,13.52,0,0,0,3.24,8.19,13,13,0,0,0,7.25,4.27,13.39,13.39,0,0,0,1.62.26q.81.08,1.71.09h.17a13.4,13.4,0,0,0,4.69-1.19,13.94,13.94,0,0,0,3.92-2.69,13.26,13.26,0,0,0,2.77-4,13.93,13.93,0,0,0,1.23-5s0-.09,0-.13v-.9s0-.08,0-.11a11.94,11.94,0,0,0-1.53-5.49,16.29,16.29,0,0,0-3.07-3.84,14.34,14.34,0,0,0-4.22-2.56,10.56,10.56,0,0,0-5.33-.68,17.61,17.61,0,0,0-4.56,1.11A11.16,11.16,0,0,0,697.8,1047.07Z" transform="translate(-483.89 -1010.89)"/><path class="cls-1" d="M734.39,1015.93h6.28a1.4,1.4,0,0,1,1.4,1.4v19.42q0,5.37-.17,10.71a95.77,95.77,0,0,0,.17,10,13.74,13.74,0,0,0,4.1,9.43,14.73,14.73,0,0,0,8.52,3.76,1.39,1.39,0,0,1,1.21,1.38v5a1.41,1.41,0,0,1-1.42,1.4,18.58,18.58,0,0,1-13.25-5.16,24.51,24.51,0,0,1-4.52-5.59,16.87,16.87,0,0,1-2.39-7.47,38,38,0,0,1-.13-5.42q.13-2.77.13-5.59v-32.93C734.31,1016,734.34,1015.93,734.39,1015.93Z" transform="translate(-483.89 -1010.89)"/><path class="cls-1" d="M764.45,1032.39a1.39,1.39,0,0,1-1.4-1.3q-.08-1.49-.08-3.07t.08-3a1.39,1.39,0,0,1,1.4-1.3h5.11a1.41,1.41,0,0,1,1.4,1.44q0,1.47,0,3t0,3a1.39,1.39,0,0,1-1.4,1.31Zm5.07,3.07a1.4,1.4,0,0,1,1.4,1.38q.14,9.82.06,19.82t0,20a1.4,1.4,0,0,1-1.4,1.41h-5.13a1.4,1.4,0,0,1-1.4-1.4v-40.92c0-.23,0-.34.09-.34Z" transform="translate(-483.89 -1010.89)"/><path class="cls-1" d="M812.11,1015.33h6.31a1.41,1.41,0,0,1,1.4,1.37q.13,4.77.09,9.51,0,5.41,0,10.85c0,3.47,0,6.95.19,10.42a90.27,90.27,0,0,1-.19,11.28A20,20,0,0,1,818,1066a21.22,21.22,0,0,1-4.09,5.93,21.83,21.83,0,0,1-5.84,4.22,19.78,19.78,0,0,1-7.17,2,19,19,0,0,1-9.9-1.28,24.61,24.61,0,0,1-7.17-4.78,21.57,21.57,0,0,1-5-7.25,21.85,21.85,0,0,1-1.28-10.41,17.52,17.52,0,0,1,1.88-6.7,22.94,22.94,0,0,1,4.14-5.76,21.45,21.45,0,0,1,5.76-4.18,19.12,19.12,0,0,1,6.74-2,22.2,22.2,0,0,1,8.87.81,24.77,24.77,0,0,1,4.9,2.28,1.39,1.39,0,0,0,2.1-1.16q.15-4.76.08-9.66-.09-6.19,0-12.33C812,1015.47,812.06,1015.33,812.11,1015.33ZM785.5,1056a12.46,12.46,0,0,0,.77,5.67,13.35,13.35,0,0,0,12.46,8.49,12.62,12.62,0,0,0,5.71-1.37,13.8,13.8,0,0,0,4.65-3.75,13.56,13.56,0,0,0,2.65-5.55,12.49,12.49,0,0,0-.38-6.65,14.45,14.45,0,0,0-2-3.84,12.17,12.17,0,0,0-3.11-3,13.35,13.35,0,0,0-4.14-1.83,13.82,13.82,0,0,0-4.86-.34,13.21,13.21,0,0,0-8.1,3.92A13.07,13.07,0,0,0,785.5,1056Z" transform="translate(-483.89 -1010.89)"/></svg>