<?xml version="1.0" encoding="UTF-8" standalone="no"?>
<!-- Created with Inkscape (http://www.inkscape.org/) -->

<svg
   xmlns:dc="http://purl.org/dc/elements/1.1/"
   xmlns:cc="http://creativecommons.org/ns#"
   xmlns:rdf="http://www.w3.org/1999/02/22-rdf-syntax-ns#"
   xmlns:svg="http://www.w3.org/2000/svg"
   xmlns="http://www.w3.org/2000/svg"
   xmlns:sodipodi="http://sodipodi.sourceforge.net/DTD/sodipodi-0.dtd"
   xmlns:inkscape="http://www.inkscape.org/namespaces/inkscape"
   width="310mm"
   height="120mm"
   viewBox="0 0 310 120"
   version="1.1"
   id="svg6429"
   inkscape:version="0.92.3 (2405546, 2018-03-11)"
   sodipodi:docname="casa-de-bolsa-base.svg">
  <defs
     id="defs6423" />
  <sodipodi:namedview
     id="base"
     pagecolor="#ffffff"
     bordercolor="#666666"
     borderopacity="1.0"
     inkscape:pageopacity="0.0"
     inkscape:pageshadow="2"
     inkscape:zoom="0.7"
     inkscape:cx="660.00986"
     inkscape:cy="381.34869"
     inkscape:document-units="mm"
     inkscape:current-layer="layer1"
     showgrid="false"
     inkscape:window-width="1366"
     inkscape:window-height="705"
     inkscape:window-x="-8"
     inkscape:window-y="-8"
     inkscape:window-maximized="1" />
  <metadata
     id="metadata6426">
    <rdf:RDF>
      <cc:Work
         rdf:about="">
        <dc:format>image/svg+xml</dc:format>
        <dc:type
           rdf:resource="http://purl.org/dc/dcmitype/StillImage" />
        <dc:title></dc:title>
      </cc:Work>
    </rdf:RDF>
  </metadata>
  <g
     inkscape:label="Capa 1"
     inkscape:groupmode="layer"
     id="layer1"
     transform="translate(0,-177)">
    <g
       transform="matrix(0.14467457,0,0,0.14467457,-1286.5267,126.60972)"
       id="nNpwE6">
      <path
         inkscape:connector-curvature="0"
         class="cls-1"
         d="m 6093.45,1732.57 c -0.68,4.23 -1.63,7.83 -1.79,11.47 -0.85,19.95 -1.46,39.9 -2.25,59.85 -1,26.54 -20,38.15 -43.32,25.48 -17.83,-9.7 -34.76,-21.08 -52,-31.87 -21.68,-13.57 -43.26,-27.32 -64.9,-41 q -66.28,-41.77 -132.57,-83.51 c -14.23,-9 -28.21,-18.39 -42.67,-27 -18.44,-10.93 -20.41,-38.22 1.46,-49.45 30.85,-15.84 61.26,-32.55 91.88,-48.84 13.31,-7.08 26.68,-14 40,-21.12 1.76,-0.94 3.27,-2.36 5.89,-4.28 -2.92,-3.26 -5.35,-6.07 -7.89,-8.79 -10,-10.76 -20.45,-21.2 -30,-32.36 -4.21,-4.91 -8.19,-10.92 -9.72,-17.06 -3.63,-14.6 4.69,-26.79 20.77,-31.45 12.11,-3.51 24.49,-6.11 36.76,-9.09 q 49.55,-12 99.08,-24.12 c 1.92,-0.47 3.65,-1.7 6.41,-3 -5.65,-9.88 -11.19,-19.12 -16.26,-28.61 -3.12,-5.84 -6.31,-11.85 -8.09,-18.16 -4.58,-16.24 3,-28.69 19.48,-32.45 a 61.45,61.45 0 0 1 13.57,-1.07 q 167.3,-0.08 334.61,0 c 2.81,0 5.62,-0.07 8.41,0.16 21.67,1.76 32.4,19.34 22.89,39 -7.16,14.8 -15.71,28.95 -23.92,43.23 q -31.17,54.22 -62.61,108.28 -36.21,62.19 -72.67,124.36 c -4.59,7.87 -8.91,15.9 -13.56,23.74 -12.67,21.33 -31.48,23.55 -49.16,5.92 a 19.17,19.17 0 0 0 -3,-1.71 c -1.27,3.68 -2.58,7.08 -3.62,10.57 -4.5,15.12 -8.59,30.37 -13.44,45.37 -7.39,22.85 -19.88,28.44 -41.64,19.3 -1.58,-0.65 -3.23,-0.96 -6.13,-1.79 z"
         transform="translate(3164.81,-958.94)"
         id="path34" />
      <path
         inkscape:connector-curvature="0"
         class="cls-1"
         d="m 6682,1933.35 c 9.9,9.18 20.27,17.54 29.13,27.26 18.13,19.88 23,44.21 20.95,70.31 -2,25.72 -11,48.64 -29.74,66.59 -17.78,17 -40.09,25.4 -64.07,29.15 A 200.78,200.78 0 0 1 6608,2129 c -63.8,0.2 -127.61,0.12 -191.42,0.09 -20.11,0 -26.62,-6.42 -26.63,-26.29 q 0,-169.33 0,-338.66 c 0,-19.46 6.86,-26.62 26.62,-26.68 63.8,-0.17 127.62,-0.67 191.41,0.19 31.7,0.43 61.76,7.6 86.2,30.35 38.4,35.73 45.82,100.25 10.7,142 -6.88,8.21 -14.96,15.37 -22.88,23.35 z m -141.32,126.1 c 23.5,0 47,-0.37 70.51,0.13 16.11,0.34 28.51,-5.92 38,-18.42 11.27,-14.77 13.41,-30.82 4.58,-47.31 -8.14,-15.2 -20.9,-24.66 -38.71,-24.75 -50.16,-0.25 -100.33,-0.14 -150.49,-0.07 -10.39,0 -11.08,0.81 -11.12,11.67 q -0.13,33.68 0,67.35 c 0,10.65 0.72,11.33 11.41,11.37 25.34,0.1 50.6,0.04 75.86,0.03 z m -4.83,-252.35 c -23.86,0 -47.71,-0.07 -71.57,0 -10,0 -10.74,0.75 -10.78,10.84 q -0.16,34.2 0,68.41 c 0,12.08 0.88,12.87 13.48,12.88 45.26,0 90.51,0.15 135.77,-0.13 a 67.14,67.14 0 0 0 19.59,-3.24 c 25.86,-8.21 38.38,-38.13 26.36,-62.32 -8.67,-17.45 -23.61,-25.69 -42.33,-26.29 -23.46,-0.7 -46.98,-0.13 -70.48,-0.15 z"
         transform="translate(3164.81,-958.94)"
         id="path36" />
      <path
         inkscape:connector-curvature="0"
         class="cls-1"
         d="m 7294.82,2129.13 q -47.87,0 -95.74,0 c -19.89,0 -28.18,-9.13 -33.16,-22.37 -5.63,-14.94 -0.27,-32.87 13.43,-40.84 7.4,-4.31 17.22,-6.11 26,-6.18 60.32,-0.52 120.64,-0.4 181,-0.18 10,0 18.13,-3.26 26.41,-8.47 14.5,-9.11 23.08,-31.68 18.26,-48 a 47,47 0 0 0 -44.48,-33.92 c -34,-0.23 -68,-0.16 -102.06,0 -18.49,0.07 -36.25,-3.09 -53.21,-10.56 -38.67,-17 -65.26,-56.7 -66.77,-98.16 -1.27,-34.93 9,-64.95 34,-89.45 18.86,-18.47 41.22,-30 68,-31.71 11.87,-0.74 23.76,-1.66 35.64,-1.71 44.19,-0.2 88.38,-0.09 132.57,-0.08 10.3,0 20.52,1 29,7.47 12.46,9.48 16.4,25 11,40.83 -4.13,12.19 -17.37,21.25 -32,21.28 q -79.44,0.18 -158.87,0.05 c -12.35,0 -23.67,2.91 -33.11,11.17 -15.16,13.28 -20.55,32.09 -14.37,49.29 6.84,19 23.43,31.43 44.05,31.63 36.12,0.37 72.25,-0.09 108.37,0.3 a 116.3,116.3 0 0 1 27,3.37 c 84,21.2 114.85,126 55.84,189.36 -22.71,24.39 -51,36.48 -84.15,36.87 -30.92,0.3 -61.79,0.02 -92.65,0.01 z"
         transform="translate(3164.81,-958.94)"
         id="path38" />
      <path
         inkscape:connector-curvature="0"
         class="cls-1"
         d="m 7719.54,1899.31 c 31.22,0 62.45,-0.05 93.67,0 22.42,0.06 35.92,12.66 36,33.38 0.12,21.75 -14,36.14 -36.22,36.2 -61.75,0.16 -123.49,0.06 -185.24,0.07 -3.16,0 -6.31,0.06 -9.47,0.11 -5.55,0.09 -7.43,3.07 -6.51,8.26 4.87,27.34 14,52.31 39,68 a 91,91 0 0 0 47.91,13.85 c 40.34,0.45 80.69,-0.06 121,0.5 8.14,0.11 17.13,1.62 24.18,5.39 13.66,7.32 19.1,24.19 14.81,39.39 -4.29,15.2 -16.15,24.51 -32.67,24.57 -42.8,0.16 -85.63,1 -128.4,-0.32 -34.19,-1.05 -66.54,-10.38 -94.55,-31.12 -21.65,-16 -36.67,-37.26 -46.83,-62.15 -12.12,-29.68 -16.31,-60.69 -17,-92.49 -0.67,-29.25 1.1,-58.27 8.71,-86.55 15,-55.82 47.87,-95.65 105.48,-110.39 19.83,-5.07 40.69,-7.48 61.19,-8.26 34.68,-1.31 69.46,-0.77 104.18,-0.09 8.82,0.17 18.45,2.13 26.15,6.22 13.06,6.93 18.14,24.42 13.86,39.9 -3.7,13.39 -16.36,23 -31.72,23.14 -38.59,0.25 -77.2,-0.52 -115.77,0.46 a 170.78,170.78 0 0 0 -43.31,7.13 c -24.88,7.32 -40.79,25 -49.46,49.18 a 202.35,202.35 0 0 0 -6.09,22.31 c -2.68,11.45 -1.33,13.2 10.17,13.23 32.39,0.13 64.65,0.07 96.93,0.08 z"
         transform="translate(3164.81,-958.94)"
         id="path40" />
      <path
         inkscape:connector-curvature="0"
         class="cls-1"
         d="m 7131.87,2097.22 c 1.32,15.8 -12,31 -25.12,33.58 -18.78,3.69 -33.92,-3.05 -41.06,-19.34 -6.33,-14.43 -11.87,-29.21 -17.84,-43.8 -2.12,-5.18 -4.26,-10.37 -6.74,-15.39 -5.14,-10.42 -13.77,-15.76 -25.3,-15.8 -45.23,-0.12 -90.45,-0.32 -135.68,0.09 -12.24,0.11 -22.36,5.37 -27.4,17.7 -6,14.59 -12,29.12 -18.14,43.65 -1.9,4.52 -4,8.94 -6,13.43 -8.87,20.13 -29.52,23.65 -45,17.51 -17.8,-7.08 -25.78,-25.21 -18.89,-44.29 7,-19.42 15.09,-38.47 22.79,-57.64 q 43.7,-108.77 87.48,-217.51 c 5.88,-14.62 11.05,-29.6 18,-43.73 12.15,-24.89 33.1,-34.51 60.33,-32.83 24.5,1.51 41.05,14.59 50,36 18.61,44.23 35.67,89.11 53.53,133.65 17.46,43.56 35.15,87 52.65,130.57 6.93,17.22 13.79,34.47 20.32,51.84 1.49,3.79 1.44,8.18 2.07,12.31 z M 6946.59,1968.7 c 6,0 11.92,0 17.89,0 9.12,0 18.27,0.36 27.35,-0.27 10.54,-0.73 13.28,-5.44 9.5,-15.26 -4,-10.46 -8.38,-20.79 -12.49,-31.22 -11.32,-28.7 -22.46,-57.47 -34,-86.06 -1.39,-3.43 -5.08,-5.92 -7.7,-8.85 -2.35,2.82 -5.47,5.29 -6.9,8.52 -5.25,11.84 -10.07,23.88 -14.83,35.93 -10.69,27.06 -21.46,54.09 -31.75,81.3 -4.4,11.64 -1.34,15.7 10.9,15.87 13.97,0.17 28,0.02 42.03,0.04 z"
         transform="translate(3164.81,-958.94)"
         id="path42" />
      <path
         inkscape:connector-curvature="0"
         class="cls-1"
         d="m 7147.61,1605.18 c 18.52,14.57 23.78,28.7 17.34,46.79 -6.36,17.88 -20.82,24.95 -38.34,26.09 -14.65,1 -29.41,0.22 -44.12,0.38 -7.35,0.08 -8.44,-4.34 -8.42,-10.33 0.1,-28.72 0,-57.45 0,-86.17 0,-9.11 0.15,-18.22 0,-27.32 -0.11,-6.14 2.48,-9 8.74,-8.93 14.71,0.16 29.47,-0.62 44.12,0.33 14.19,0.92 27.45,5.57 32.28,20.83 4.62,14.54 1.3,27.69 -11.6,38.33 z m -48,32.06 c 0,21.09 1.38,22.35 21.64,19.66 12.6,-1.67 20.63,-10.19 20.14,-21.37 -0.45,-10.39 -8,-16.85 -20.86,-17.81 -20.9,-1.56 -20.92,-1.54 -20.92,19.52 z m 0.19,-56.4 c 0,3.15 -0.65,6.49 0.21,9.39 0.65,2.2 3.26,5.49 4.91,5.45 7.21,-0.2 14.65,-0.58 21.52,-2.57 6.87,-1.99 9.52,-8 8.3,-15.11 -1.18,-6.81 -5.84,-10.1 -12.47,-10.74 -2.78,-0.27 -5.6,-0.25 -8.4,-0.26 -14.08,0 -14.22,0.11 -14.07,13.84 z"
         transform="translate(3164.81,-958.94)"
         id="path44" />
      <path
         inkscape:connector-curvature="0"
         class="cls-1"
         d="m 6886.61,1668.86 c -8.07,3.29 -16,8.05 -24.61,9.72 -18,3.5 -32,-3.45 -39.9,-19.76 -10.37,-21.3 -9.88,-43.21 2.66,-63.33 10.75,-17.24 28,-22.33 47.66,-19.58 3.41,0.48 6.79,1.23 12.23,2.24 0,-8.45 0,-15.94 0,-23.44 0,-3.51 0,-7 0,-10.52 0,-14.78 5.72,-19.16 20.09,-14.9 2.1,0.62 3.86,3.41 5.1,5.58 0.77,1.35 0.35,3.43 0.35,5.18 q 0,63.12 0,126.25 c 0,10.76 -5.46,15.15 -15.23,11.48 -3.53,-1.34 -5.76,-6.02 -8.35,-8.92 z m -0.94,-48.67 -1,-0.17 c 0,-2.45 0,-4.91 0,-7.36 -0.09,-13.37 -8.48,-20.15 -21.63,-17.47 -7.39,1.5 -12.67,5.93 -16.15,12.37 -5.72,10.57 -7.43,21.72 -4.31,33.53 3,11.2 8.89,17.45 17.68,18.17 8.79,0.72 18.17,-5.31 21.4,-15.5 2.34,-7.52 2.74,-15.69 4.01,-23.57 z"
         transform="translate(3164.81,-958.94)"
         id="path46" />
      <path
         inkscape:connector-curvature="0"
         class="cls-1"
         d="m 7174.94,1624 c -1.32,-17.17 7.37,-33 24.55,-42.34 18.8,-10.22 38.75,-9.21 56.87,3 13.61,9.14 18.58,23.7 19.22,39.13 0.77,18.62 -4.58,35.54 -20.94,46.64 -17.45,11.84 -36.32,12.64 -54.76,3.12 -18.44,-9.52 -25.05,-26.39 -24.94,-49.55 z m 75.36,3 c -1.88,-6.63 -2.74,-13.79 -5.84,-19.78 -8,-15.42 -29.64,-15.75 -38.82,-1.1 -7.57,12.09 -6.57,33.34 2.11,44.82 a 21.42,21.42 0 0 0 33.56,0.8 c 5.82,-7.01 8.55,-15.12 8.99,-24.69 z"
         transform="translate(3164.81,-958.94)"
         id="path48" />
      <path
         inkscape:connector-curvature="0"
         class="cls-1"
         d="m 6474.83,1572.24 c -7,-2.49 -13.73,-5.15 -20.65,-7.33 -18.13,-5.69 -33.35,6.42 -39,19 -7.11,15.83 -8.58,32.52 -3.12,49.24 8,24.36 33.4,33.2 55.2,19.48 9,-5.64 11.64,-4.72 17,4.58 2.49,4.36 1.5,7.13 -2.18,9.79 -20.22,14.61 -42.1,16.78 -64.69,7.13 -22.42,-9.58 -31.94,-28.62 -33.58,-51.81 -1.37,-19.41 -0.37,-38.59 11.31,-55.59 10.31,-15 24.43,-23.28 42.48,-23.06 a 128.66,128.66 0 0 1 33,4.28 c 14.55,4.1 15.42,8.35 7.18,20.81 a 40.64,40.64 0 0 1 -2.95,3.48 z"
         transform="translate(3164.81,-958.94)"
         id="path50" />
      <path
         inkscape:connector-curvature="0"
         class="cls-1"
         d="m 7464,1668.25 c -11.1,9.06 -22.76,12.71 -36,10.6 -13.24,-2.11 -20.82,-8.86 -23.08,-20.91 -2.68,-14.26 1.75,-27.06 13.54,-32.34 9.39,-4.2 19.94,-5.93 30.09,-8.26 5.23,-1.21 12,0.58 12.61,-7.7 0.53,-7.17 -5.08,-13.21 -13.29,-12.9 -6.84,0.26 -13.74,1.9 -20.37,3.79 -9,2.56 -11.62,1.37 -14.9,-7.52 -3,-8.16 2.86,-10.19 8.25,-11.46 10.82,-2.56 21.82,-5.88 32.78,-6 20.11,-0.18 32.37,12.69 33.27,32.92 0.5,11.19 -0.07,22.43 0.26,33.63 0.24,8 1.38,16 1.69,24 0.17,4.27 2,10.2 -4.09,11.54 -5.91,1.29 -12.69,2.75 -17.17,-3.87 -0.87,-1.34 -1.78,-2.77 -3.59,-5.52 z m -2.46,-26.34 c 0.63,-5.22 -2.47,-8.26 -8.61,-7.34 a 78,78 0 0 0 -16,4 c -5.61,2.13 -8.31,7.49 -6.18,12.71 1.58,3.86 5.79,8.09 9.71,9.27 9.85,2.94 21.25,-7.1 21.12,-18.64 z"
         transform="translate(3164.81,-958.94)"
         id="path52" />
      <path
         inkscape:connector-curvature="0"
         class="cls-1"
         d="m 6550.34,1669.51 c -2.37,1.29 -4.74,2.61 -7.15,3.89 -8.2,4.33 -16.68,6.86 -26.21,5.64 -15.2,-2 -23.63,-8.9 -25.66,-21.92 -2.4,-15.36 3.53,-28.19 17.32,-33.43 9,-3.43 18.92,-4.65 28.5,-6.42 4.95,-0.91 10,-0.85 10.67,-7.58 0.56,-6.06 -3.55,-12.42 -10,-12.58 -7.16,-0.18 -14.88,0.43 -21.46,3 -10.37,4.06 -12.06,2.75 -17,-8.39 -1.79,-4.05 -0.39,-6.91 3.48,-8.44 12.77,-5 25.68,-9.64 39.76,-7.69 20.69,2.86 30.15,13.48 30.91,34.41 0.06,1.75 0,3.5 0.07,5.25 0.61,16.42 1.41,32.84 1.74,49.26 0.09,4.79 2.72,11 -4.46,13.48 a 15.4,15.4 0 0 1 -17.93,-6 20.85,20.85 0 0 0 -2.58,-2.48 z m -2.28,-26.88 c 0.4,-5.14 -1.82,-9 -8.28,-8 a 81.38,81.38 0 0 0 -17,4.28 c -5.13,2 -7.62,7.2 -5.66,12 1.6,3.9 5.49,8.26 9.34,9.57 9.33,3.11 21.54,-7.14 21.6,-17.85 z"
         transform="translate(3164.81,-958.94)"
         id="path54" />
      <path
         inkscape:connector-curvature="0"
         class="cls-1"
         d="m 6728.33,1668.59 c -9.42,7.35 -19.29,10.85 -30.73,10.34 -16.12,-0.71 -24.83,-7 -28,-21.5 -3.12,-14.06 3.32,-28.39 16.73,-33.64 8.65,-3.39 18.17,-4.62 27.37,-6.48 5.22,-1.06 12,0.85 12.8,-7.4 0.56,-6 -6.42,-13.29 -13.77,-13.11 a 82.26,82.26 0 0 0 -20.42,3.58 c -8.52,2.45 -10.17,2.14 -13.65,-5.85 -3.05,-7 -2.44,-10.15 5.87,-12.45 11.66,-3.23 23.81,-6.2 35.79,-6.37 16.64,-0.24 26.65,8.92 29.94,25.38 1.77,8.82 1.69,18 2.1,27.08 0.64,14 0.83,27.95 1.53,41.91 0.27,5.34 -1.93,7.63 -7,8.3 -9.28,1.2 -12.61,-0.28 -18.56,-9.79 z m -2.84,-35.3 c -7.74,1.39 -15.09,1.92 -21.88,4.13 -8,2.61 -11.38,10.16 -8.64,16.4 2.74,6.24 10.16,8.94 17.81,6.26 10.69,-3.74 14.95,-11.85 12.71,-26.79 z"
         transform="translate(3164.81,-958.94)"
         id="path56" />
      <path
         inkscape:connector-curvature="0"
         class="cls-1"
         d="m 6974.56,1632.51 c -6.66,0 -13.35,-0.33 -20,0.16 -2.72,0.2 -6.89,1.63 -7.56,3.51 -0.82,2.29 0.7,6.1 2.34,8.48 8.31,12 20.66,14.6 34.25,13.73 2.44,-0.16 4.84,-0.81 7.27,-1.13 10.59,-1.39 11.85,-0.16 13,10.44 0.47,4.3 -0.83,6.93 -4.81,7.95 -19.89,5.08 -52.36,7.69 -70,-14.61 -12.06,-15.27 -13.89,-45.35 -2.11,-64.61 10.7,-17.52 31.16,-25.1 52.21,-19.22 11.27,3.15 19,10.79 23,21.33 2.69,7.08 3.76,15 4.43,22.57 0.74,8.48 -2.24,11.1 -11.05,11.31 -7,0.17 -14,0 -21,0 z m 7.41,-18 c -0.86,-13.11 -6.51,-19.55 -15.67,-19.17 -10.23,0.43 -17.35,7.82 -17.9,19.17 z"
         transform="translate(3164.81,-958.94)"
         id="path58" />
      <path
         inkscape:connector-curvature="0"
         class="cls-1"
         d="m 7363.24,1574.19 c 7.48,1.62 15,3.1 22.42,4.92 4.87,1.19 7.36,4.29 5.07,9.35 -2,4.42 -2.12,11 -10.1,9.3 a 164.43,164.43 0 0 0 -18.56,-3.13 c -5.62,-0.55 -11,1.33 -12.52,7.25 -1.46,5.69 3.81,7.71 7.84,9.62 a 210,210 0 0 0 21.2,9.11 c 13,4.45 19.05,13.84 19.79,26.82 0.72,12.6 -6.79,24 -19.18,28.57 -17.59,6.48 -35.06,4.18 -52.16,-2.59 -7.47,-3 -4.34,-8.13 -2.92,-13.13 1.57,-5.53 4.41,-6.74 10.15,-5.32 a 182.6,182.6 0 0 0 26.67,4.28 c 5.13,0.49 10,-1.7 11.22,-7.45 1.22,-5.75 -3.28,-8.16 -7.44,-10 -7.65,-3.45 -15.62,-6.19 -23.24,-9.7 -17,-7.82 -22.75,-24.72 -14,-41 6.21,-11.63 17.79,-13.74 29.29,-15.67 a 38.48,38.48 0 0 1 6.29,0 z"
         transform="translate(3164.81,-958.94)"
         id="path60" />
      <path
         inkscape:connector-curvature="0"
         class="cls-1"
         d="m 6591.92,1654.19 c 10.1,1.95 18.92,3.76 27.79,5.28 2.37,0.41 5.23,0.63 7.26,-0.33 3.2,-1.51 7.63,-3.65 8.3,-6.34 0.67,-2.69 -1.86,-7.09 -4.2,-9.61 -2.34,-2.52 -6,-3.47 -9.14,-4.89 -6.4,-2.84 -13.12,-5.05 -19.26,-8.36 -10.5,-5.65 -15.82,-14.59 -14.65,-26.81 1.16,-12 7.49,-20.1 18.7,-24.38 14.81,-5.66 29.6,-4 44.34,0.39 3.75,1.12 6.8,3.27 4.72,7.57 -2.08,4.3 -1.29,11.42 -8.95,11 -3.1,-0.16 -6.12,-1.59 -9.24,-1.94 -4.84,-0.53 -10,-1.72 -14.49,-0.55 -3.4,0.88 -6.93,4.57 -8.43,7.9 -0.69,1.52 2.85,5.89 5.38,7.7 3.34,2.39 7.56,3.56 11.43,5.19 4.84,2 9.86,3.7 14.52,6.07 13.48,6.87 18,16.2 15.83,32.15 -1.56,11.74 -10.73,21.14 -23.6,23.75 a 80.15,80.15 0 0 1 -41.44,-2.65 c -11.29,-3.7 -12,-5.47 -7.37,-16.72 a 38.75,38.75 0 0 1 2.5,-4.42 z"
         transform="translate(3164.81,-958.94)"
         id="path62" />
      <path
         inkscape:connector-curvature="0"
         class="cls-1"
         d="m 7310.19,1676.36 c -1.72,0.91 -2.3,1.44 -3,1.53 -18.82,2.85 -20.63,1.32 -20.63,-17.42 q 0,-59.34 0,-118.69 c 0,-11.68 10,-17.78 20.15,-11.92 2,1.18 3.37,5.13 3.47,7.87 0.4,10.84 0.18,21.7 0.2,32.55 q 0.07,50.42 0.14,100.83 c 0.06,1.72 -0.19,3.43 -0.33,5.25 z"
         transform="translate(3164.81,-958.94)"
         id="path64" />
    </g>
  </g>
</svg>
