<svg id="Capa_1" data-name="Capa 1" xmlns="http://www.w3.org/2000/svg" viewBox="0 0 11025.18 1530.05"><defs><style>.cls-1{fill:#fff;}</style></defs><g id="j4UjpT"><path class="cls-1" d="M1714.49,1558.79q0,296.42,0,592.85c0,6.3,0,6.29-6.36,6.29H521.41c-6,0-5.19.51-5.18-5.4q.32-594.17.66-1188.35c0-5.22,0-5.22,5-5.22l515.28,0,387.44,0h285.54c4.32,0,4.32,0,4.32,4.95Q1714.49,1261.34,1714.49,1558.79Zm-57.69-546.7H574.41V2093.42h6.48q533.56,0,1067.13,0c9,0,8.82.51,8.82-8.94q0-534.42,0-1068.84C1656.79,1014.55,1656.8,1013.44,1656.8,1012.1Z" transform="translate(3164.81 -958.94)"/><path class="cls-1" d="M927.11,2196c18.54.38,36.11,4.69,53.22,11.21,8,3.06,15.9,4.78,24.71,2.73,6.27-1.47,9.65,1.51,10.32,8.44,1.16,12.14,2.43,24.27,3.32,36.42a45,45,0,0,1-.78,12.47c-.93,4.36-6,5.55-9,2.2a90.36,90.36,0,0,1-8.52-11.3c-10.28-16-23.92-27.77-41.8-34.61-9.08-3.47-18.33-5.66-28.06-5.41-11.08.28-20.43,4.73-28.75,11.92-7.93,6.84-11.42,15.89-11.86,25.75-.39,8.86,2.13,17.06,9.33,23.63,10.4,9.49,23,14.55,35.68,19.71,16.8,6.84,33.74,13.38,50.34,20.66,11.08,4.86,20.81,12.06,30.06,19.93a69.45,69.45,0,0,1,18.35,23.53c4.34,9.28,6.36,19.13,7.07,29.41,1.17,17-4,32.45-11.37,47.21-5.38,10.8-13,20.08-23.73,26.34-7.29,4.25-14.37,8.86-21.68,13.08a50.44,50.44,0,0,1-9,3.84c-10,3.39-20.14,5.64-30.74,5.6-8.88,0-17.85.75-26.62-.24-9.63-1.08-19.11-3.61-28.59-5.81-16.54-3.84-31.2-12-45.48-20.75-7.55-4.64-12.31-11.3-12.4-20.85-.1-11-1-21.93-1.14-32.9a20.05,20.05,0,0,1,2.38-8.61,5.46,5.46,0,0,1,8.39-1.78,43.69,43.69,0,0,1,7.11,8.8c4,6.14,7.48,12.63,11.59,18.7a88.85,88.85,0,0,0,27.76,26.49c7.33,4.41,15.85,6.93,24,9.84,9.78,3.5,20.11,3.57,30.23,2.72,9.7-.81,18.51-5,26.23-10.91,12.53-9.65,17.54-23,17.13-38.34-.24-8.81-3.71-16.68-9.64-23.67a74.63,74.63,0,0,0-20-16.48c-5.72-3.29-12-5.7-18.08-8.26-9.87-4.14-19.86-8-29.72-12.14-8.93-3.75-18-7.33-26.56-11.75-6.07-3.12-11.56-7.41-17.15-11.4a74.15,74.15,0,0,1-24.19-28.68c-3.9-8.15-6.77-16.63-7-25.93-.24-8.38-.2-16.67,2.22-24.71a72.29,72.29,0,0,1,15.4-27.51c13.38-15,30.67-22.58,50-25.78C909.06,2197.32,918.12,2196.87,927.11,2196Z" transform="translate(3164.81 -958.94)"/><path class="cls-1" d="M712.31,2487.19c-12.88-.09-25.65-.92-38.1-4.08-16.61-4.22-32.35-10.57-46.7-20.15-4.94-3.3-10.18-6.3-12.19-12.24a42.42,42.42,0,0,1-2.61-12.44c-.19-9.64.29-19.3.58-28.94.07-2.25,0-4.65.82-6.68s2.21-4.36,3.88-4.87a7.51,7.51,0,0,1,6.25,1.56,31.47,31.47,0,0,1,6.34,8.68c6.25,12.59,14.22,24,24.59,33.38a89.13,89.13,0,0,0,32.67,19.21c9.11,2.91,18.15,5.59,27.76,5.21,14.29-.56,27.35-4.89,37.83-14.84,7.47-7.09,11.52-16.22,13-26.56,1.88-13.28-1.42-24.8-10.47-34.71-10.57-11.57-24.29-18-38.41-23.9-15.08-6.29-30.1-12.74-45.14-19.11a112.65,112.65,0,0,1-26.3-15.22c-14.91-11.82-26.62-26.13-30.6-45.09-4.5-21.4,0-41.26,13.62-58.64,10.93-13.9,25.26-22.54,42.28-27.07,11.24-3,22.63-3.95,34.2-4.16a116.46,116.46,0,0,1,33.71,4q14.1,3.94,28.1,8.21c5.86,1.78,11.63,2.34,17.62.55,6.58-2,12.33,2.26,13,9.53.65,7.43,1,14.9,1.43,22.35s1,15.12,1.35,22.69c.16,3.2-1.06,5.86-4.14,7.12a6.24,6.24,0,0,1-7.87-2.2c-2.81-3.79-5.54-7.66-8-11.67-10.69-17.26-26-28.85-45-35.23a77.64,77.64,0,0,0-24.1-4.18c-17.44,0-33.79,11.34-38.82,28.8-3.06,10.62-.84,20.35,6.06,28.91s16,14.38,26.35,18.32c19.06,7.25,38.17,14.42,57,22.26a106.3,106.3,0,0,1,33.24,21.23c7.22,6.93,14.13,14,18.31,23.22,4,8.72,7.26,17.71,7.57,27.52.14,4.38,1.27,8.77,1.12,13.12a66.42,66.42,0,0,1-2.05,14.7,103.55,103.55,0,0,1-11.93,27.44c-8.74,14.31-21,24.79-35.89,32.08a106.58,106.58,0,0,1-34.26,10C729.72,2486.25,721,2486.56,712.31,2487.19Z" transform="translate(3164.81 -958.94)"/><path class="cls-1" d="M1146.29,2488.66c-16.64.88-33.3-2.17-49.53-8a174.61,174.61,0,0,1-38.63-19.39,20.76,20.76,0,0,1-9.45-16.5c-.68-11.08-1.11-22.18-1.39-33.28a26.52,26.52,0,0,1,1.41-8.25c1.7-5.55,7.25-6.91,11-2.47a65.88,65.88,0,0,1,7.3,11.34c6.87,12.75,15.07,24.54,26.1,34a104,104,0,0,0,42.46,20.22c17.75,3.24,34.53,1.58,49.35-9.53,10.31-7.73,16.9-17.67,18.3-31,1-9.89-.44-19-5.51-27.3a53.62,53.62,0,0,0-20.08-18.93c-9.56-5.25-19.67-9.55-29.67-13.94-10.92-4.8-22.05-9.12-33-13.85s-21.67-10.11-31.33-17.34c-13-9.69-23.1-21.59-28.91-36.77-4.1-10.72-4.79-21.88-3.55-33.33,1.46-13.52,7-25.28,15.26-35.59,7.75-9.64,17.82-16.51,29.47-21.1a112.77,112.77,0,0,1,32.78-7.58c14.69-1.15,29.33-1.16,43.73,2.11,9.63,2.19,19.1,5.16,28.54,8.1,7.33,2.29,14.45,3.68,22.22,1.66,6.77-1.76,9.65.34,10.26,7.44,1.2,13.83,2.74,27.62,4,41.45a21,21,0,0,1-.71,7.69c-1.66,5.55-5.89,6.85-9.93,2.7-3.34-3.42-5.83-7.7-8.5-11.73-7.56-11.4-16.92-21.09-28.83-27.76a86.72,86.72,0,0,0-33.17-11,50.21,50.21,0,0,0-29.18,5.15c-13,6.62-22,23-20,38.67.79,6.16,4.47,11.23,8.62,15.86,7.73,8.63,17.89,13.3,28.35,17.41,19,7.45,38.22,14.26,56.94,22.28,17.8,7.62,33.2,18.67,44.14,35.27a72.13,72.13,0,0,1,12.32,35.3c1,14.11-.42,27.74-5.62,40.85a84.82,84.82,0,0,1-20.74,31.05c-12.82,12-28.23,19.14-45.38,22.86C1172.9,2488.13,1160,2488.95,1146.29,2488.66Z" transform="translate(3164.81 -958.94)"/><path class="cls-1" d="M1603.11,2477.78h-86.79c-.8,0-1.74.27-2.37-.06-2-1-4.6-1.9-5.54-3.61-.63-1.14.78-3.92,2-5.44,2-2.59,4.69-4.64,6.81-7.15,5.77-6.8,7.62-15.11,7.66-23.64.17-45.1,0-90.21.1-135.31,0-18.16.5-36.32.63-54.47.08-10.59-3-20-10.81-27.6a25.74,25.74,0,0,1-2.5-3.21c-2.86-3.83-1.43-7.88,3.32-8.95a32.42,32.42,0,0,1,7-.76c51.94,0,103.88.09,155.81-.14,10.31,0,15.13,3.7,16.64,13.64,1.55,10.24,2.08,20.63,3,31a8.58,8.58,0,0,1-.23,2.7c-1.51,6.36-5.63,7.6-10.43,3.08a87.63,87.63,0,0,1-7.08-7.24c-10.55-12.54-24.05-19.93-40-22.81-13.61-2.45-27.4-1.34-41.11-1.44a25,25,0,0,0-5.7.75c-3.53.81-6.31,2.52-6.77,6.56-.69,6.05-1.89,12.1-2,18.17-.26,18.79-.09,37.59-.1,56.38,0,12.06,3.28,15.57,15.16,16.22,11.12.61,22.24.89,33.2-1.46,6.65-1.43,13.06-3.74,18-8.76,4-4.09,7.83-8.38,11.85-12.47,4.36-4.44,9-3.43,10.64,2.58a51.76,51.76,0,0,1,2,12.63q.38,17.93,0,35.87a46.28,46.28,0,0,1-2.14,12.9c-1.38,4.31-4.55,5.11-8.18,2.31a67.58,67.58,0,0,1-7.9-7.83,43.55,43.55,0,0,0-27.77-14.15,202.28,202.28,0,0,0-32.21-1.26c-8.48.44-11.47,3.34-11.89,12.53-.39,8.39-.7,16.8-.66,25.2.08,17.17.28,34.33.73,51.49a64.32,64.32,0,0,0,2.09,13.35c1.49,6.15,8.39,10.73,16.31,10.92,8.24.2,16.52.54,24.73,0,14.7-1,29.15-3.61,42.22-11a98.57,98.57,0,0,0,25.13-20c1.88-2.09,3.93-4.3,6.37-5.53a12.39,12.39,0,0,1,7.64-1.24c2.58.57,3.54,3.63,3.15,6.15-1,6.33-2.11,12.67-3.73,18.86-1.9,7.28-4.28,14.45-6.68,21.59a30.42,30.42,0,0,1-3.67,7.21c-1.86,2.74-4.78,3.49-8,3.48q-43.91-.07-87.82,0Z" transform="translate(3164.81 -958.94)"/><path class="cls-1" d="M1402.19,2339.31q0,48.52,0,97a22,22,0,0,0,2.2,9.76c1.66,3.51,2.29,7.49,3.78,11.1a103.1,103.1,0,0,0,5.53,11.15c4,7.17.55,10.74-5.85,10.79-23,.17-46,.46-68.93.64a13.41,13.41,0,0,1-4.29-.72c-4.83-1.62-6.6-5.74-3.64-9.82,5.17-7.11,7.13-15.56,10.55-23.4a7.93,7.93,0,0,0,.23-3q0-99.95-.05-199.89a28.47,28.47,0,0,0-1.76-9.24c-1.33-3.76-5.08-4.39-8.43-4.6-12-.76-23.91-.21-34.74,5.58A124.62,124.62,0,0,0,1279.6,2246c-7.7,5.94-12.79,14.16-18.18,22.13a10,10,0,0,1-6.2,3.72c-2.81.43-4.87-2-5.59-4.6a47.31,47.31,0,0,1-2.08-11.24c-.27-11.27-.32-22.56,0-33.82.14-5,.59-10.42,5.87-13.23a12.68,12.68,0,0,1,5.74-1.39q100.8-.1,201.6-.06,16.91,0,33.83,0c4.12,0,6,1.87,6,6,0,18.11,0,36.22,0,54.33a5.3,5.3,0,0,1-3.43,5.33c-2,.82-4.5.61-5.76-1.58-2.24-3.87-4.36-7.84-6.24-11.91-4.8-10.38-10.46-20-20.4-26.43-6.41-4.17-13.52-5.57-20.86-6.21a167.82,167.82,0,0,0-17.67-.7,126.23,126.23,0,0,0-15.86,1.4c-5.64.82-8.24,4.89-8.25,12.13q0,44.25,0,88.5Q1402.19,2333.85,1402.19,2339.31Z" transform="translate(3164.81 -958.94)"/><path class="cls-1" d="M561.11,2204.81c11.27,0,22.54,0,33.82,0,2.57,0,5.64-.13,6.3,2.68a12.4,12.4,0,0,1-1,7.62c-2.42,5-5.67,9.69-8.2,14.69a16.4,16.4,0,0,0-1.68,7.13q-.13,105-.06,210.07c0,6.69,4.17,11.49,7.58,16.65a25.74,25.74,0,0,1,2.72,5,4.59,4.59,0,0,1-4.26,6.36c-1.36.08-2.73,0-4.1,0-22,0-44-.17-65.92.1-6.62.08-10.49-5.12-6.58-11.69,2.13-3.57,4.25-7.15,6.18-10.83a9.89,9.89,0,0,0,1.18-4.41q.09-110.33-.12-220.66c0-3.31-2.49-6.64-4-9.89-.69-1.53-2-2.8-2.58-4.35-2-5.09.33-8.49,5.84-8.5C537.89,2204.79,549.5,2204.81,561.11,2204.81Z" transform="translate(3164.81 -958.94)"/><path class="cls-1" d="M1120.26,1170.59a206.89,206.89,0,0,1-5.82,51.45c-2.78,11.29-6.7,22.26-13.52,31.89-7.47,10.55-17.22,18.22-29.64,22a29,29,0,0,1-11.41.88,9,9,0,0,1-6.13-4c-1.39-2.61-.07-5.63,1.87-8.14,5-6.41,10.22-12.66,14.56-19.48a80.6,80.6,0,0,0,11.91-33.53c.76-6,2-12.11,1.88-18.14-.18-8.27-.45-16.68-4.75-24.3a17,17,0,0,0-12.39-9c-7.76-1.36-15.28-.53-21.16,5.14-3.1,3-5.49,6.85-7.67,10.62a97.39,97.39,0,0,0-6.42,13.33c-3.55,9.1-10.27,14.91-18.64,19.29-5.24,2.74-9.32,6.68-9.78,12.91-.38,5.16,2.27,9.56,4.65,14,4.69,8.68,8.52,17.55,8.37,27.82-.12,8.36-3.45,15.15-8.72,21.12-6.77,7.66-15.88,12.24-24.33,17.67-9.56,6.15-20,10.94-28.19,19.22a56.72,56.72,0,0,0-15.29,26.29c-2.94,11.67-5.71,23.43-7.48,35.32-1.86,12.48-2.64,25.14-3.52,37.75-.75,10.62-1.27,21.27-1.36,31.91-.1,12.18,0,24.4.74,36.55.9,14.41,2.39,28.8,4,43.16,1.27,11.18,3.09,22.31,4.76,33.44a14.3,14.3,0,0,0,9,11.78c12.73,5.49,25.35,11.25,38.11,16.67,16.73,7.11,33.48,14.11,49.28,23.23,14.38,8.3,28.45,16.94,41.3,27.58A195.79,195.79,0,0,1,1102,1672.1c3.48,4.28,6.36,9,9.51,13.59.26.37.41.81.68,1.17,3.34,4.44,5,4.39,8-.19,5.7-8.52,11.1-17.28,17.26-25.46,3.5-4.65,8-8.63,12.51-12.42,7.41-6.25,14.81-12.63,22.86-18,11.16-7.44,22.86-14.09,34.44-20.9,18.77-11,39.26-18.13,59.53-25.73,7.38-2.77,14.52-6.17,21.83-9.13,7-2.86,9.79-8.56,10.72-15.56,1.36-10.27,2.85-20.53,4-30.83.93-8.18,1.47-16.41,2.17-24.62.91-10.81,2-21.6,2.65-32.42.36-5.6,0-11.25.15-16.87.18-5.19.68-10.36,1-15.55.32-4.73.8-9.45.9-14.18.15-7.63.37-15.28,0-22.89-.75-14.6-2.6-29-9.43-42.28-4.8-9.31-11.78-16.77-19.81-23.34-6.73-5.51-13.73-10.71-20.17-16.55-9-8.2-14.72-18.63-19-30-5.33-14.13-11.2-28.06-16.88-42.06-6.73-16.57-19.14-27.95-34-37-3-1.82-6.09-3.42-9.22-4.94-2.77-1.34-5-.12-6.19,2.35-4.29,9.14-7.4,18.59-7.83,28.86-.45,10.69,1,21,7,29.89,3.51,5.2,8.15,9.64,12.43,14.29,2,2.15,4.46,3.85,6.44,6,2.54,2.77,1.92,5.62-1.44,7.53-6.2,3.53-12.57,2.11-18.71.07-13.62-4.52-23.25-13.72-29.89-26.31s-11.66-26-13.45-40.24a74.29,74.29,0,0,1,6-39.65c3.91-8.93,8.89-17.1,16.27-23.46,8-6.85,17-11.92,27.59-13.5a87.5,87.5,0,0,1,14.83-1.33,84.21,84.21,0,0,1,43.28,12.85c17.06,10.65,29.29,25.9,39.13,43,8.56,14.84,15.59,30.56,23.87,45.58,7,12.62,14.51,24.92,22.24,37.09,5.85,9.22,12.75,17.78,18.52,27a87.52,87.52,0,0,1,12.66,36.11,105.81,105.81,0,0,1-.6,30.81q-2.46,14.31-4.15,28.75c-.49,4.13.85,4.83,4.45,2.8,5-2.82,10.43-5.25,14.74-8.94a40.81,40.81,0,0,0,9-12c5.68-10.86,11.74-21.49,20.65-30,5.44-5.17,11.78-9.49,18.11-13.58a33.44,33.44,0,0,0,12.57-14.24,129.12,129.12,0,0,1,18.9-30c9.17-10.66,20.13-18.53,34.08-22.27,13.58-3.64,26-1.78,37.53,5.82,3.27,2.15,5.78,5.44,9,7.72a15.29,15.29,0,0,0,7.23,3c5.61.42,11.27,0,16.91.11,13.63.19,23.15,7.12,29.74,18.55a49.9,49.9,0,0,1,6.11,20.6c1,11,1.51,22.11,2.13,33.18.53,9.5.92,19,1.4,28.51.66,13.12,1.37,26.24,2,39.35.48,9.5.89,19,1.39,28.51.66,12.66,1.41,25.32,2.07,38,.71,13.69,1.42,27.37,2,41.06q.81,18.69,1.35,37.39c.32,11.68-3.36,22.49-7.93,33q-8.85,20.33-18.19,40.44c-3.65,7.9-7.8,15.57-11.5,23.44s-7,15.65-10.52,23.47q-4.72,10.52-9.49,21c-5.8,12.71-11.58,25.43-17.44,38.12-7.85,17-15.42,34.11-23.75,50.86-7.33,14.73-18.57,25.61-34.18,31.86-8.49,3.4-16.58,7.79-24.9,11.65-23.75,11-47.53,21.92-71.27,33-8,3.72-15.87,7.72-23.85,11.5-16,7.59-32.09,15.07-48.09,22.7-10.39,5-20.84,9.83-31,15.25-19.2,10.24-38.5,20.34-57.2,31.45-17,10.12-33.44,21.35-49.94,32.37-8.05,5.38-15.47,11.71-23.53,17.07-13.94,9.27-28.29,8.48-42-.37-7.62-4.93-14.28-11.33-21.67-16.64-12.08-8.68-24.15-17.42-36.69-25.39-11.32-7.19-23.2-13.51-34.95-20-10-5.52-20-11.12-30.25-16-15.06-7.17-30.41-13.74-45.63-20.58q-24.23-10.89-48.45-21.83-21.58-9.76-43.12-19.61c-10.56-4.84-21-9.84-31.6-14.65-14-6.36-28-12.49-41.94-18.94-9.07-4.2-17.45-9.39-24.57-16.67a72.12,72.12,0,0,1-13.79-20.78c-4.67-10.17-9.35-20.33-13.91-30.55-5.88-13.19-11.62-26.44-17.48-39.64-4.22-9.49-8.59-18.91-12.79-28.41q-12.16-27.56-24.18-55.18c-5.34-12.3-10.83-24.54-15.66-37a140.32,140.32,0,0,1-7.39-24.5,116.85,116.85,0,0,1-1.34-35.15c.55-4.71.58-9.49.8-14.24.48-10.3.81-20.6,1.43-30.89.77-12.75,1.81-25.49,2.67-38.23.74-11,1.38-21.91,2.08-32.86q1-15.58,2-31.16c.9-13.54,1.85-27.08,2.75-40.62.7-10.61.88-21.28,2.18-31.81s2-21.25,6.49-31.29,12.39-14.87,22.29-17.32c8.09-2,16.21-.43,24.24.88,5.45.89,10.36.54,15.12-2.86a38.13,38.13,0,0,1,22.81-7.55,59.07,59.07,0,0,1,24.11,5.8,96.38,96.38,0,0,1,24.2,16.6,107.52,107.52,0,0,1,24.33,32.62,42.36,42.36,0,0,0,18.25,19.32c6.06,3.31,11.36,8.09,16.78,12.48,11.08,9,18.33,21,25.88,32.82,2.51,3.94,6.68,7,10.5,9.86,2.53,1.92,5,.35,5.36-3,.54-4.82,1.25-9.66,1.36-14.5a264.82,264.82,0,0,1,4.89-46.08c3.39-17,8.88-33.24,20.26-46.68A90.73,90.73,0,0,1,927.36,1287c10.55-7.69,21.66-14.59,32.48-21.91,2.61-1.77,5-3.89,7.5-5.81,7.42-5.68,8.55-12.88,5.69-21.42q-6.56-19.55-12.57-39.28c-4.79-15.81-5.46-31.72,1.6-47,3.33-7.22,7.63-14.13,14.08-19.23,5.92-4.68,11.6-9.78,18-13.75a70.25,70.25,0,0,1,28.55-9.83,161.39,161.39,0,0,1,27.1-1.32c16.65.75,33,3.81,48,11.42,7.17,3.62,13.82,8.33,17.13,15.84a62.54,62.54,0,0,1,4.2,16.58C1120,1157.63,1119.93,1164.14,1120.26,1170.59ZM926.52,1713.5a23.66,23.66,0,0,1,0,3.75c-.9,5.51-3.28,10-10.06,9.4a23.87,23.87,0,0,1-7.57-1.59c-18.35-8.11-36.86-15.9-54.82-24.79a355.45,355.45,0,0,1-35.89-21,174.83,174.83,0,0,1-22.9-17.94,142.94,142.94,0,0,1-27.29-34.45,112.11,112.11,0,0,1-12.31-31c-2.64-11.72-3.88-23.76-5.73-35.67s-3.66-24.05-5.59-36.07-4.05-24-5.94-36c-2-12.56-3.71-25.17-5.67-37.73-1.67-10.67-3.4-21.34-5.32-32-2.17-12.05-4-24.2-7.13-36-1.36-5.22-4.83-10.22-8.37-14.47-4.43-5.31-9.06-4-10.13,2.71-1.38,8.67-2.15,17.47-2.74,26.24-.9,13.32-1.41,26.67-2.09,40-.44,8.71-1,17.41-1.33,26.12-.52,12-.93,24-1.4,36-.23,5.87-.4,11.75-.77,17.61-.83,13.2-1.89,26.38-2.6,39.58a151.64,151.64,0,0,0,0,19.28c.49,6.66.6,13.78,3.06,19.8,9.07,22.25,19,44.15,28.71,66.13,4,9.09,8.36,18,12.47,27.08q9.23,20.34,18.33,40.74c3.83,8.53,7.56,17.11,11.47,25.6,5.23,11.37,11.91,21.78,23,28.15,11.55,6.62,23.4,12.73,35.3,18.71,15.44,7.76,31,15.21,46.6,22.71,15.08,7.26,30.17,14.51,45.34,21.59,15.76,7.36,31.65,14.44,47.42,21.76,19.14,8.89,38.29,17.76,57.31,26.92,21.59,10.39,42.75,21.58,61.93,36.11,6.57,5,12.86,10.31,19.2,15.58,4,3.32,7.82,6.87,11.77,10.24a7.39,7.39,0,0,0,9.28.14c2.27-1.88,4.38-3.94,6.61-5.87,9.85-8.48,19.36-17.42,29.66-25.31a324.74,324.74,0,0,1,59.58-36q26-12.24,52.11-24.43c10.12-4.76,20.17-9.65,30.29-14.4q19.74-9.27,39.53-18.43,28.76-13.36,57.54-26.71c6.74-3.14,13.54-6.16,20.14-9.58,9.43-4.88,19.1-9.46,27.92-15.3,10.2-6.74,17.09-16.72,22.15-27.8,6.7-14.67,13.12-29.47,19.77-44.17,8.27-18.29,16.7-36.51,25-54.8s16.6-36.62,24.72-55a68.14,68.14,0,0,0,5.65-29c-.12-6.8-.38-13.61-.68-20.41-.39-8.93-.9-17.86-1.32-26.8-.48-10.17-.91-20.35-1.39-30.53-.44-9.39-.95-18.77-1.36-28.16-.51-11.55-.93-23.11-1.42-34.67-.18-4.18-.36-8.36-.66-12.54-.64-9-1.37-18-2-27-.5-6.76-.4-13.62-1.54-20.27-1.3-7.58-4.32-9.43-11.23-4.46a31.76,31.76,0,0,0-12.84,19.42c-2.82,13.66-5.26,27.4-7.59,41.16-3.1,18.3-5.91,36.65-8.9,55-2.71,16.57-5.36,33.14-8.28,49.67-3.25,18.38-6.55,36.76-10.26,55-4.12,20.36-9.19,40.39-19.94,58.6a111.71,111.71,0,0,1-32.21,34.78,298.1,298.1,0,0,1-31.48,19.79c-17.95,9.57-36.35,18.29-54.66,27.17a76.66,76.66,0,0,1-13.94,5.2c-6.57,1.72-11.85,1.25-14.78-6.48-4.57-12.06-.83-22.46,6.88-31.67,7.54-9,17.69-14.58,28.1-19.69,14.12-6.93,28.29-13.78,42.12-21.24a105,105,0,0,0,18.92-13,81.72,81.72,0,0,0,25.63-40.77,139.29,139.29,0,0,0,3.39-18.91,18.67,18.67,0,0,0-.93-7.66c-1.29-4.17-6.52-5.44-12-2.86-7.56,3.58-15,7.33-22.47,11.16-9.32,4.79-18.48,9.91-27.86,14.57-15.81,7.85-31.72,15.52-47.65,23.14-14.25,6.81-28.6,13.42-42.88,20.17-19.31,9.13-38.76,18-57.81,27.61a123.32,123.32,0,0,0-32.17,23c-6.85,6.91-13.35,14.2-19.58,21.67-9.77,11.69-16.92,25.06-23.05,38.91a244.34,244.34,0,0,0-15.08,47.18c-2.06,9.45-3.84,19-5.72,28.46-1.31,6.62-2.4,13.29-4,19.84-.39,1.64-2.28,2.92-3.47,4.36-1-1.47-2.55-2.8-3-4.42-1.17-4.33-1.94-8.78-2.75-13.21-2.69-14.59-4.89-29.28-8.11-43.75a191.54,191.54,0,0,0-15.24-44,340,340,0,0,0-17.57-30.5c-3.49-5.49-8.24-10.17-12.39-15.24-9-11-20-19.66-32.07-26.83-8-4.74-16.47-8.7-24.83-12.81-13.66-6.73-27.41-13.3-41.12-19.93-21.08-10.2-42.25-20.22-63.21-30.65-15.7-7.81-31.14-16.13-46.68-24.26-7.41-3.88-14.74-7.91-22.18-11.73-5.52-2.83-11.05-5.69-16.78-8.07-5-2.09-8.09-.8-10.11,4.12a19.47,19.47,0,0,0-1.65,8.52,126.4,126.4,0,0,0,2.68,19.34c4.72,20,15.42,36.17,32.8,47.27,9.65,6.16,20,11.24,30.15,16.62,6.45,3.42,13,6.75,19.67,9.69,12.12,5.34,23.52,11.72,32.61,21.53C922.77,1696.88,926.77,1704.33,926.52,1713.5ZM795.21,1500.91c-.19-2-.28-4.07-.59-6.08-1.41-9-2.94-18-4.33-27-1.35-8.78-2.47-17.6-3.9-26.38-2-12.42-4.28-24.8-6.36-37.21-1.67-10-2.7-20.15-7-29.42-2.95-6.36-6.64-12.42-13.34-15.7-3.89-1.9-5.6-.91-5.3,3.43.39,5.5,1.27,11,2,16.43,1,7.49,1.85,15,2.94,22.47,1.2,8.24,2.61,16.44,3.88,24.67,1.55,10,3,20.05,4.57,30.07,1.18,7.55,2.41,15.1,3.73,22.63,1.52,8.64,3,17.29,4.82,25.87.64,3,1.7,6.3,5.45,7.09C789.35,1513.38,795,1508.71,795.21,1500.91ZM1473.64,1363c-1.74.14-2.79,0-3.57.33-5.84,2.76-10.55,7.05-12.4,13.17-2.63,8.68-4.27,17.66-6.34,26.51-1.55,6.66-3.35,13.27-4.6,20s-1.7,13.62-2.92,20.37c-2.77,15.39-5.86,30.71-8.66,46.09a128.76,128.76,0,0,0-2.1,16c-.26,4.85,2.65,7.21,8.6,8,3.64.47,5.49-.7,6.65-5.5,2.08-8.61,3.86-17.3,5.53-26,2.14-11.15,4.08-22.33,6.06-33.51,1.43-8.08,2.84-16.16,4.18-24.25q2.72-16.47,5.31-33C1470.82,1382,1472.17,1372.8,1473.64,1363Zm-658.89,53.53a22,22,0,0,0-.94,4.37,52.79,52.79,0,0,0,.63,6.37c1.22,9,2.33,18.08,3.74,27.08,1.82,11.66,3.83,23.29,5.87,34.92,1.54,8.75,2.9,17.56,5.08,26.15.75,3,3.32,5.9,5.83,7.87,3.63,2.84,6,1.48,6.5-3.12a19.77,19.77,0,0,0-.18-4.4c-.33-2.79-.77-5.57-1.16-8.36-1.06-7.45-2-14.91-3.22-22.34-1.33-8.45-2.67-16.9-4.3-25.29-1.86-9.58-3.68-19.21-6.24-28.61A23.47,23.47,0,0,0,814.76,1416.54Zm604.88.79a18,18,0,0,0-9.54,10c-6,14.1-8.46,29.09-11.28,44-2,10.48-3.72,21-5.3,31.56a135.58,135.58,0,0,0-1.5,16.51c-.13,4.73,3.11,6.23,7.1,3.92s4.7-6.28,5.43-10.05c2.28-11.69,4.22-23.46,6.28-35.19,2.94-16.81,6-33.61,8.73-50.44C1420.08,1424.47,1419.64,1421.18,1419.64,1417.34Zm-553.41,49.09c-2.56,2.37-3,3.27-2.52,7,.61,5,1.24,10.08,2.08,15.08q4,23.62,8.14,47.21c.87,4.88,2.44,9.44,7.53,11.74,4.88,2.21,7.47.68,7.12-4.65-.3-4.6-1-9.18-1.68-13.74-1.16-7.66-2.28-15.33-3.76-22.92-1.61-8.27-3.1-16.62-5.61-24.63C875.62,1475.4,872.24,1469.75,866.23,1466.43Zm503.17,6.82-1.92-4c-1.53.81-3.75,1.24-4.48,2.51-2.9,5-6.21,10.08-7.75,15.57-2.72,9.67-4.42,19.65-6.24,29.56-1.42,7.74-2.41,15.57-3.52,23.37-.43,3,1.31,5.09,3.79,6.13,2.66,1.11,4.86-.55,6.44-2.56a12.35,12.35,0,0,0,2.45-4.75c1.94-8.87,3.8-17.76,5.42-26.69,1.28-7.06,2.17-14.19,3.22-21.29C1367.65,1485.47,1368.46,1479.79,1369.41,1473.25Z" transform="translate(3164.81 -958.94)"/><path class="cls-1" d="M1119.07,1614.45c.88-7.8,1.47-15.65,2.69-23.4,2-12.67,7.5-16.13,19.47-13.52,5.82,1.27,11.69,2.39,17.59,3.11,2.22.27,4.68-.53,6.89-1.27s2.78-2.54,2-4.63c-1-2.74-2.12-5.48-3.38-8.12-2.87-6-2.49-12.32-2.16-18.64.39-7.44,1.22-14.87,1.34-22.31a89.27,89.27,0,0,0-1.11-16.72c-1.84-10.53-8.74-16.94-18.41-20.75-3.67-1.45-7.27-3.06-10.88-4.65-5.51-2.43-7.14-8.19-6.57-12.59.83-6.48,1.94-12.93,2.6-19.42.51-5.06.53-10.17.77-15.26.33-7.06,2.94-12.63,11.21-12.69,3.47,0,6.92-.88,10.39-1.21,9.82-.94,17.68-6,24.92-12.09,9.37-7.82,18.43-16,27.54-24.15a22.64,22.64,0,0,0,4.49-5.44c1.49-2.58.31-4.24-2.69-3.81a14.41,14.41,0,0,0-5.62,2.09c-7.18,4.68-14,10-21.38,14.25-12.68,7.22-26,8.9-39.32,1.52a33.16,33.16,0,0,1-8-6.73c-4.23-4.62-3.85-10,.6-14.5,2.39-2.44,4.89-4.78,7.15-7.34,4.49-5.1,4.43-11.45,3.53-17.46a222.34,222.34,0,0,0-5.32-24c-1.54-5.8-6.16-6.86-10.34-2.44a64.1,64.1,0,0,0-8.3,10.64c-3.16,5.2-7,9.31-12.61,11.87-3.6,1.63-7.85,3.13-8.1,8.17-.09,1.82-.21,4,.68,5.45,6.33,10,2.68,18.41-2.86,27.32-10.35,16.66-21.26,33.16-26.84,52.23-2.2,7.51-4,15.41-4.15,23.17-.19,8,.34,16.28,6.29,23,3.71,4.18,8,5.81,13.15,4.3,10.2-3,20.5-3.16,30.93-1.9,4.47.54,9.06.55,13.39,1.61,5,1.23,7.78,7,6.08,11.94-2.7,7.79-7.48,13.91-15.16,17.33a13.4,13.4,0,0,1-6.18,1.43c-4.19-.35-6.52-1.39-7.41-6.3-.77-4.26-3.83-6.29-7.88-4.78a32.91,32.91,0,0,0-9.53,4.92c-8.27,6.83-17.13,7.14-26.29,2.8a46.21,46.21,0,0,1-23.93-25.4c-6.27-15.61-6.09-31.36-1.64-47.18,4.75-16.91,12.18-32.73,20.6-48.11,2.8-5.1,5.17-10.45,7.48-15.8,2-4.54,1.13-8.92-1.82-12.82-6.38-8.43-11.48-17.43-14.1-27.82a46.92,46.92,0,0,1-.06-23.68,54.11,54.11,0,0,1,17.68-27.93,45.84,45.84,0,0,1,22.75-10.56c14-2.31,27.93-2.57,41.44,2.57,18,6.85,28.73,19.87,31.61,38.93,1.37,9.1,4.61,17.59,7.19,26.31,1.55,5.22,1.82,10.84,2.4,16.31.36,3.42.75,3.89,3.82,2.23,5.46-3,10.82-6.09,16.24-9.13,6.2-3.48,12.91-5.94,19.91-6.1,14.53-.31,28.51,7.51,29.16,25.21.37,10.24-4.36,18.16-11,24.94-10,10.2-20.71,19.73-30.93,29.74-6.24,6.11-12.16,12.58-19.8,17a107.73,107.73,0,0,1-13.08,6.35c-2.86,1.17-5.22,2.83-5.52,5.77s1.21,5.25,3.73,7.08c8.55,6.19,16.72,12.76,22.39,22a52.65,52.65,0,0,1,7.59,25.29c.37,7,.33,14,0,21.05-.29,6.19-1.3,12.33-1.85,18.51a42.37,42.37,0,0,0,3.62,21.17c2.1,4.74,4.51,9.4,6,14.34,2.23,7.51-2.64,16.55-10.25,18.61a142.32,142.32,0,0,1-19.9,3.4,82.07,82.07,0,0,1-11.61.07c-9.39-.2-10.72,2.78-11.66,11.59-.69,6.4-.6,12.89-1.51,19.24-2.29,15.93-15.54,24-31.16,19.24-7.37-2.23-13.7-6.2-19.57-11.12-7.94-6.64-15.13-14-20.51-22.81-6.15-10.06-7.48-21.12-4.94-32.64,2.35-10.66,4.29-21.43,7.09-32,2.63-9.9,6.29-11.24,16.11-12.67,9.38-1.36,18.68-3,26.95-8.16,6.57-4.09,11.72-9.62,16.29-15.73,1.89-2.54,3.64-5.19,5.35-7.86,1.82-2.85,4-5,7.71-4.35,2.76.47,5,3.66,5.66,7.36,1.84,10-1.6,18.56-7.73,26-9.06,11-20.69,18.72-33.68,24.45-3.8,1.67-6.65,4.34-7.77,8.44-2.12,7.8-4.12,15.63-6.16,23.45-2.77,10.63,1.68,18.43,9.76,24.79a4.68,4.68,0,0,0,1.68,1.1c1.65.33,3.59,1.07,4.93.49,1.17-.5,2.17-2.49,2.37-3.95a59.77,59.77,0,0,0,.11-8.19Z" transform="translate(3164.81 -958.94)"/></g><g id="dkoOs5.tif"><path class="cls-1" d="M4934.64,1675.09l8,2.77q0,17.65,0,35.3c0,96.08.62,192.17-.38,288.25-.27,25.66,7.66,36.86,34.53,35.17,27.82-1.75,55.84-.32,83.77-.39,43.62-.11,43.85-.15,43.88-45.44q.16-241.33,0-482.66c0-23.46,2-47.27-1.52-70.2-1.43-9.22-15.61-23.74-23.61-23.49-56.78,1.77-111.17,13.31-152.07,57.51-35.63,38.5-70.12,78-105.41,116.86-40.19,44.21-80.71,88.12-122.7,133.92-71.19-79-141.17-152.54-206.28-230.22-41.28-49.25-93-70.63-153.38-78.53-37.68-4.92-44.89,1.73-45.23,40.8-.16,19,0,38,0,57,0,162,.52,324-.45,486-.17,28.77,8.67,41,38.46,38.9a585.28,585.28,0,0,1,83.73,0c30.17,2.22,41.22-7.84,40.64-39.43-1.79-98.29-.72-196.63-.57-294.94,0-9.25,1.33-18.49,2.44-32.88,10.79,11.46,17.77,18.44,24.28,25.84,64.13,72.95,128.78,145.46,191.9,219.28,18.2,21.28,29.68,23.58,49.06.68,61.31-72.4,124.67-143.07,187.29-214.36C4918.74,1692.09,4926.77,1683.66,4934.64,1675.09Zm-2285-27.24c0,60.34-.15,120.69,0,181,.26,83.86,41,148.36,119.72,175.23,140.81,48.07,283.7,45.21,424.11-1.06,66.45-21.9,116.34-69.28,118.76-143.42,4.63-141.71,3.19-283.63,2.41-425.46,0-6.89-19.16-20.78-27.1-19.28-33.67,6.35-66.94,15.91-99.44,27-25.94,8.84-35.66,28.15-35.14,57.19,1.78,99.42.72,198.9.66,298.35,0,65-29.36,100.64-94.87,106.07a1076.47,1076.47,0,0,1-156.42,1.24c-63.21-4-89.65-34.88-89.95-97.4-.44-93.87-.12-187.74-.13-281.6,0-68.6-16.78-89.15-85-103.59-13.11-2.77-26.48-4.32-39.57-7.2-26.68-5.87-39.26,1.53-38.54,31.76C2650.74,1513.72,2649.64,1580.8,2649.63,1647.85Zm1154.52,173.76c-10.26-14.74-16.75-23.66-22.83-32.86q-93.26-141-186.39-282.08c-50-75.82-161.1-114.86-253.4-86.1,6.48,11.89,11.75,23.63,18.79,34.19,115.87,173.57,233.9,345.75,346.71,521.28,29.7,46.22,60.38,67.44,115.19,61.44,27-3,44.09-9.42,59.55-32.71,123.43-185.9,248.32-370.84,372.55-556.21,5.73-8.56,9.5-18.44,14.18-27.7l-5.09-11.92c-48.9,5.83-98.3,9.1-146.57,18.24-44.4,8.41-77.08,35-101.76,74.86-49.33,79.66-102.22,157.12-153.85,235.35C3843.59,1764.13,3825.31,1790.44,3804.16,1821.61Z" transform="translate(3164.81 -958.94)"/><path class="cls-1" d="M4934.64,1675.09c-7.87,8.57-15.9,17-23.58,25.73-62.62,71.29-126,142-187.29,214.36-19.39,22.89-30.86,20.6-49.06-.68-63.12-73.82-127.76-146.33-191.9-219.28-6.5-7.4-13.49-14.38-24.28-25.84-1.11,14.39-2.43,23.63-2.44,32.88-.15,98.32-1.22,196.66.57,294.94.58,31.59-10.47,41.65-40.64,39.43a585.28,585.28,0,0,0-83.73,0c-29.79,2.1-38.63-10.13-38.46-38.9,1-162,.46-324,.45-486,0-19-.13-38,0-57,.34-39.07,7.55-45.72,45.23-40.8,60.4,7.89,112.1,29.28,153.38,78.53,65.11,77.67,135.09,151.26,206.28,230.22,42-45.79,82.51-89.71,122.7-133.92,35.29-38.81,69.78-78.36,105.41-116.86,40.9-44.2,95.3-55.74,152.07-57.51,8-.25,22.18,14.27,23.61,23.49,3.55,22.93,1.51,46.75,1.52,70.2q.05,241.33,0,482.66c0,45.29-.26,45.33-43.88,45.44-27.93.07-55.95-1.36-83.77.39-26.87,1.69-34.8-9.5-34.53-35.17,1-96.07.39-192.16.38-288.25q0-17.65,0-35.3Z" transform="translate(3164.81 -958.94)"/><path class="cls-1" d="M2649.64,1647.85c0-67,1.1-134.12-.49-201.13-.72-30.23,11.87-37.64,38.54-31.76,13.08,2.88,26.46,4.43,39.57,7.2,68.24,14.44,85,35,85,103.59,0,93.87-.31,187.74.13,281.6.29,62.52,26.74,93.4,89.95,97.4a1076.47,1076.47,0,0,0,156.42-1.24c65.51-5.44,94.83-41.1,94.87-106.07.06-99.46,1.12-198.93-.66-298.35-.52-29,9.2-48.35,35.14-57.19,32.5-11.08,65.77-20.64,99.44-27,7.95-1.5,27.07,12.39,27.1,19.28.78,141.82,2.22,283.75-2.41,425.46-2.42,74.15-52.31,121.53-118.76,143.42-140.41,46.27-283.3,49.12-424.11,1.06-78.71-26.87-119.46-91.37-119.72-175.23C2649.48,1768.54,2649.63,1708.19,2649.64,1647.85Z" transform="translate(3164.81 -958.94)"/><path class="cls-1" d="M3804.16,1821.61c21.16-31.17,39.43-57.48,57.07-84.21,51.63-78.23,104.52-155.69,153.85-235.35,24.68-39.85,57.35-66.45,101.76-74.86,48.28-9.15,97.67-12.41,146.57-18.24l5.09,11.92c-4.68,9.26-8.44,19.14-14.18,27.7-124.23,185.37-249.12,370.31-372.55,556.21-15.46,23.28-32.56,29.75-59.55,32.71-54.8,6-85.49-15.22-115.19-61.44-112.81-175.54-230.83-347.71-346.71-521.28-7-10.56-12.32-22.3-18.79-34.19,92.3-28.76,203.4,10.27,253.4,86.1q93.06,141.13,186.39,282.08C3787.41,1797.94,3793.9,1806.87,3804.16,1821.61Z" transform="translate(3164.81 -958.94)"/></g><g id="nNpwE6"><path class="cls-1" d="M6093.45,1732.57c-.68,4.23-1.63,7.83-1.79,11.47-.85,19.95-1.46,39.9-2.25,59.85-1,26.54-20,38.15-43.32,25.48-17.83-9.7-34.76-21.08-52-31.87-21.68-13.57-43.26-27.32-64.9-41q-66.28-41.77-132.57-83.51c-14.23-9-28.21-18.39-42.67-27-18.44-10.93-20.41-38.22,1.46-49.45,30.85-15.84,61.26-32.55,91.88-48.84,13.31-7.08,26.68-14,40-21.12,1.76-.94,3.27-2.36,5.89-4.28-2.92-3.26-5.35-6.07-7.89-8.79-10-10.76-20.45-21.2-30-32.36-4.21-4.91-8.19-10.92-9.72-17.06-3.63-14.6,4.69-26.79,20.77-31.45,12.11-3.51,24.49-6.11,36.76-9.09q49.55-12,99.08-24.12c1.92-.47,3.65-1.7,6.41-3-5.65-9.88-11.19-19.12-16.26-28.61-3.12-5.84-6.31-11.85-8.09-18.16-4.58-16.24,3-28.69,19.48-32.45a61.45,61.45,0,0,1,13.57-1.07q167.3-.08,334.61,0c2.81,0,5.62-.07,8.41.16,21.67,1.76,32.4,19.34,22.89,39-7.16,14.8-15.71,28.95-23.92,43.23q-31.17,54.22-62.61,108.28Q6260.46,1569,6224,1631.17c-4.59,7.87-8.91,15.9-13.56,23.74-12.67,21.33-31.48,23.55-49.16,5.92a19.17,19.17,0,0,0-3-1.71c-1.27,3.68-2.58,7.08-3.62,10.57-4.5,15.12-8.59,30.37-13.44,45.37-7.39,22.85-19.88,28.44-41.64,19.3C6098,1733.71,6096.35,1733.4,6093.45,1732.57Z" transform="translate(3164.81 -958.94)"/><path class="cls-1" d="M6682,1933.35c9.9,9.18,20.27,17.54,29.13,27.26,18.13,19.88,23,44.21,20.95,70.31-2,25.72-11,48.64-29.74,66.59-17.78,17-40.09,25.4-64.07,29.15A200.78,200.78,0,0,1,6608,2129c-63.8.2-127.61.12-191.42.09-20.11,0-26.62-6.42-26.63-26.29q0-169.33,0-338.66c0-19.46,6.86-26.62,26.62-26.68,63.8-.17,127.62-.67,191.41.19,31.7.43,61.76,7.6,86.2,30.35,38.4,35.73,45.82,100.25,10.7,142C6698,1918.21,6689.92,1925.37,6682,1933.35Zm-141.32,126.1c23.5,0,47-.37,70.51.13,16.11.34,28.51-5.92,38-18.42,11.27-14.77,13.41-30.82,4.58-47.31-8.14-15.2-20.9-24.66-38.71-24.75-50.16-.25-100.33-.14-150.49-.07-10.39,0-11.08.81-11.12,11.67q-.13,33.68,0,67.35c0,10.65.72,11.33,11.41,11.37C6490.2,2059.52,6515.46,2059.46,6540.72,2059.45Zm-4.83-252.35c-23.86,0-47.71-.07-71.57,0-10,0-10.74.75-10.78,10.84q-.16,34.2,0,68.41c0,12.08.88,12.87,13.48,12.88,45.26,0,90.51.15,135.77-.13a67.14,67.14,0,0,0,19.59-3.24c25.86-8.21,38.38-38.13,26.36-62.32-8.67-17.45-23.61-25.69-42.33-26.29C6582.91,1806.55,6559.39,1807.12,6535.89,1807.1Z" transform="translate(3164.81 -958.94)"/><path class="cls-1" d="M7294.82,2129.13q-47.87,0-95.74,0c-19.89,0-28.18-9.13-33.16-22.37-5.63-14.94-.27-32.87,13.43-40.84,7.4-4.31,17.22-6.11,26-6.18,60.32-.52,120.64-.4,181-.18,10,0,18.13-3.26,26.41-8.47,14.5-9.11,23.08-31.68,18.26-48a47,47,0,0,0-44.48-33.92c-34-.23-68-.16-102.06,0-18.49.07-36.25-3.09-53.21-10.56-38.67-17-65.26-56.7-66.77-98.16-1.27-34.93,9-64.95,34-89.45,18.86-18.47,41.22-30,68-31.71,11.87-.74,23.76-1.66,35.64-1.71,44.19-.2,88.38-.09,132.57-.08,10.3,0,20.52,1,29,7.47,12.46,9.48,16.4,25,11,40.83-4.13,12.19-17.37,21.25-32,21.28q-79.44.18-158.87.05c-12.35,0-23.67,2.91-33.11,11.17-15.16,13.28-20.55,32.09-14.37,49.29,6.84,19,23.43,31.43,44.05,31.63,36.12.37,72.25-.09,108.37.3a116.3,116.3,0,0,1,27,3.37c84,21.2,114.85,126,55.84,189.36-22.71,24.39-51,36.48-84.15,36.87C7356.55,2129.42,7325.68,2129.14,7294.82,2129.13Z" transform="translate(3164.81 -958.94)"/><path class="cls-1" d="M7719.54,1899.31c31.22,0,62.45-.05,93.67,0,22.42.06,35.92,12.66,36,33.38.12,21.75-14,36.14-36.22,36.2-61.75.16-123.49.06-185.24.07-3.16,0-6.31.06-9.47.11-5.55.09-7.43,3.07-6.51,8.26,4.87,27.34,14,52.31,39,68a91,91,0,0,0,47.91,13.85c40.34.45,80.69-.06,121,.5,8.14.11,17.13,1.62,24.18,5.39,13.66,7.32,19.1,24.19,14.81,39.39s-16.15,24.51-32.67,24.57c-42.8.16-85.63,1-128.4-.32-34.19-1.05-66.54-10.38-94.55-31.12-21.65-16-36.67-37.26-46.83-62.15-12.12-29.68-16.31-60.69-17-92.49-.67-29.25,1.1-58.27,8.71-86.55,15-55.82,47.87-95.65,105.48-110.39,19.83-5.07,40.69-7.48,61.19-8.26,34.68-1.31,69.46-.77,104.18-.09,8.82.17,18.45,2.13,26.15,6.22,13.06,6.93,18.14,24.42,13.86,39.9-3.7,13.39-16.36,23-31.72,23.14-38.59.25-77.2-.52-115.77.46a170.78,170.78,0,0,0-43.31,7.13c-24.88,7.32-40.79,25-49.46,49.18a202.35,202.35,0,0,0-6.09,22.31c-2.68,11.45-1.33,13.2,10.17,13.23C7655,1899.36,7687.26,1899.3,7719.54,1899.31Z" transform="translate(3164.81 -958.94)"/><path class="cls-1" d="M7131.87,2097.22c1.32,15.8-12,31-25.12,33.58-18.78,3.69-33.92-3.05-41.06-19.34-6.33-14.43-11.87-29.21-17.84-43.8-2.12-5.18-4.26-10.37-6.74-15.39-5.14-10.42-13.77-15.76-25.3-15.8-45.23-.12-90.45-.32-135.68.09-12.24.11-22.36,5.37-27.4,17.7-6,14.59-12,29.12-18.14,43.65-1.9,4.52-4,8.94-6,13.43-8.87,20.13-29.52,23.65-45,17.51-17.8-7.08-25.78-25.21-18.89-44.29,7-19.42,15.09-38.47,22.79-57.64q43.7-108.77,87.48-217.51c5.88-14.62,11.05-29.6,18-43.73,12.15-24.89,33.1-34.51,60.33-32.83,24.5,1.51,41.05,14.59,50,36,18.61,44.23,35.67,89.11,53.53,133.65,17.46,43.56,35.15,87,52.65,130.57,6.93,17.22,13.79,34.47,20.32,51.84C7131.29,2088.7,7131.24,2093.09,7131.87,2097.22ZM6946.59,1968.7c6,0,11.92,0,17.89,0,9.12,0,18.27.36,27.35-.27,10.54-.73,13.28-5.44,9.5-15.26-4-10.46-8.38-20.79-12.49-31.22-11.32-28.7-22.46-57.47-34-86.06-1.39-3.43-5.08-5.92-7.7-8.85-2.35,2.82-5.47,5.29-6.9,8.52-5.25,11.84-10.07,23.88-14.83,35.93-10.69,27.06-21.46,54.09-31.75,81.3-4.4,11.64-1.34,15.7,10.9,15.87C6918.53,1968.83,6932.56,1968.68,6946.59,1968.7Z" transform="translate(3164.81 -958.94)"/><path class="cls-1" d="M7147.61,1605.18c18.52,14.57,23.78,28.7,17.34,46.79-6.36,17.88-20.82,24.95-38.34,26.09-14.65,1-29.41.22-44.12.38-7.35.08-8.44-4.34-8.42-10.33.1-28.72,0-57.45,0-86.17,0-9.11.15-18.22,0-27.32-.11-6.14,2.48-9,8.74-8.93,14.71.16,29.47-.62,44.12.33,14.19.92,27.45,5.57,32.28,20.83C7163.83,1581.39,7160.51,1594.54,7147.61,1605.18Zm-48,32.06c0,21.09,1.38,22.35,21.64,19.66,12.6-1.67,20.63-10.19,20.14-21.37-.45-10.39-8-16.85-20.86-17.81C7099.63,1616.16,7099.61,1616.18,7099.61,1637.24Zm.19-56.4c0,3.15-.65,6.49.21,9.39.65,2.2,3.26,5.49,4.91,5.45,7.21-.2,14.65-.58,21.52-2.57s9.52-8,8.3-15.11c-1.18-6.81-5.84-10.1-12.47-10.74-2.78-.27-5.6-.25-8.4-.26C7099.79,1567,7099.65,1567.11,7099.8,1580.84Z" transform="translate(3164.81 -958.94)"/><path class="cls-1" d="M6886.61,1668.86c-8.07,3.29-16,8.05-24.61,9.72-18,3.5-32-3.45-39.9-19.76-10.37-21.3-9.88-43.21,2.66-63.33,10.75-17.24,28-22.33,47.66-19.58,3.41.48,6.79,1.23,12.23,2.24,0-8.45,0-15.94,0-23.44,0-3.51,0-7,0-10.52,0-14.78,5.72-19.16,20.09-14.9,2.1.62,3.86,3.41,5.1,5.58.77,1.35.35,3.43.35,5.18q0,63.12,0,126.25c0,10.76-5.46,15.15-15.23,11.48C6891.43,1676.44,6889.2,1671.76,6886.61,1668.86Zm-.94-48.67-1-.17c0-2.45,0-4.91,0-7.36-.09-13.37-8.48-20.15-21.63-17.47-7.39,1.5-12.67,5.93-16.15,12.37-5.72,10.57-7.43,21.72-4.31,33.53,3,11.2,8.89,17.45,17.68,18.17s18.17-5.31,21.4-15.5C6884,1636.24,6884.4,1628.07,6885.67,1620.19Z" transform="translate(3164.81 -958.94)"/><path class="cls-1" d="M7174.94,1624c-1.32-17.17,7.37-33,24.55-42.34,18.8-10.22,38.75-9.21,56.87,3,13.61,9.14,18.58,23.7,19.22,39.13.77,18.62-4.58,35.54-20.94,46.64-17.45,11.84-36.32,12.64-54.76,3.12S7174.83,1647.16,7174.94,1624Zm75.36,3c-1.88-6.63-2.74-13.79-5.84-19.78-8-15.42-29.64-15.75-38.82-1.1-7.57,12.09-6.57,33.34,2.11,44.82a21.42,21.42,0,0,0,33.56.8C7247.13,1644.73,7249.86,1636.62,7250.3,1627.05Z" transform="translate(3164.81 -958.94)"/><path class="cls-1" d="M6474.83,1572.24c-7-2.49-13.73-5.15-20.65-7.33-18.13-5.69-33.35,6.42-39,19-7.11,15.83-8.58,32.52-3.12,49.24,8,24.36,33.4,33.2,55.2,19.48,9-5.64,11.64-4.72,17,4.58,2.49,4.36,1.5,7.13-2.18,9.79-20.22,14.61-42.1,16.78-64.69,7.13-22.42-9.58-31.94-28.62-33.58-51.81-1.37-19.41-.37-38.59,11.31-55.59,10.31-15,24.43-23.28,42.48-23.06a128.66,128.66,0,0,1,33,4.28c14.55,4.1,15.42,8.35,7.18,20.81A40.64,40.64,0,0,1,6474.83,1572.24Z" transform="translate(3164.81 -958.94)"/><path class="cls-1" d="M7464,1668.25c-11.1,9.06-22.76,12.71-36,10.6s-20.82-8.86-23.08-20.91c-2.68-14.26,1.75-27.06,13.54-32.34,9.39-4.2,19.94-5.93,30.09-8.26,5.23-1.21,12,.58,12.61-7.7.53-7.17-5.08-13.21-13.29-12.9-6.84.26-13.74,1.9-20.37,3.79-9,2.56-11.62,1.37-14.9-7.52-3-8.16,2.86-10.19,8.25-11.46,10.82-2.56,21.82-5.88,32.78-6,20.11-.18,32.37,12.69,33.27,32.92.5,11.19-.07,22.43.26,33.63.24,8,1.38,16,1.69,24,.17,4.27,2,10.2-4.09,11.54-5.91,1.29-12.69,2.75-17.17-3.87C7466.72,1672.43,7465.81,1671,7464,1668.25Zm-2.46-26.34c.63-5.22-2.47-8.26-8.61-7.34a78,78,0,0,0-16,4c-5.61,2.13-8.31,7.49-6.18,12.71,1.58,3.86,5.79,8.09,9.71,9.27C7450.31,1663.49,7461.71,1653.45,7461.58,1641.91Z" transform="translate(3164.81 -958.94)"/><path class="cls-1" d="M6550.34,1669.51c-2.37,1.29-4.74,2.61-7.15,3.89-8.2,4.33-16.68,6.86-26.21,5.64-15.2-2-23.63-8.9-25.66-21.92-2.4-15.36,3.53-28.19,17.32-33.43,9-3.43,18.92-4.65,28.5-6.42,4.95-.91,10-.85,10.67-7.58.56-6.06-3.55-12.42-10-12.58-7.16-.18-14.88.43-21.46,3-10.37,4.06-12.06,2.75-17-8.39-1.79-4.05-.39-6.91,3.48-8.44,12.77-5,25.68-9.64,39.76-7.69,20.69,2.86,30.15,13.48,30.91,34.41.06,1.75,0,3.5.07,5.25.61,16.42,1.41,32.84,1.74,49.26.09,4.79,2.72,11-4.46,13.48a15.4,15.4,0,0,1-17.93-6A20.85,20.85,0,0,0,6550.34,1669.51Zm-2.28-26.88c.4-5.14-1.82-9-8.28-8a81.38,81.38,0,0,0-17,4.28c-5.13,2-7.62,7.2-5.66,12,1.6,3.9,5.49,8.26,9.34,9.57C6535.79,1663.59,6548,1653.34,6548.06,1642.63Z" transform="translate(3164.81 -958.94)"/><path class="cls-1" d="M6728.33,1668.59c-9.42,7.35-19.29,10.85-30.73,10.34-16.12-.71-24.83-7-28-21.5-3.12-14.06,3.32-28.39,16.73-33.64,8.65-3.39,18.17-4.62,27.37-6.48,5.22-1.06,12,.85,12.8-7.4.56-6-6.42-13.29-13.77-13.11a82.26,82.26,0,0,0-20.42,3.58c-8.52,2.45-10.17,2.14-13.65-5.85-3.05-7-2.44-10.15,5.87-12.45,11.66-3.23,23.81-6.2,35.79-6.37,16.64-.24,26.65,8.92,29.94,25.38,1.77,8.82,1.69,18,2.1,27.08.64,14,.83,27.95,1.53,41.91.27,5.34-1.93,7.63-7,8.3C6737.61,1679.58,6734.28,1678.1,6728.33,1668.59Zm-2.84-35.3c-7.74,1.39-15.09,1.92-21.88,4.13-8,2.61-11.38,10.16-8.64,16.4s10.16,8.94,17.81,6.26C6723.47,1656.34,6727.73,1648.23,6725.49,1633.29Z" transform="translate(3164.81 -958.94)"/><path class="cls-1" d="M6974.56,1632.51c-6.66,0-13.35-.33-20,.16-2.72.2-6.89,1.63-7.56,3.51-.82,2.29.7,6.1,2.34,8.48,8.31,12,20.66,14.6,34.25,13.73,2.44-.16,4.84-.81,7.27-1.13,10.59-1.39,11.85-.16,13,10.44.47,4.3-.83,6.93-4.81,7.95-19.89,5.08-52.36,7.69-70-14.61-12.06-15.27-13.89-45.35-2.11-64.61,10.7-17.52,31.16-25.1,52.21-19.22,11.27,3.15,19,10.79,23,21.33,2.69,7.08,3.76,15,4.43,22.57.74,8.48-2.24,11.1-11.05,11.31-7,.17-14,0-21,0Zm7.41-18c-.86-13.11-6.51-19.55-15.67-19.17-10.23.43-17.35,7.82-17.9,19.17Z" transform="translate(3164.81 -958.94)"/><path class="cls-1" d="M7363.24,1574.19c7.48,1.62,15,3.1,22.42,4.92,4.87,1.19,7.36,4.29,5.07,9.35-2,4.42-2.12,11-10.1,9.3a164.43,164.43,0,0,0-18.56-3.13c-5.62-.55-11,1.33-12.52,7.25-1.46,5.69,3.81,7.71,7.84,9.62a210,210,0,0,0,21.2,9.11c13,4.45,19.05,13.84,19.79,26.82.72,12.6-6.79,24-19.18,28.57-17.59,6.48-35.06,4.18-52.16-2.59-7.47-3-4.34-8.13-2.92-13.13,1.57-5.53,4.41-6.74,10.15-5.32a182.6,182.6,0,0,0,26.67,4.28c5.13.49,10-1.7,11.22-7.45s-3.28-8.16-7.44-10c-7.65-3.45-15.62-6.19-23.24-9.7-17-7.82-22.75-24.72-14-41,6.21-11.63,17.79-13.74,29.29-15.67a38.48,38.48,0,0,1,6.29,0Z" transform="translate(3164.81 -958.94)"/><path class="cls-1" d="M6591.92,1654.19c10.1,1.95,18.92,3.76,27.79,5.28,2.37.41,5.23.63,7.26-.33,3.2-1.51,7.63-3.65,8.3-6.34s-1.86-7.09-4.2-9.61-6-3.47-9.14-4.89c-6.4-2.84-13.12-5.05-19.26-8.36-10.5-5.65-15.82-14.59-14.65-26.81,1.16-12,7.49-20.1,18.7-24.38,14.81-5.66,29.6-4,44.34.39,3.75,1.12,6.8,3.27,4.72,7.57s-1.29,11.42-8.95,11c-3.1-.16-6.12-1.59-9.24-1.94-4.84-.53-10-1.72-14.49-.55-3.4.88-6.93,4.57-8.43,7.9-.69,1.52,2.85,5.89,5.38,7.7,3.34,2.39,7.56,3.56,11.43,5.19,4.84,2,9.86,3.7,14.52,6.07,13.48,6.87,18,16.2,15.83,32.15-1.56,11.74-10.73,21.14-23.6,23.75a80.15,80.15,0,0,1-41.44-2.65c-11.29-3.7-12-5.47-7.37-16.72A38.75,38.75,0,0,1,6591.92,1654.19Z" transform="translate(3164.81 -958.94)"/><path class="cls-1" d="M7310.19,1676.36c-1.72.91-2.3,1.44-3,1.53-18.82,2.85-20.63,1.32-20.63-17.42q0-59.34,0-118.69c0-11.68,10-17.78,20.15-11.92,2,1.18,3.37,5.13,3.47,7.87.4,10.84.18,21.7.2,32.55q.07,50.42.14,100.83C7310.58,1672.83,7310.33,1674.54,7310.19,1676.36Z" transform="translate(3164.81 -958.94)"/></g><g id="_0mk6s4.tif" data-name="0mk6s4.tif"><path class="cls-1" d="M-627.76,1837.07c-3.17,14.47-5.74,27.77-9.25,40.81-.7,2.58-4.79,5.54-7.71,6-27.95,4.8-55.85,11.51-84,13.08-60.42,3.37-121,5.49-181.5,5.38-71.34-.13-142.66-3.88-214-4.68-57.46-.64-114.94,1.5-172.4,1.08-49.72-.36-99.43-3.25-149.15-3.77-31.78-.33-63.59,2.33-95.39,2.44-87.76.32-175.54,1.21-263.28-.36-101.62-1.82-203.21-5.62-304.78-9.32-74.7-2.72-149.33-8.43-224-9.57-75-1.15-150.16.36-225.13,3.52-28,1.18-55.6,10.29-83.38,15.85-1.38.28-2.62,1.22-5.14,2.44,3.47,3.78,6.34,6.84,9.14,10,28.59,31.72,53.14,66,65.11,107.64,13.17,45.82,0,79.11-40.36,104.6-71.75,45.26-168.31,4.72-185.83-78.28-8.55-40.52,4.83-75.33,31.67-104.87,14.43-15.89,31.81-29.1,47.92-43.45,2.46-2.19,5.25-4,8.95-6.83-10-8.67-19.08-16.93-28.68-24.53-1.77-1.4-6-.88-8.55.06a480.21,480.21,0,0,1-129.15,27.27c-45.57,3.37-91.29,5.58-137,6.22-45.07.64-90.18-1.27-135.26-2.2-5.17-.11-10.32-1.1-15.85-1.72V1856c66,6.23,131.9,6.59,197.79,3.44,65.52-3.14,131.38-3.92,198.42-20.29-4.48-4.16-6.94-6.57-9.53-8.84-29.69-26.07-60.72-50.78-88.79-78.5-36.6-36.14-65.3-78.51-82.43-127.37-27.6-78.72-14.54-150.87,39.15-215,39.31-46.94,90.43-71.26,151-76.86,41.48-3.83,82.16-1.24,120.92,15.19,53.87,22.82,90.68,63.72,119.22,113.49,36.68,64,32,128.46,2.38,192.72-37.38,81.14-99,139.91-175.06,184.68-3.15,1.85-6.25,3.78-6.22,3.46,7.58,9.3,15,18.76,22.92,27.75,1.26,1.43,5.19,1.67,7.39.95,40.72-13.38,82.77-20.1,125.25-23.77,25.51-2.21,51.24-2.7,76.86-2.59,79.72.34,159.45.42,239.14,2.33,85.53,2.05,171,6.58,256.53,9.09,76.88,2.25,153.79,4.48,230.69,4.5,145.84,0,291.68-2.13,437.51-2.2,91.76,0,183.52,1.92,275.28,3.28,45.1.67,90.19,2.92,135.27,2.74,29.6-.12,59.21-3,88.77-5.21,33.25-2.5,66.53-4.9,99.64-8.78,22.93-2.69,45.58-7.81,68.36-11.85C-632.29,1838-630.28,1837.56-627.76,1837.07Zm-2095.41-479.72c-60.77,3.2-114.54,23.71-157.87,67.24-35.28,35.44-54.24,78.25-47.13,129.1,6.22,44.42,24.86,84.91,49.29,121.78,37.58,56.7,88.17,101.32,141.56,142.81,4.63,3.6,8.35,2.9,12.5,0,27-19,55.52-36.1,80.52-57.38,53.27-45.34,95.13-99.43,114.49-168.16,10.61-37.68,9.19-74.48-11.35-109.1-26.74-45.07-62.77-80.73-108.62-106.19C-2672.48,1364.82-2696.64,1356.86-2723.17,1357.34Zm28.82,750.11c13.18-1.56,24.15-1.79,34.53-4.38,11-2.73,22.18-6.32,31.85-12,28.6-16.75,35.12-45.5,19.47-81s-41.42-63.38-68.41-90.27c-1.77-1.77-7.28-2.18-9.47-.77-40.55,26-69.77,61.06-80.19,108.86-7.62,34.95,7.82,62.82,39.08,73.36C-2716.29,2105.08-2704,2105.74-2694.36,2107.46Z" transform="translate(3164.81 -958.94)"/><path class="cls-1" d="M-661.47,1596.22c4.57-11,8.34-22.35,13.91-32.78,8.81-16.51,17.59-33.29,28.7-48.23,10-13.48,19-13,32.66-3,12,8.86,17.18,21.8,20,35.46,3.84,18.4,5.62,37.23,9.54,55.61,2.94,13.8,7.35,27.36,12.07,40.69,3.52,9.92,11.78,15.28,21.41,18.18,3.17-14.63,4.85-29.1,9.48-42.54,18.9-54.83,50-100,105.32-123.7,20.31-8.72,41.88-10.33,63.24-2.58,9.41,3.42,9.39,5.31,5.12,14-2.5,5.08-3.48,11.09-4.28,16.8q-9.06,64.61-17.7,129.28c-.4,3-.05,6-.05,10.79l58.58-40.07,3,.89c-.35,3.51.56,8-1.25,10.38-8.87,11.83-18.21,23.33-27.88,34.53a276.58,276.58,0,0,1-23.65,24.8c-7,6.28-9.78,13.46-10.54,22.53-2.86,34.14-5.32,68.35-9.6,102.32-4.32,34.26-10,68.31-28.53,98.78-19.29,31.72-46.73,52.28-82.12,62-21.61,5.92-42.46,4.71-58.77-13.69-9.51-10.73-12.16-24-13.35-37.71-3.6-41.5,13.35-76.61,35.15-109.84,27.94-42.6,64.83-77,104.67-107.94,15.25-11.85,24.41-23.87,21.53-43.75-1.22-8.39-.2-17.09-.2-28.07-3.13,3.94-4.94,6.13-6.66,8.4-13.16,17.37-28.09,32.79-47,44.14-14.11,8.49-29.4,10.65-45.45,9.34-8.85-.72-15.62-4.82-20.94-12-1.66-2.25-5.36-4.69-7.81-4.4-16.92,2-28.78-6.34-35.53-20-8.14-16.45-14.31-34-19.84-51.57-5.92-18.79-10.06-38.15-15.11-57.22-.83-3.14-2.39-6.09-4.62-11.6-5,5.77-9.88,9.43-12.1,14.3-11.87,26.05-23.8,52.13-34.28,78.75-7.78,19.76-13.4,40.37-19.95,60.61-2,6.11-10.85,12.15-17.3,10.63-7.15-1.68-11.85-5.9-11.57-14.35.74-23.16,1.7-46.33,1.55-69.48-.28-45.4-1.34-90.79-1.8-136.19,0-4.6,1.87-9.21,2.87-13.82,4.75,1.38,9.62,2.41,14.21,4.2,7.93,3.1,9.93,9.43,10,17.62.38,31.48,1.31,63,2.06,94.43,0,1.49.28,3,.42,4.46Zm264.86,135.15c-2.72,1.91-4.85,3-6.53,4.62-21.7,20.6-43.87,40.74-64.88,62-32.17,32.6-52.4,71.31-56.46,117.61-2.37,27,18.7,42.86,43.7,32.42a99.32,99.32,0,0,0,41.26-31.83c14.77-19.29,23.94-41.56,29.25-64.43,6.87-29.54,9.62-60.08,13.46-90.27C-395.59,1752-396.61,1742.18-396.61,1731.37Zm21.11-212.52-3.3-2.69c-7.39,2.63-15.18,4.46-22.1,8-41.17,21.13-68.52,54.82-85.24,97.23-4.53,11.48-6.67,24.22-7.86,36.59-.84,8.69,4.4,12.59,12.37,9.12,12.22-5.31,25.08-11.12,34.79-19.9,30.58-27.65,50.1-63.09,65.11-101C-378.32,1537.62-377.51,1528-375.5,1518.85Z" transform="translate(3164.81 -958.94)"/><path class="cls-1" d="M-1633.67,1549.55c10.34-18,20.62-33.39,28.36-50,8.9-19.08,35.3-16.94,42.76.35,6.07,14.08,10.52,28.87,15.33,43.46,4.25,12.86,7.07,26.27,12.18,38.76,11.58,28.31,28.88,50.53,63.46,51.37-15,22.65-44.3,26.23-64.11,8.53-14.22-12.71-22.65-29.3-29.2-46.69-7.17-19-13.07-38.54-19.56-57.83a24,24,0,0,0-4.7-8.58c-21.05,26.37-27.53,58.51-36,89.62-8.56,31.57-8.47,64-5.58,97.54-10.33-2.83-20.12-4.87-29.28-8.5-2.18-.86-3.16-7-3.14-10.77.12-25.32.66-50.63,1-75.95a25.94,25.94,0,0,0-.74-4.14c-10.68,10.47-20.48,20.56-30.79,30.1-25.32,23.43-52.49,44.44-85.91,54.77-10.51,3.25-22.51,3-33.69,2.33-13.5-.87-19.45-11.76-24.16-22.89-1.79-4.23-3-8.69-5-14.31-2.89,2.54-5.09,4.49-7.31,6.43-13.33,11.64-28.22,20.06-46.26,21.25-16.73,1.1-23.29-3.75-26.7-20.11-2.64-12.63-4.44-25.44-7-40.57-3.65,6.88-6.32,12.17-9.21,17.33-8.6,15.34-16.53,31.14-26.31,45.69a41.76,41.76,0,0,1-19,14.73c-16.37,6.12-32.32-3.11-35.14-20.86a452.63,452.63,0,0,1-5.29-59.86c-1.24-51.88-1.46-103.79-2.09-155.69,0-2.15,0-4.3,0-6.32,14.18-5.22,32.75,6.68,32.44,21.35-.8,37.66-2.7,75.29-3.39,113a501.24,501.24,0,0,0,2.1,52.62c.46,5.25,4.88,10.15,7.48,15.21,4.25-3.58,9.63-6.42,12.56-10.87,24.79-37.76,40.43-78.92,44.44-124.16a46.94,46.94,0,0,0-.34-8.31c-1.14-12.53,1.38-15.33,14.11-15.58.93,0,1.85,0,2.78,0,16.31.56,16.22.55,15.28,16.45-2,33-4.3,65.91-5.4,98.89-.34,10.27,1.71,21,4.61,30.91,3.62,12.43,12.21,15.78,22.76,8.86a235.64,235.64,0,0,0,31.82-25.24c3.15-3,3.16-9.6,4-14.65,6.55-39.74,21.13-76.07,46.55-107.51,18.15-22.45,50.7-32.61,77.45-23.47-3.69,4.37-6.22,8.57-9.82,11.42-12.56,9.94-26.29,18.53-38.11,29.25-26,23.53-38.57,54.85-46.06,88-2.24,9.94.56,21.48,2.91,31.87s9.32,13.49,19.74,11.66c21.91-3.84,41-13.91,57.59-28.17,20.8-17.92,40.77-36.82,60.52-55.9,3.45-3.33,5.72-9.65,5.67-14.56-.64-71.35-1.7-142.7-2.81-214.05-.23-15,7.69-23.27,22.73-23,8.79.13,8.5,6.94,8.6,12.58.28,16-.21,32.09,0,48.12q1,74.6,2.28,149.19C-1634.19,1544.12-1634,1545.64-1633.67,1549.55Z" transform="translate(3164.81 -958.94)"/><path class="cls-1" d="M-1282.61,1465.92c10.72,3,19.47,4.7,27.5,8.1,2.45,1,4.15,6.74,4.1,10.28-.22,16.35-1.37,32.69-1.84,49-1.13,38.86-2.6,77.73-2.67,116.59,0,7.82,5.55,15.64,8.54,23.46,6.11-5.14,13.81-9.22,18.08-15.59,25.34-37.87,38.54-79.72,38.45-125.51,0-19.68,7.19-25,26.13-19.31,5.46,1.65,8.37,4.27,7.57,11.38-4,35.55-9.48,71.19-2.91,107,1.87,10.21,5.21,20.26,8.86,30,2.8,7.46,9.25,9.39,15.87,5,9.48-6.28,18.41-13.4,27.48-20.29,2.45-1.86,4.21-5,6.89-6.12,13.31-5.64,13.69-16,12.4-28.37-3.88-37.14-6.93-74.37-10.27-111.57-.58-6.46-1.4-12.95-1.21-19.4.07-2.37,2.26-6.08,4.27-6.73,7.37-2.38,23.22,8.45,24.19,16.27,2.72,22,5.17,44.12,7.75,66.18.18,1.51.52,3,1.14,6.54,2.62-4.14,4.42-6.79,6-9.55,19.68-33.78,51.21-46.52,88.13-49.59a67.16,67.16,0,0,1,13.88,0c3.18.4,8.85,2.53,8.77,3.5-.38,4.54-1.47,9.59-4.08,13.18-1.84,2.54-6.39,3.79-9.93,4.35-44.63,7-69.63,36.14-86.47,75.3-7.78,18.11-9.57,36.88-9.78,56.07-.15,13.9-.27,27.81.2,41.69.2,6-1.93,9.76-7.45,11a54.26,54.26,0,0,1-14.61,1.36c-6.8-.38-9.16-4.8-9.07-11.46.25-17.58.08-35.16-1.8-53.74-1.9,2.41-3.95,4.73-5.68,7.26-10.08,14.73-22.21,27.2-38,35.95-19,10.54-37.71,7.1-43.27-17.28-2.92-12.81-5.81-25.63-9.26-40.85-3.87,7.66-6.58,13.64-9.83,19.32-8.42,14.72-16.67,29.56-25.84,43.8-3.57,5.54-8.93,10.33-14.38,14.19-16.71,11.82-37.8,5.85-42.82-13.91-5.11-20.13-6.62-41.19-9.23-61.91-.83-6.62-.13-13.43-.13-22.82l-47.74,33.46c4.56,8.16,9.53,15.59,13,23.67,4.84,11.15,3.81,22.19-3.06,32.65-15.06,22.93-35.4,39.42-60.62,49.83-11,4.54-22.49,4.24-33.55.2-19.32-7.06-27.1-27.55-14.94-45.43,10.09-14.82,23.86-27.16,36.23-40.37,3.72-4,8.24-7.19,14-12.12-8.9-5.59-16.69-10.22-24.22-15.25-23.32-15.58-47.23-30.4-69.63-47.23-29.33-22-25.58-57.2-5.52-80,24.4-27.76,55.25-35.59,90.67-27.91,23.27,5,43.06,15.3,54.24,37.72,1.36,2.73,1.66,6,2.45,9-3.66-.29-7.69.31-10.92-1-12.73-5.29-24.73-13.12-37.89-16.43-22.34-5.61-44.93-3.71-65.86,7-20.22,10.36-25,24.56-12.27,43.16a102,102,0,0,0,29.79,28.35c20.68,12.74,43.55,21.93,64.41,34.41,12,7.18,21.13,6.64,32.65-.31,15.26-9.21,31.85-16.17,47.42-24.9,2.72-1.53,4.46-7,4.53-10.72.61-35.51.77-71,1.05-106.55C-1282.59,1476.23-1282.61,1472.59-1282.61,1465.92Zm-83,200.26c-15.15,12.39-30.07,24.44-39.6,41.5-2.2,3.93-2.24,9.07-3.27,13.65,5.21.29,11.68,2.7,15.39.49,11.46-6.83,23.12-14.2,32.39-23.64C-1346.85,1684.12-1348.38,1678.15-1365.58,1666.18Z" transform="translate(3164.81 -958.94)"/><path class="cls-1" d="M-2180.52,1602.18c-13,13.94-24.78,26-36,38.59-21,23.47-44.13,44.22-73.81,56.16a166.27,166.27,0,0,1-27.32,8.47c-22.85,4.86-38.45-4.65-45.53-26.94-8.61-27.1-8.78-54.56-4.1-82.4,5.06-30,15.47-57.81,33.92-82.2,20.34-26.87,45.82-43.88,81.28-40.43,2.66.26,7,1.84,7.3,3.37.41,2.46-1.4,5.87-3.29,8-2.19,2.44-5.5,3.86-8.28,5.8-13.64,9.5-27.66,18.51-40.81,28.65-26.77,20.65-34.09,51.1-39.79,82.12-3.31,18-6,36-.4,54.08,4.32,14,12.07,19.16,25.84,14.37s28.25-10,40.13-18.35c33.52-23.46,63.06-51.62,89.28-83.1,1.8-2.16,2.64-5.44,3.07-8.33.91-6.09.58-12.42,2-18.37,3.52-15,1.92-28.08-12.32-36.5,5.29-5,9.7-9.74,14.7-13.7a12.47,12.47,0,0,1,8.26-2.38c31.87,3.44,62.2,11.87,90.95,26.52,25.38,12.94,32.51,33.83,29.33,60.13-4.86,40.26-17.8,77.63-42,110.38-22.13,29.95-57.51,27.22-76.53-5.2a104.38,104.38,0,0,1-14.32-49.24C-2179.4,1622.54-2179.94,1613.42-2180.52,1602.18Zm42.66-75.86c-1.37,1.43-2,1.8-2.17,2.31-11.54,40.94-15.87,82.34-5.74,124.17,4.48,18.49,22.91,22.74,36.17,9,21.38-22.09,33.44-48.55,36.18-79.12,2-22-4.84-35-24.82-43.61C-2111.1,1533.55-2125,1530.38-2137.86,1526.32Z" transform="translate(3164.81 -958.94)"/><path class="cls-1" d="M-907.11,1480.06c-13.08,1.1-25.28,2.32-37.51,3.1-10.47.66-21,1-31.46,1.14-7.56.12-9.76-4.19-7.91-11,3.29-12.15,10.08-18.17,22.37-19.54,14.42-1.6,28.84-3.36,43.31-4.25,7.5-.46,10-3.14,9.93-10.7-.2-29.47,2.66-58.63,12.57-86.64,10.26-29,32.93-47.35,59.81-45.07,31.33,2.66,54.68,19.7,69.5,47.42,1.89,3.53,1.26,11.07-1.32,13.75-4.75,4.92-17.67,3.69-21.14-.52-4.31-5.23-8.2-10.8-12.36-16.15-15.07-19.39-46.86-12.21-56.92,4.23-10.48,17.13-14.41,35.93-15.65,55.54-.49,7.7.1,15.53-1,23.12-1.06,7.23,1,9.53,8.16,9,13.85-1.08,27.77-1.43,41.62-2.49,17.74-1.35,23.82,2,31.29,18.08,3.82,8.22,2.24,11.38-6.74,12.16-21.84,1.88-43.69,3.8-65.57,5-6.37.36-8.77,2.09-8.45,8.58,1.85,38.2,3.12,76.44,5.25,114.63,1.88,33.6,4.74,67.15,7,100.73.66,10-1.82,12.7-11.64,11.6-19.81-2.21-18.14,2.91-19.65-19.11-3.5-51.14-6.14-102.34-9.26-153.51C-904.08,1520.08-905.61,1501-907.11,1480.06Z" transform="translate(3164.81 -958.94)"/><path class="cls-1" d="M-738,1708.65c-7.29,0-13.19.79-18.8-.16-12.9-2.18-17.19-7.21-18-20.23q-4.84-75.79-9.49-151.59c-.62-9.85-.59-19.84-2.32-29.51-2.19-12.2,5.38-18.32,13.44-23.83,8.72-6,15.41-2.23,16.05,8.24,3.06,49.91,5.56,99.86,9.28,149.72,1.32,17.76,5.56,35.3,8.36,53C-738.84,1698.48-738.61,1702.76-738,1708.65Z" transform="translate(3164.81 -958.94)"/><path class="cls-1" d="M-751.23,1405.26c-.08,9.63-13.5,27.37-22.75,30.09-12.3,3.61-20.31-3.44-18.2-16,1.83-10.93,17.58-27.45,28.19-29.56C-755.54,1388.06-751.13,1393.41-751.23,1405.26Z" transform="translate(3164.81 -958.94)"/><path class="cls-1" d="M-312.84,1921v27l-1.7.19-1-18-1.54-.54-9.17,22.54-9.16-22.35-1.91.18-.89,18-1.74-.11v-28.27c10.22,4.87,7,16.82,14.51,23.12,1.68-4.37,3.12-8.26,4.68-12.1,1.48-3.64,3.08-7.24,4.63-10.85Z" transform="translate(3164.81 -958.94)"/><path class="cls-1" d="M-360.1,1948.56c-6.14-8.52,6.61-23-11.75-28h20.63C-366,1926.38-353.74,1940.12-360.1,1948.56Z" transform="translate(3164.81 -958.94)"/></g></svg>