<?xml version="1.0" encoding="UTF-8" standalone="no"?>
<!-- Created with Inkscape (http://www.inkscape.org/) -->

<svg
   xmlns:dc="http://purl.org/dc/elements/1.1/"
   xmlns:cc="http://creativecommons.org/ns#"
   xmlns:rdf="http://www.w3.org/1999/02/22-rdf-syntax-ns#"
   xmlns:svg="http://www.w3.org/2000/svg"
   xmlns="http://www.w3.org/2000/svg"
   xmlns:sodipodi="http://sodipodi.sourceforge.net/DTD/sodipodi-0.dtd"
   xmlns:inkscape="http://www.inkscape.org/namespaces/inkscape"
   width="370mm"
   height="120mm"
   viewBox="0 0 370 120"
   version="1.1"
   id="svg4610"
   inkscape:version="0.92.3 (2405546, 2018-03-11)"
   sodipodi:docname="couch-surfing.svg">
  <defs
     id="defs4604" />
  <sodipodi:namedview
     id="base"
     pagecolor="#ffffff"
     bordercolor="#666666"
     borderopacity="1.0"
     inkscape:pageopacity="0.0"
     inkscape:pageshadow="2"
     inkscape:zoom="0.24748737"
     inkscape:cx="-131.15162"
     inkscape:cy="742.92682"
     inkscape:document-units="mm"
     inkscape:current-layer="layer1"
     showgrid="false"
     inkscape:window-width="1366"
     inkscape:window-height="705"
     inkscape:window-x="-8"
     inkscape:window-y="-8"
     inkscape:window-maximized="1" />
  <metadata
     id="metadata4607">
    <rdf:RDF>
      <cc:Work
         rdf:about="">
        <dc:format>image/svg+xml</dc:format>
        <dc:type
           rdf:resource="http://purl.org/dc/dcmitype/StillImage" />
        <dc:title></dc:title>
      </cc:Work>
    </rdf:RDF>
  </metadata>
  <g
     inkscape:label="Capa 1"
     inkscape:groupmode="layer"
     id="layer1"
     transform="translate(0,-177)">
    <g
       transform="matrix(0.12743891,0,0,0.12743891,2.3955473,141.99993)"
       id="_0mk6s4.tif"
       data-name="0mk6s4.tif">
      <path
         inkscape:connector-curvature="0"
         class="cls-1"
         d="m -627.76,1837.07 c -3.17,14.47 -5.74,27.77 -9.25,40.81 -0.7,2.58 -4.79,5.54 -7.71,6 -27.95,4.8 -55.85,11.51 -84,13.08 -60.42,3.37 -121,5.49 -181.5,5.38 -71.34,-0.13 -142.66,-3.88 -214,-4.68 -57.46,-0.64 -114.94,1.5 -172.4,1.08 -49.72,-0.36 -99.43,-3.25 -149.15,-3.77 -31.78,-0.33 -63.59,2.33 -95.39,2.44 -87.76,0.32 -175.54,1.21 -263.28,-0.36 -101.62,-1.82 -203.21,-5.62 -304.78,-9.32 -74.7,-2.72 -149.33,-8.43 -224,-9.57 -75,-1.15 -150.16,0.36 -225.13,3.52 -28,1.18 -55.6,10.29 -83.38,15.85 -1.38,0.28 -2.62,1.22 -5.14,2.44 3.47,3.78 6.34,6.84 9.14,10 28.59,31.72 53.14,66 65.11,107.64 13.17,45.82 0,79.11 -40.36,104.6 -71.75,45.26 -168.31,4.72 -185.83,-78.28 -8.55,-40.52 4.83,-75.33 31.67,-104.87 14.43,-15.89 31.81,-29.1 47.92,-43.45 2.46,-2.19 5.25,-4 8.95,-6.83 -10,-8.67 -19.08,-16.93 -28.68,-24.53 -1.77,-1.4 -6,-0.88 -8.55,0.06 a 480.21,480.21 0 0 1 -129.15,27.27 c -45.57,3.37 -91.29,5.58 -137,6.22 -45.07,0.64 -90.18,-1.27 -135.26,-2.2 -5.17,-0.11 -10.32,-1.1 -15.85,-1.72 V 1856 c 66,6.23 131.9,6.59 197.79,3.44 65.52,-3.14 131.38,-3.92 198.42,-20.29 -4.48,-4.16 -6.94,-6.57 -9.53,-8.84 -29.69,-26.07 -60.72,-50.78 -88.79,-78.5 -36.6,-36.14 -65.3,-78.51 -82.43,-127.37 -27.6,-78.72 -14.54,-150.87 39.15,-215 39.31,-46.94 90.43,-71.26 151,-76.86 41.48,-3.83 82.16,-1.24 120.92,15.19 53.87,22.82 90.68,63.72 119.22,113.49 36.68,64 32,128.46 2.38,192.72 -37.38,81.14 -99,139.91 -175.06,184.68 -3.15,1.85 -6.25,3.78 -6.22,3.46 7.58,9.3 15,18.76 22.92,27.75 1.26,1.43 5.19,1.67 7.39,0.95 40.72,-13.38 82.77,-20.1 125.25,-23.77 25.51,-2.21 51.24,-2.7 76.86,-2.59 79.72,0.34 159.45,0.42 239.14,2.33 85.53,2.05 171,6.58 256.53,9.09 76.88,2.25 153.79,4.48 230.69,4.5 145.84,0 291.68,-2.13 437.51,-2.2 91.76,0 183.52,1.92 275.28,3.28 45.1,0.67 90.19,2.92 135.27,2.74 29.6,-0.12 59.21,-3 88.77,-5.21 33.25,-2.5 66.53,-4.9 99.64,-8.78 22.93,-2.69 45.58,-7.81 68.36,-11.85 2.01,-0.36 4.02,-0.8 6.54,-1.29 z m -2095.41,-479.72 c -60.77,3.2 -114.54,23.71 -157.87,67.24 -35.28,35.44 -54.24,78.25 -47.13,129.1 6.22,44.42 24.86,84.91 49.29,121.78 37.58,56.7 88.17,101.32 141.56,142.81 4.63,3.6 8.35,2.9 12.5,0 27,-19 55.52,-36.1 80.52,-57.38 53.27,-45.34 95.13,-99.43 114.49,-168.16 10.61,-37.68 9.19,-74.48 -11.35,-109.1 -26.74,-45.07 -62.77,-80.73 -108.62,-106.19 -22.7,-12.63 -46.86,-20.59 -73.39,-20.11 z m 28.82,750.11 c 13.18,-1.56 24.15,-1.79 34.53,-4.38 11,-2.73 22.18,-6.32 31.85,-12 28.6,-16.75 35.12,-45.5 19.47,-81 -15.65,-35.5 -41.42,-63.38 -68.41,-90.27 -1.77,-1.77 -7.28,-2.18 -9.47,-0.77 -40.55,26 -69.77,61.06 -80.19,108.86 -7.62,34.95 7.82,62.82 39.08,73.36 11.2,3.82 23.49,4.48 33.13,6.2 z"
         transform="translate(3164.81,-958.94)"
         id="path67" />
      <path
         inkscape:connector-curvature="0"
         class="cls-1"
         d="m -661.47,1596.22 c 4.57,-11 8.34,-22.35 13.91,-32.78 8.81,-16.51 17.59,-33.29 28.7,-48.23 10,-13.48 19,-13 32.66,-3 12,8.86 17.18,21.8 20,35.46 3.84,18.4 5.62,37.23 9.54,55.61 2.94,13.8 7.35,27.36 12.07,40.69 3.52,9.92 11.78,15.28 21.41,18.18 3.17,-14.63 4.85,-29.1 9.48,-42.54 18.9,-54.83 50,-100 105.32,-123.7 20.31,-8.72 41.88,-10.33 63.24,-2.58 9.41,3.42 9.39,5.31 5.12,14 -2.5,5.08 -3.48,11.09 -4.28,16.8 q -9.06,64.61 -17.7,129.28 c -0.4,3 -0.05,6 -0.05,10.79 l 58.58,-40.07 3,0.89 c -0.35,3.51 0.56,8 -1.25,10.38 -8.87,11.83 -18.21,23.33 -27.88,34.53 a 276.58,276.58 0 0 1 -23.65,24.8 c -7,6.28 -9.78,13.46 -10.54,22.53 -2.86,34.14 -5.32,68.35 -9.6,102.32 -4.32,34.26 -10,68.31 -28.53,98.78 -19.29,31.72 -46.73,52.28 -82.12,62 -21.61,5.92 -42.46,4.71 -58.77,-13.69 -9.51,-10.73 -12.16,-24 -13.35,-37.71 -3.6,-41.5 13.35,-76.61 35.15,-109.84 27.94,-42.6 64.83,-77 104.67,-107.94 15.25,-11.85 24.41,-23.87 21.53,-43.75 -1.22,-8.39 -0.2,-17.09 -0.2,-28.07 -3.13,3.94 -4.94,6.13 -6.66,8.4 -13.16,17.37 -28.09,32.79 -47,44.14 -14.11,8.49 -29.4,10.65 -45.45,9.34 -8.85,-0.72 -15.62,-4.82 -20.94,-12 -1.66,-2.25 -5.36,-4.69 -7.81,-4.4 -16.92,2 -28.78,-6.34 -35.53,-20 -8.14,-16.45 -14.31,-34 -19.84,-51.57 -5.92,-18.79 -10.06,-38.15 -15.11,-57.22 -0.83,-3.14 -2.39,-6.09 -4.62,-11.6 -5,5.77 -9.88,9.43 -12.1,14.3 -11.87,26.05 -23.8,52.13 -34.28,78.75 -7.78,19.76 -13.4,40.37 -19.95,60.61 -2,6.11 -10.85,12.15 -17.3,10.63 -7.15,-1.68 -11.85,-5.9 -11.57,-14.35 0.74,-23.16 1.7,-46.33 1.55,-69.48 -0.28,-45.4 -1.34,-90.79 -1.8,-136.19 0,-4.6 1.87,-9.21 2.87,-13.82 4.75,1.38 9.62,2.41 14.21,4.2 7.93,3.1 9.93,9.43 10,17.62 0.38,31.48 1.31,63 2.06,94.43 0,1.49 0.28,3 0.42,4.46 z m 264.86,135.15 c -2.72,1.91 -4.85,3 -6.53,4.62 -21.7,20.6 -43.87,40.74 -64.88,62 -32.17,32.6 -52.4,71.31 -56.46,117.61 -2.37,27 18.7,42.86 43.7,32.42 a 99.32,99.32 0 0 0 41.26,-31.83 c 14.77,-19.29 23.94,-41.56 29.25,-64.43 6.87,-29.54 9.62,-60.08 13.46,-90.27 1.22,-9.49 0.2,-19.31 0.2,-30.12 z m 21.11,-212.52 -3.3,-2.69 c -7.39,2.63 -15.18,4.46 -22.1,8 -41.17,21.13 -68.52,54.82 -85.24,97.23 -4.53,11.48 -6.67,24.22 -7.86,36.59 -0.84,8.69 4.4,12.59 12.37,9.12 12.22,-5.31 25.08,-11.12 34.79,-19.9 30.58,-27.65 50.1,-63.09 65.11,-101 3.41,-8.58 4.22,-18.2 6.23,-27.35 z"
         transform="translate(3164.81,-958.94)"
         id="path69" />
      <path
         inkscape:connector-curvature="0"
         class="cls-1"
         d="m -1633.67,1549.55 c 10.34,-18 20.62,-33.39 28.36,-50 8.9,-19.08 35.3,-16.94 42.76,0.35 6.07,14.08 10.52,28.87 15.33,43.46 4.25,12.86 7.07,26.27 12.18,38.76 11.58,28.31 28.88,50.53 63.46,51.37 -15,22.65 -44.3,26.23 -64.11,8.53 -14.22,-12.71 -22.65,-29.3 -29.2,-46.69 -7.17,-19 -13.07,-38.54 -19.56,-57.83 a 24,24 0 0 0 -4.7,-8.58 c -21.05,26.37 -27.53,58.51 -36,89.62 -8.56,31.57 -8.47,64 -5.58,97.54 -10.33,-2.83 -20.12,-4.87 -29.28,-8.5 -2.18,-0.86 -3.16,-7 -3.14,-10.77 0.12,-25.32 0.66,-50.63 1,-75.95 a 25.94,25.94 0 0 0 -0.74,-4.14 c -10.68,10.47 -20.48,20.56 -30.79,30.1 -25.32,23.43 -52.49,44.44 -85.91,54.77 -10.51,3.25 -22.51,3 -33.69,2.33 -13.5,-0.87 -19.45,-11.76 -24.16,-22.89 -1.79,-4.23 -3,-8.69 -5,-14.31 -2.89,2.54 -5.09,4.49 -7.31,6.43 -13.33,11.64 -28.22,20.06 -46.26,21.25 -16.73,1.1 -23.29,-3.75 -26.7,-20.11 -2.64,-12.63 -4.44,-25.44 -7,-40.57 -3.65,6.88 -6.32,12.17 -9.21,17.33 -8.6,15.34 -16.53,31.14 -26.31,45.69 a 41.76,41.76 0 0 1 -19,14.73 c -16.37,6.12 -32.32,-3.11 -35.14,-20.86 a 452.63,452.63 0 0 1 -5.29,-59.86 c -1.24,-51.88 -1.46,-103.79 -2.09,-155.69 0,-2.15 0,-4.3 0,-6.32 14.18,-5.22 32.75,6.68 32.44,21.35 -0.8,37.66 -2.7,75.29 -3.39,113 a 501.24,501.24 0 0 0 2.1,52.62 c 0.46,5.25 4.88,10.15 7.48,15.21 4.25,-3.58 9.63,-6.42 12.56,-10.87 24.79,-37.76 40.43,-78.92 44.44,-124.16 a 46.94,46.94 0 0 0 -0.34,-8.31 c -1.14,-12.53 1.38,-15.33 14.11,-15.58 0.93,0 1.85,0 2.78,0 16.31,0.56 16.22,0.55 15.28,16.45 -2,33 -4.3,65.91 -5.4,98.89 -0.34,10.27 1.71,21 4.61,30.91 3.62,12.43 12.21,15.78 22.76,8.86 a 235.64,235.64 0 0 0 31.82,-25.24 c 3.15,-3 3.16,-9.6 4,-14.65 6.55,-39.74 21.13,-76.07 46.55,-107.51 18.15,-22.45 50.7,-32.61 77.45,-23.47 -3.69,4.37 -6.22,8.57 -9.82,11.42 -12.56,9.94 -26.29,18.53 -38.11,29.25 -26,23.53 -38.57,54.85 -46.06,88 -2.24,9.94 0.56,21.48 2.91,31.87 2.35,10.39 9.32,13.49 19.74,11.66 21.91,-3.84 41,-13.91 57.59,-28.17 20.8,-17.92 40.77,-36.82 60.52,-55.9 3.45,-3.33 5.72,-9.65 5.67,-14.56 -0.64,-71.35 -1.7,-142.7 -2.81,-214.05 -0.23,-15 7.69,-23.27 22.73,-23 8.79,0.13 8.5,6.94 8.6,12.58 0.28,16 -0.21,32.09 0,48.12 q 1,74.6 2.28,149.19 c 0.07,1.47 0.26,2.99 0.59,6.9 z"
         transform="translate(3164.81,-958.94)"
         id="path71" />
      <path
         inkscape:connector-curvature="0"
         class="cls-1"
         d="m -1282.61,1465.92 c 10.72,3 19.47,4.7 27.5,8.1 2.45,1 4.15,6.74 4.1,10.28 -0.22,16.35 -1.37,32.69 -1.84,49 -1.13,38.86 -2.6,77.73 -2.67,116.59 0,7.82 5.55,15.64 8.54,23.46 6.11,-5.14 13.81,-9.22 18.08,-15.59 25.34,-37.87 38.54,-79.72 38.45,-125.51 0,-19.68 7.19,-25 26.13,-19.31 5.46,1.65 8.37,4.27 7.57,11.38 -4,35.55 -9.48,71.19 -2.91,107 1.87,10.21 5.21,20.26 8.86,30 2.8,7.46 9.25,9.39 15.87,5 9.48,-6.28 18.41,-13.4 27.48,-20.29 2.45,-1.86 4.21,-5 6.89,-6.12 13.31,-5.64 13.69,-16 12.4,-28.37 -3.88,-37.14 -6.93,-74.37 -10.27,-111.57 -0.58,-6.46 -1.4,-12.95 -1.21,-19.4 0.07,-2.37 2.26,-6.08 4.27,-6.73 7.37,-2.38 23.22,8.45 24.19,16.27 2.72,22 5.17,44.12 7.75,66.18 0.18,1.51 0.52,3 1.14,6.54 2.62,-4.14 4.42,-6.79 6,-9.55 19.68,-33.78 51.21,-46.52 88.13,-49.59 a 67.16,67.16 0 0 1 13.88,0 c 3.18,0.4 8.85,2.53 8.77,3.5 -0.38,4.54 -1.47,9.59 -4.08,13.18 -1.84,2.54 -6.39,3.79 -9.93,4.35 -44.63,7 -69.63,36.14 -86.47,75.3 -7.78,18.11 -9.57,36.88 -9.78,56.07 -0.15,13.9 -0.27,27.81 0.2,41.69 0.2,6 -1.93,9.76 -7.45,11 a 54.26,54.26 0 0 1 -14.61,1.36 c -6.8,-0.38 -9.16,-4.8 -9.07,-11.46 0.25,-17.58 0.08,-35.16 -1.8,-53.74 -1.9,2.41 -3.95,4.73 -5.68,7.26 -10.08,14.73 -22.21,27.2 -38,35.95 -19,10.54 -37.71,7.1 -43.27,-17.28 -2.92,-12.81 -5.81,-25.63 -9.26,-40.85 -3.87,7.66 -6.58,13.64 -9.83,19.32 -8.42,14.72 -16.67,29.56 -25.84,43.8 -3.57,5.54 -8.93,10.33 -14.38,14.19 -16.71,11.82 -37.8,5.85 -42.82,-13.91 -5.11,-20.13 -6.62,-41.19 -9.23,-61.91 -0.83,-6.62 -0.13,-13.43 -0.13,-22.82 l -47.74,33.46 c 4.56,8.16 9.53,15.59 13,23.67 4.84,11.15 3.81,22.19 -3.06,32.65 -15.06,22.93 -35.4,39.42 -60.62,49.83 -11,4.54 -22.49,4.24 -33.55,0.2 -19.32,-7.06 -27.1,-27.55 -14.94,-45.43 10.09,-14.82 23.86,-27.16 36.23,-40.37 3.72,-4 8.24,-7.19 14,-12.12 -8.9,-5.59 -16.69,-10.22 -24.22,-15.25 -23.32,-15.58 -47.23,-30.4 -69.63,-47.23 -29.33,-22 -25.58,-57.2 -5.52,-80 24.4,-27.76 55.25,-35.59 90.67,-27.91 23.27,5 43.06,15.3 54.24,37.72 1.36,2.73 1.66,6 2.45,9 -3.66,-0.29 -7.69,0.31 -10.92,-1 -12.73,-5.29 -24.73,-13.12 -37.89,-16.43 -22.34,-5.61 -44.93,-3.71 -65.86,7 -20.22,10.36 -25,24.56 -12.27,43.16 a 102,102 0 0 0 29.79,28.35 c 20.68,12.74 43.55,21.93 64.41,34.41 12,7.18 21.13,6.64 32.65,-0.31 15.26,-9.21 31.85,-16.17 47.42,-24.9 2.72,-1.53 4.46,-7 4.53,-10.72 0.61,-35.51 0.77,-71 1.05,-106.55 0.13,-3.69 0.11,-7.33 0.11,-14 z m -83,200.26 c -15.15,12.39 -30.07,24.44 -39.6,41.5 -2.2,3.93 -2.24,9.07 -3.27,13.65 5.21,0.29 11.68,2.7 15.39,0.49 11.46,-6.83 23.12,-14.2 32.39,-23.64 13.85,-14.06 12.32,-20.03 -4.88,-32 z"
         transform="translate(3164.81,-958.94)"
         id="path73" />
      <path
         inkscape:connector-curvature="0"
         class="cls-1"
         d="m -2180.52,1602.18 c -13,13.94 -24.78,26 -36,38.59 -21,23.47 -44.13,44.22 -73.81,56.16 a 166.27,166.27 0 0 1 -27.32,8.47 c -22.85,4.86 -38.45,-4.65 -45.53,-26.94 -8.61,-27.1 -8.78,-54.56 -4.1,-82.4 5.06,-30 15.47,-57.81 33.92,-82.2 20.34,-26.87 45.82,-43.88 81.28,-40.43 2.66,0.26 7,1.84 7.3,3.37 0.41,2.46 -1.4,5.87 -3.29,8 -2.19,2.44 -5.5,3.86 -8.28,5.8 -13.64,9.5 -27.66,18.51 -40.81,28.65 -26.77,20.65 -34.09,51.1 -39.79,82.12 -3.31,18 -6,36 -0.4,54.08 4.32,14 12.07,19.16 25.84,14.37 13.77,-4.79 28.25,-10 40.13,-18.35 33.52,-23.46 63.06,-51.62 89.28,-83.1 1.8,-2.16 2.64,-5.44 3.07,-8.33 0.91,-6.09 0.58,-12.42 2,-18.37 3.52,-15 1.92,-28.08 -12.32,-36.5 5.29,-5 9.7,-9.74 14.7,-13.7 a 12.47,12.47 0 0 1 8.26,-2.38 c 31.87,3.44 62.2,11.87 90.95,26.52 25.38,12.94 32.51,33.83 29.33,60.13 -4.86,40.26 -17.8,77.63 -42,110.38 -22.13,29.95 -57.51,27.22 -76.53,-5.2 a 104.38,104.38 0 0 1 -14.32,-49.24 c -0.44,-9.14 -0.98,-18.26 -1.56,-29.5 z m 42.66,-75.86 c -1.37,1.43 -2,1.8 -2.17,2.31 -11.54,40.94 -15.87,82.34 -5.74,124.17 4.48,18.49 22.91,22.74 36.17,9 21.38,-22.09 33.44,-48.55 36.18,-79.12 2,-22 -4.84,-35 -24.82,-43.61 -12.86,-5.52 -26.76,-8.69 -39.62,-12.75 z"
         transform="translate(3164.81,-958.94)"
         id="path75" />
      <path
         inkscape:connector-curvature="0"
         class="cls-1"
         d="m -907.11,1480.06 c -13.08,1.1 -25.28,2.32 -37.51,3.1 -10.47,0.66 -21,1 -31.46,1.14 -7.56,0.12 -9.76,-4.19 -7.91,-11 3.29,-12.15 10.08,-18.17 22.37,-19.54 14.42,-1.6 28.84,-3.36 43.31,-4.25 7.5,-0.46 10,-3.14 9.93,-10.7 -0.2,-29.47 2.66,-58.63 12.57,-86.64 10.26,-29 32.93,-47.35 59.81,-45.07 31.33,2.66 54.68,19.7 69.5,47.42 1.89,3.53 1.26,11.07 -1.32,13.75 -4.75,4.92 -17.67,3.69 -21.14,-0.52 -4.31,-5.23 -8.2,-10.8 -12.36,-16.15 -15.07,-19.39 -46.86,-12.21 -56.92,4.23 -10.48,17.13 -14.41,35.93 -15.65,55.54 -0.49,7.7 0.1,15.53 -1,23.12 -1.06,7.23 1,9.53 8.16,9 13.85,-1.08 27.77,-1.43 41.62,-2.49 17.74,-1.35 23.82,2 31.29,18.08 3.82,8.22 2.24,11.38 -6.74,12.16 -21.84,1.88 -43.69,3.8 -65.57,5 -6.37,0.36 -8.77,2.09 -8.45,8.58 1.85,38.2 3.12,76.44 5.25,114.63 1.88,33.6 4.74,67.15 7,100.73 0.66,10 -1.82,12.7 -11.64,11.6 -19.81,-2.21 -18.14,2.91 -19.65,-19.11 -3.5,-51.14 -6.14,-102.34 -9.26,-153.51 -1.2,-19.08 -2.73,-38.16 -4.23,-59.1 z"
         transform="translate(3164.81,-958.94)"
         id="path77" />
      <path
         inkscape:connector-curvature="0"
         class="cls-1"
         d="m -738,1708.65 c -7.29,0 -13.19,0.79 -18.8,-0.16 -12.9,-2.18 -17.19,-7.21 -18,-20.23 q -4.84,-75.79 -9.49,-151.59 c -0.62,-9.85 -0.59,-19.84 -2.32,-29.51 -2.19,-12.2 5.38,-18.32 13.44,-23.83 8.72,-6 15.41,-2.23 16.05,8.24 3.06,49.91 5.56,99.86 9.28,149.72 1.32,17.76 5.56,35.3 8.36,53 0.64,4.19 0.87,8.47 1.48,14.36 z"
         transform="translate(3164.81,-958.94)"
         id="path79" />
      <path
         inkscape:connector-curvature="0"
         class="cls-1"
         d="m -751.23,1405.26 c -0.08,9.63 -13.5,27.37 -22.75,30.09 -12.3,3.61 -20.31,-3.44 -18.2,-16 1.83,-10.93 17.58,-27.45 28.19,-29.56 8.45,-1.73 12.86,3.62 12.76,15.47 z"
         transform="translate(3164.81,-958.94)"
         id="path81" />
      <path
         inkscape:connector-curvature="0"
         class="cls-1"
         d="m -312.84,1921 v 27 l -1.7,0.19 -1,-18 -1.54,-0.54 -9.17,22.54 -9.16,-22.35 -1.91,0.18 -0.89,18 -1.74,-0.11 v -28.27 c 10.22,4.87 7,16.82 14.51,23.12 1.68,-4.37 3.12,-8.26 4.68,-12.1 1.48,-3.64 3.08,-7.24 4.63,-10.85 z"
         transform="translate(3164.81,-958.94)"
         id="path83" />
      <path
         inkscape:connector-curvature="0"
         class="cls-1"
         d="m -360.1,1948.56 c -6.14,-8.52 6.61,-23 -11.75,-28 h 20.63 c -14.78,5.82 -2.52,19.56 -8.88,28 z"
         transform="translate(3164.81,-958.94)"
         id="path85" />
    </g>
  </g>
</svg>
