<?xml version="1.0" encoding="UTF-8" standalone="no"?>
<!-- Created with Inkscape (http://www.inkscape.org/) -->

<svg
   xmlns:dc="http://purl.org/dc/elements/1.1/"
   xmlns:cc="http://creativecommons.org/ns#"
   xmlns:rdf="http://www.w3.org/1999/02/22-rdf-syntax-ns#"
   xmlns:svg="http://www.w3.org/2000/svg"
   xmlns="http://www.w3.org/2000/svg"
   xmlns:sodipodi="http://sodipodi.sourceforge.net/DTD/sodipodi-0.dtd"
   xmlns:inkscape="http://www.inkscape.org/namespaces/inkscape"
   width="94mm"
   height="120mm"
   viewBox="0 0 94 120"
   version="1.1"
   id="svg5245"
   inkscape:version="0.92.3 (2405546, 2018-03-11)"
   sodipodi:docname="issste.svg">
  <defs
     id="defs5239" />
  <sodipodi:namedview
     id="base"
     pagecolor="#ffffff"
     bordercolor="#666666"
     borderopacity="1.0"
     inkscape:pageopacity="0.0"
     inkscape:pageshadow="2"
     inkscape:zoom="0.7"
     inkscape:cx="402.88361"
     inkscape:cy="321.86492"
     inkscape:document-units="mm"
     inkscape:current-layer="layer1"
     showgrid="false"
     inkscape:window-width="1366"
     inkscape:window-height="705"
     inkscape:window-x="-8"
     inkscape:window-y="-8"
     inkscape:window-maximized="1" />
  <metadata
     id="metadata5242">
    <rdf:RDF>
      <cc:Work
         rdf:about="">
        <dc:format>image/svg+xml</dc:format>
        <dc:type
           rdf:resource="http://purl.org/dc/dcmitype/StillImage" />
        <dc:title></dc:title>
      </cc:Work>
    </rdf:RDF>
  </metadata>
  <g
     inkscape:label="Capa 1"
     inkscape:groupmode="layer"
     id="layer1"
     transform="translate(0,-177)">
    <g
       transform="matrix(0.07721996,0,0,0.07721996,-283.2659,178.29607)"
       id="j4UjpT">
      <path
         inkscape:connector-curvature="0"
         class="cls-1"
         d="m 1714.49,1558.79 q 0,296.42 0,592.85 c 0,6.3 0,6.29 -6.36,6.29 H 521.41 c -6,0 -5.19,0.51 -5.18,-5.4 q 0.32,-594.17 0.66,-1188.35 c 0,-5.22 0,-5.22 5,-5.22 h 515.28 387.44 285.54 c 4.32,0 4.32,0 4.32,4.95 q 0.02,297.43 0.02,594.88 z m -57.69,-546.7 H 574.41 v 1081.33 h 6.48 q 533.56,0 1067.13,0 c 9,0 8.82,0.51 8.82,-8.94 q 0,-534.42 0,-1068.84 c -0.05,-1.09 -0.04,-2.2 -0.04,-3.54 z"
         transform="translate(3164.81,-958.94)"
         id="path6" />
      <path
         inkscape:connector-curvature="0"
         class="cls-1"
         d="m 927.11,2196 c 18.54,0.38 36.11,4.69 53.22,11.21 8,3.06 15.9,4.78 24.71,2.73 6.27,-1.47 9.65,1.51 10.32,8.44 1.16,12.14 2.43,24.27 3.32,36.42 a 45,45 0 0 1 -0.78,12.47 c -0.93,4.36 -6,5.55 -9,2.2 a 90.36,90.36 0 0 1 -8.52,-11.3 c -10.28,-16 -23.92,-27.77 -41.8,-34.61 -9.08,-3.47 -18.33,-5.66 -28.06,-5.41 -11.08,0.28 -20.43,4.73 -28.75,11.92 -7.93,6.84 -11.42,15.89 -11.86,25.75 -0.39,8.86 2.13,17.06 9.33,23.63 10.4,9.49 23,14.55 35.68,19.71 16.8,6.84 33.74,13.38 50.34,20.66 11.08,4.86 20.81,12.06 30.06,19.93 a 69.45,69.45 0 0 1 18.35,23.53 c 4.34,9.28 6.36,19.13 7.07,29.41 1.17,17 -4,32.45 -11.37,47.21 -5.38,10.8 -13,20.08 -23.73,26.34 -7.29,4.25 -14.37,8.86 -21.68,13.08 a 50.44,50.44 0 0 1 -9,3.84 c -10,3.39 -20.14,5.64 -30.74,5.6 -8.88,0 -17.85,0.75 -26.62,-0.24 -9.63,-1.08 -19.11,-3.61 -28.59,-5.81 -16.54,-3.84 -31.2,-12 -45.48,-20.75 -7.55,-4.64 -12.31,-11.3 -12.4,-20.85 -0.1,-11 -1,-21.93 -1.14,-32.9 a 20.05,20.05 0 0 1 2.38,-8.61 5.46,5.46 0 0 1 8.39,-1.78 43.69,43.69 0 0 1 7.11,8.8 c 4,6.14 7.48,12.63 11.59,18.7 a 88.85,88.85 0 0 0 27.76,26.49 c 7.33,4.41 15.85,6.93 24,9.84 9.78,3.5 20.11,3.57 30.23,2.72 9.7,-0.81 18.51,-5 26.23,-10.91 12.53,-9.65 17.54,-23 17.13,-38.34 -0.24,-8.81 -3.71,-16.68 -9.64,-23.67 a 74.63,74.63 0 0 0 -20,-16.48 c -5.72,-3.29 -12,-5.7 -18.08,-8.26 -9.87,-4.14 -19.86,-8 -29.72,-12.14 -8.93,-3.75 -18,-7.33 -26.56,-11.75 -6.07,-3.12 -11.56,-7.41 -17.15,-11.4 a 74.15,74.15 0 0 1 -24.19,-28.68 c -3.9,-8.15 -6.77,-16.63 -7,-25.93 -0.24,-8.38 -0.2,-16.67 2.22,-24.71 a 72.29,72.29 0 0 1 15.4,-27.51 c 13.38,-15 30.67,-22.58 50,-25.78 8.97,-1.49 18.03,-1.94 27.02,-2.81 z"
         transform="translate(3164.81,-958.94)"
         id="path8" />
      <path
         inkscape:connector-curvature="0"
         class="cls-1"
         d="m 712.31,2487.19 c -12.88,-0.09 -25.65,-0.92 -38.1,-4.08 -16.61,-4.22 -32.35,-10.57 -46.7,-20.15 -4.94,-3.3 -10.18,-6.3 -12.19,-12.24 a 42.42,42.42 0 0 1 -2.61,-12.44 c -0.19,-9.64 0.29,-19.3 0.58,-28.94 0.07,-2.25 0,-4.65 0.82,-6.68 0.82,-2.03 2.21,-4.36 3.88,-4.87 a 7.51,7.51 0 0 1 6.25,1.56 31.47,31.47 0 0 1 6.34,8.68 c 6.25,12.59 14.22,24 24.59,33.38 a 89.13,89.13 0 0 0 32.67,19.21 c 9.11,2.91 18.15,5.59 27.76,5.21 14.29,-0.56 27.35,-4.89 37.83,-14.84 7.47,-7.09 11.52,-16.22 13,-26.56 1.88,-13.28 -1.42,-24.8 -10.47,-34.71 -10.57,-11.57 -24.29,-18 -38.41,-23.9 -15.08,-6.29 -30.1,-12.74 -45.14,-19.11 a 112.65,112.65 0 0 1 -26.3,-15.22 c -14.91,-11.82 -26.62,-26.13 -30.6,-45.09 -4.5,-21.4 0,-41.26 13.62,-58.64 10.93,-13.9 25.26,-22.54 42.28,-27.07 11.24,-3 22.63,-3.95 34.2,-4.16 a 116.46,116.46 0 0 1 33.71,4 q 14.1,3.94 28.1,8.21 c 5.86,1.78 11.63,2.34 17.62,0.55 6.58,-2 12.33,2.26 13,9.53 0.65,7.43 1,14.9 1.43,22.35 0.43,7.45 1,15.12 1.35,22.69 0.16,3.2 -1.06,5.86 -4.14,7.12 a 6.24,6.24 0 0 1 -7.87,-2.2 c -2.81,-3.79 -5.54,-7.66 -8,-11.67 -10.69,-17.26 -26,-28.85 -45,-35.23 a 77.64,77.64 0 0 0 -24.1,-4.18 c -17.44,0 -33.79,11.34 -38.82,28.8 -3.06,10.62 -0.84,20.35 6.06,28.91 6.9,8.56 16,14.38 26.35,18.32 19.06,7.25 38.17,14.42 57,22.26 a 106.3,106.3 0 0 1 33.24,21.23 c 7.22,6.93 14.13,14 18.31,23.22 4,8.72 7.26,17.71 7.57,27.52 0.14,4.38 1.27,8.77 1.12,13.12 a 66.42,66.42 0 0 1 -2.05,14.7 103.55,103.55 0 0 1 -11.93,27.44 c -8.74,14.31 -21,24.79 -35.89,32.08 a 106.58,106.58 0 0 1 -34.26,10 c -8.69,0.95 -17.41,1.26 -26.1,1.89 z"
         transform="translate(3164.81,-958.94)"
         id="path10" />
      <path
         inkscape:connector-curvature="0"
         class="cls-1"
         d="m 1146.29,2488.66 c -16.64,0.88 -33.3,-2.17 -49.53,-8 a 174.61,174.61 0 0 1 -38.63,-19.39 20.76,20.76 0 0 1 -9.45,-16.5 c -0.68,-11.08 -1.11,-22.18 -1.39,-33.28 a 26.52,26.52 0 0 1 1.41,-8.25 c 1.7,-5.55 7.25,-6.91 11,-2.47 a 65.88,65.88 0 0 1 7.3,11.34 c 6.87,12.75 15.07,24.54 26.1,34 a 104,104 0 0 0 42.46,20.22 c 17.75,3.24 34.53,1.58 49.35,-9.53 10.31,-7.73 16.9,-17.67 18.3,-31 1,-9.89 -0.44,-19 -5.51,-27.3 a 53.62,53.62 0 0 0 -20.08,-18.93 c -9.56,-5.25 -19.67,-9.55 -29.67,-13.94 -10.92,-4.8 -22.05,-9.12 -33,-13.85 -10.95,-4.73 -21.67,-10.11 -31.33,-17.34 -13,-9.69 -23.1,-21.59 -28.91,-36.77 -4.1,-10.72 -4.79,-21.88 -3.55,-33.33 1.46,-13.52 7,-25.28 15.26,-35.59 7.75,-9.64 17.82,-16.51 29.47,-21.1 a 112.77,112.77 0 0 1 32.78,-7.58 c 14.69,-1.15 29.33,-1.16 43.73,2.11 9.63,2.19 19.1,5.16 28.54,8.1 7.33,2.29 14.45,3.68 22.22,1.66 6.77,-1.76 9.65,0.34 10.26,7.44 1.2,13.83 2.74,27.62 4,41.45 a 21,21 0 0 1 -0.71,7.69 c -1.66,5.55 -5.89,6.85 -9.93,2.7 -3.34,-3.42 -5.83,-7.7 -8.5,-11.73 -7.56,-11.4 -16.92,-21.09 -28.83,-27.76 a 86.72,86.72 0 0 0 -33.17,-11 50.21,50.21 0 0 0 -29.18,5.15 c -13,6.62 -22,23 -20,38.67 0.79,6.16 4.47,11.23 8.62,15.86 7.73,8.63 17.89,13.3 28.35,17.41 19,7.45 38.22,14.26 56.94,22.28 17.8,7.62 33.2,18.67 44.14,35.27 a 72.13,72.13 0 0 1 12.32,35.3 c 1,14.11 -0.42,27.74 -5.62,40.85 a 84.82,84.82 0 0 1 -20.74,31.05 c -12.82,12 -28.23,19.14 -45.38,22.86 -12.83,2.7 -25.73,3.52 -39.44,3.23 z"
         transform="translate(3164.81,-958.94)"
         id="path12" />
      <path
         inkscape:connector-curvature="0"
         class="cls-1"
         d="m 1603.11,2477.78 h -86.79 c -0.8,0 -1.74,0.27 -2.37,-0.06 -2,-1 -4.6,-1.9 -5.54,-3.61 -0.63,-1.14 0.78,-3.92 2,-5.44 2,-2.59 4.69,-4.64 6.81,-7.15 5.77,-6.8 7.62,-15.11 7.66,-23.64 0.17,-45.1 0,-90.21 0.1,-135.31 0,-18.16 0.5,-36.32 0.63,-54.47 0.08,-10.59 -3,-20 -10.81,-27.6 a 25.74,25.74 0 0 1 -2.5,-3.21 c -2.86,-3.83 -1.43,-7.88 3.32,-8.95 a 32.42,32.42 0 0 1 7,-0.76 c 51.94,0 103.88,0.09 155.81,-0.14 10.31,0 15.13,3.7 16.64,13.64 1.55,10.24 2.08,20.63 3,31 a 8.58,8.58 0 0 1 -0.23,2.7 c -1.51,6.36 -5.63,7.6 -10.43,3.08 a 87.63,87.63 0 0 1 -7.08,-7.24 c -10.55,-12.54 -24.05,-19.93 -40,-22.81 -13.61,-2.45 -27.4,-1.34 -41.11,-1.44 a 25,25 0 0 0 -5.7,0.75 c -3.53,0.81 -6.31,2.52 -6.77,6.56 -0.69,6.05 -1.89,12.1 -2,18.17 -0.26,18.79 -0.09,37.59 -0.1,56.38 0,12.06 3.28,15.57 15.16,16.22 11.12,0.61 22.24,0.89 33.2,-1.46 6.65,-1.43 13.06,-3.74 18,-8.76 4,-4.09 7.83,-8.38 11.85,-12.47 4.36,-4.44 9,-3.43 10.64,2.58 a 51.76,51.76 0 0 1 2,12.63 q 0.38,17.93 0,35.87 a 46.28,46.28 0 0 1 -2.14,12.9 c -1.38,4.31 -4.55,5.11 -8.18,2.31 a 67.58,67.58 0 0 1 -7.9,-7.83 43.55,43.55 0 0 0 -27.77,-14.15 202.28,202.28 0 0 0 -32.21,-1.26 c -8.48,0.44 -11.47,3.34 -11.89,12.53 -0.39,8.39 -0.7,16.8 -0.66,25.2 0.08,17.17 0.28,34.33 0.73,51.49 a 64.32,64.32 0 0 0 2.09,13.35 c 1.49,6.15 8.39,10.73 16.31,10.92 8.24,0.2 16.52,0.54 24.73,0 14.7,-1 29.15,-3.61 42.22,-11 a 98.57,98.57 0 0 0 25.13,-20 c 1.88,-2.09 3.93,-4.3 6.37,-5.53 a 12.39,12.39 0 0 1 7.64,-1.24 c 2.58,0.57 3.54,3.63 3.15,6.15 -1,6.33 -2.11,12.67 -3.73,18.86 -1.9,7.28 -4.28,14.45 -6.68,21.59 a 30.42,30.42 0 0 1 -3.67,7.21 c -1.86,2.74 -4.78,3.49 -8,3.48 q -43.91,-0.07 -87.82,0 z"
         transform="translate(3164.81,-958.94)"
         id="path14" />
      <path
         inkscape:connector-curvature="0"
         class="cls-1"
         d="m 1402.19,2339.31 q 0,48.52 0,97 a 22,22 0 0 0 2.2,9.76 c 1.66,3.51 2.29,7.49 3.78,11.1 a 103.1,103.1 0 0 0 5.53,11.15 c 4,7.17 0.55,10.74 -5.85,10.79 -23,0.17 -46,0.46 -68.93,0.64 a 13.41,13.41 0 0 1 -4.29,-0.72 c -4.83,-1.62 -6.6,-5.74 -3.64,-9.82 5.17,-7.11 7.13,-15.56 10.55,-23.4 a 7.93,7.93 0 0 0 0.23,-3 q 0,-99.95 -0.05,-199.89 a 28.47,28.47 0 0 0 -1.76,-9.24 c -1.33,-3.76 -5.08,-4.39 -8.43,-4.6 -12,-0.76 -23.91,-0.21 -34.74,5.58 A 124.62,124.62 0 0 0 1279.6,2246 c -7.7,5.94 -12.79,14.16 -18.18,22.13 a 10,10 0 0 1 -6.2,3.72 c -2.81,0.43 -4.87,-2 -5.59,-4.6 a 47.31,47.31 0 0 1 -2.08,-11.24 c -0.27,-11.27 -0.32,-22.56 0,-33.82 0.14,-5 0.59,-10.42 5.87,-13.23 a 12.68,12.68 0 0 1 5.74,-1.39 q 100.8,-0.1 201.6,-0.06 16.91,0 33.83,0 c 4.12,0 6,1.87 6,6 0,18.11 0,36.22 0,54.33 a 5.3,5.3 0 0 1 -3.43,5.33 c -2,0.82 -4.5,0.61 -5.76,-1.58 -2.24,-3.87 -4.36,-7.84 -6.24,-11.91 -4.8,-10.38 -10.46,-20 -20.4,-26.43 -6.41,-4.17 -13.52,-5.57 -20.86,-6.21 a 167.82,167.82 0 0 0 -17.67,-0.7 126.23,126.23 0 0 0 -15.86,1.4 c -5.64,0.82 -8.24,4.89 -8.25,12.13 q 0,44.25 0,88.5 0.07,5.48 0.07,10.94 z"
         transform="translate(3164.81,-958.94)"
         id="path16" />
      <path
         inkscape:connector-curvature="0"
         class="cls-1"
         d="m 561.11,2204.81 c 11.27,0 22.54,0 33.82,0 2.57,0 5.64,-0.13 6.3,2.68 a 12.4,12.4 0 0 1 -1,7.62 c -2.42,5 -5.67,9.69 -8.2,14.69 a 16.4,16.4 0 0 0 -1.68,7.13 q -0.13,105 -0.06,210.07 c 0,6.69 4.17,11.49 7.58,16.65 a 25.74,25.74 0 0 1 2.72,5 4.59,4.59 0 0 1 -4.26,6.36 c -1.36,0.08 -2.73,0 -4.1,0 -22,0 -44,-0.17 -65.92,0.1 -6.62,0.08 -10.49,-5.12 -6.58,-11.69 2.13,-3.57 4.25,-7.15 6.18,-10.83 a 9.89,9.89 0 0 0 1.18,-4.41 q 0.09,-110.33 -0.12,-220.66 c 0,-3.31 -2.49,-6.64 -4,-9.89 -0.69,-1.53 -2,-2.8 -2.58,-4.35 -2,-5.09 0.33,-8.49 5.84,-8.5 11.66,0.01 23.27,0.03 34.88,0.03 z"
         transform="translate(3164.81,-958.94)"
         id="path18" />
      <path
         inkscape:connector-curvature="0"
         class="cls-1"
         d="m 1120.26,1170.59 a 206.89,206.89 0 0 1 -5.82,51.45 c -2.78,11.29 -6.7,22.26 -13.52,31.89 -7.47,10.55 -17.22,18.22 -29.64,22 a 29,29 0 0 1 -11.41,0.88 9,9 0 0 1 -6.13,-4 c -1.39,-2.61 -0.07,-5.63 1.87,-8.14 5,-6.41 10.22,-12.66 14.56,-19.48 a 80.6,80.6 0 0 0 11.91,-33.53 c 0.76,-6 2,-12.11 1.88,-18.14 -0.18,-8.27 -0.45,-16.68 -4.75,-24.3 a 17,17 0 0 0 -12.39,-9 c -7.76,-1.36 -15.28,-0.53 -21.16,5.14 -3.1,3 -5.49,6.85 -7.67,10.62 a 97.39,97.39 0 0 0 -6.42,13.33 c -3.55,9.1 -10.27,14.91 -18.64,19.29 -5.24,2.74 -9.32,6.68 -9.78,12.91 -0.38,5.16 2.27,9.56 4.65,14 4.69,8.68 8.52,17.55 8.37,27.82 -0.12,8.36 -3.45,15.15 -8.72,21.12 -6.77,7.66 -15.88,12.24 -24.33,17.67 -9.56,6.15 -20,10.94 -28.19,19.22 a 56.72,56.72 0 0 0 -15.29,26.29 c -2.94,11.67 -5.71,23.43 -7.48,35.32 -1.86,12.48 -2.64,25.14 -3.52,37.75 -0.75,10.62 -1.27,21.27 -1.36,31.91 -0.1,12.18 0,24.4 0.74,36.55 0.9,14.41 2.39,28.8 4,43.16 1.27,11.18 3.09,22.31 4.76,33.44 a 14.3,14.3 0 0 0 9,11.78 c 12.73,5.49 25.35,11.25 38.11,16.67 16.73,7.11 33.48,14.11 49.28,23.23 14.38,8.3 28.45,16.94 41.3,27.58 a 195.79,195.79 0 0 1 27.53,27.08 c 3.48,4.28 6.36,9 9.51,13.59 0.26,0.37 0.41,0.81 0.68,1.17 3.34,4.44 5,4.39 8,-0.19 5.7,-8.52 11.1,-17.28 17.26,-25.46 3.5,-4.65 8,-8.63 12.51,-12.42 7.41,-6.25 14.81,-12.63 22.86,-18 11.16,-7.44 22.86,-14.09 34.44,-20.9 18.77,-11 39.26,-18.13 59.53,-25.73 7.38,-2.77 14.52,-6.17 21.83,-9.13 7,-2.86 9.79,-8.56 10.72,-15.56 1.36,-10.27 2.85,-20.53 4,-30.83 0.93,-8.18 1.47,-16.41 2.17,-24.62 0.91,-10.81 2,-21.6 2.65,-32.42 0.36,-5.6 0,-11.25 0.15,-16.87 0.18,-5.19 0.68,-10.36 1,-15.55 0.32,-4.73 0.8,-9.45 0.9,-14.18 0.15,-7.63 0.37,-15.28 0,-22.89 -0.75,-14.6 -2.6,-29 -9.43,-42.28 -4.8,-9.31 -11.78,-16.77 -19.81,-23.34 -6.73,-5.51 -13.73,-10.71 -20.17,-16.55 -9,-8.2 -14.72,-18.63 -19,-30 -5.33,-14.13 -11.2,-28.06 -16.88,-42.06 -6.73,-16.57 -19.14,-27.95 -34,-37 -3,-1.82 -6.09,-3.42 -9.22,-4.94 -2.77,-1.34 -5,-0.12 -6.19,2.35 -4.29,9.14 -7.4,18.59 -7.83,28.86 -0.45,10.69 1,21 7,29.89 3.51,5.2 8.15,9.64 12.43,14.29 2,2.15 4.46,3.85 6.44,6 2.54,2.77 1.92,5.62 -1.44,7.53 -6.2,3.53 -12.57,2.11 -18.71,0.07 -13.62,-4.52 -23.25,-13.72 -29.89,-26.31 -6.64,-12.59 -11.66,-26 -13.45,-40.24 a 74.29,74.29 0 0 1 6,-39.65 c 3.91,-8.93 8.89,-17.1 16.27,-23.46 8,-6.85 17,-11.92 27.59,-13.5 a 87.5,87.5 0 0 1 14.83,-1.33 84.21,84.21 0 0 1 43.28,12.85 c 17.06,10.65 29.29,25.9 39.13,43 8.56,14.84 15.59,30.56 23.87,45.58 7,12.62 14.51,24.92 22.24,37.09 5.85,9.22 12.75,17.78 18.52,27 a 87.52,87.52 0 0 1 12.66,36.11 105.81,105.81 0 0 1 -0.6,30.81 q -2.46,14.31 -4.15,28.75 c -0.49,4.13 0.85,4.83 4.45,2.8 5,-2.82 10.43,-5.25 14.74,-8.94 a 40.81,40.81 0 0 0 9,-12 c 5.68,-10.86 11.74,-21.49 20.65,-30 5.44,-5.17 11.78,-9.49 18.11,-13.58 a 33.44,33.44 0 0 0 12.57,-14.24 129.12,129.12 0 0 1 18.9,-30 c 9.17,-10.66 20.13,-18.53 34.08,-22.27 13.58,-3.64 26,-1.78 37.53,5.82 3.27,2.15 5.78,5.44 9,7.72 a 15.29,15.29 0 0 0 7.23,3 c 5.61,0.42 11.27,0 16.91,0.11 13.63,0.19 23.15,7.12 29.74,18.55 a 49.9,49.9 0 0 1 6.11,20.6 c 1,11 1.51,22.11 2.13,33.18 0.53,9.5 0.92,19 1.4,28.51 0.66,13.12 1.37,26.24 2,39.35 0.48,9.5 0.89,19 1.39,28.51 0.66,12.66 1.41,25.32 2.07,38 0.71,13.69 1.42,27.37 2,41.06 q 0.81,18.69 1.35,37.39 c 0.32,11.68 -3.36,22.49 -7.93,33 q -8.85,20.33 -18.19,40.44 c -3.65,7.9 -7.8,15.57 -11.5,23.44 -3.7,7.87 -7,15.65 -10.52,23.47 q -4.72,10.52 -9.49,21 c -5.8,12.71 -11.58,25.43 -17.44,38.12 -7.85,17 -15.42,34.11 -23.75,50.86 -7.33,14.73 -18.57,25.61 -34.18,31.86 -8.49,3.4 -16.58,7.79 -24.9,11.65 -23.75,11 -47.53,21.92 -71.27,33 -8,3.72 -15.87,7.72 -23.85,11.5 -16,7.59 -32.09,15.07 -48.09,22.7 -10.39,5 -20.84,9.83 -31,15.25 -19.2,10.24 -38.5,20.34 -57.2,31.45 -17,10.12 -33.44,21.35 -49.94,32.37 -8.05,5.38 -15.47,11.71 -23.53,17.07 -13.94,9.27 -28.29,8.48 -42,-0.37 -7.62,-4.93 -14.28,-11.33 -21.67,-16.64 -12.08,-8.68 -24.15,-17.42 -36.69,-25.39 -11.32,-7.19 -23.2,-13.51 -34.95,-20 -10,-5.52 -20,-11.12 -30.25,-16 -15.06,-7.17 -30.41,-13.74 -45.63,-20.58 q -24.23,-10.89 -48.45,-21.83 -21.58,-9.76 -43.12,-19.61 c -10.56,-4.84 -21,-9.84 -31.6,-14.65 -14,-6.36 -28,-12.49 -41.94,-18.94 -9.07,-4.2 -17.45,-9.39 -24.57,-16.67 a 72.12,72.12 0 0 1 -13.79,-20.78 c -4.67,-10.17 -9.35,-20.33 -13.91,-30.55 -5.88,-13.19 -11.62,-26.44 -17.48,-39.64 -4.22,-9.49 -8.59,-18.91 -12.79,-28.41 q -12.16,-27.56 -24.18,-55.18 c -5.34,-12.3 -10.83,-24.54 -15.66,-37 a 140.32,140.32 0 0 1 -7.39,-24.5 116.85,116.85 0 0 1 -1.34,-35.15 c 0.55,-4.71 0.58,-9.49 0.8,-14.24 0.48,-10.3 0.81,-20.6 1.43,-30.89 0.77,-12.75 1.81,-25.49 2.67,-38.23 0.74,-11 1.38,-21.91 2.08,-32.86 q 1,-15.58 2,-31.16 c 0.9,-13.54 1.85,-27.08 2.75,-40.62 0.7,-10.61 0.88,-21.28 2.18,-31.81 1.3,-10.53 2,-21.25 6.49,-31.29 4.49,-10.04 12.39,-14.87 22.29,-17.32 8.09,-2 16.21,-0.43 24.24,0.88 5.45,0.89 10.36,0.54 15.12,-2.86 a 38.13,38.13 0 0 1 22.81,-7.55 59.07,59.07 0 0 1 24.11,5.8 96.38,96.38 0 0 1 24.2,16.6 107.52,107.52 0 0 1 24.33,32.62 42.36,42.36 0 0 0 18.25,19.32 c 6.06,3.31 11.36,8.09 16.78,12.48 11.08,9 18.33,21 25.88,32.82 2.51,3.94 6.68,7 10.5,9.86 2.53,1.92 5,0.35 5.36,-3 0.54,-4.82 1.25,-9.66 1.36,-14.5 a 264.82,264.82 0 0 1 4.89,-46.08 c 3.39,-17 8.88,-33.24 20.26,-46.68 A 90.73,90.73 0 0 1 927.36,1287 c 10.55,-7.69 21.66,-14.59 32.48,-21.91 2.61,-1.77 5,-3.89 7.5,-5.81 7.42,-5.68 8.55,-12.88 5.69,-21.42 q -6.56,-19.55 -12.57,-39.28 c -4.79,-15.81 -5.46,-31.72 1.6,-47 3.33,-7.22 7.63,-14.13 14.08,-19.23 5.92,-4.68 11.6,-9.78 18,-13.75 a 70.25,70.25 0 0 1 28.55,-9.83 161.39,161.39 0 0 1 27.1,-1.32 c 16.65,0.75 33,3.81 48,11.42 7.17,3.62 13.82,8.33 17.13,15.84 a 62.54,62.54 0 0 1 4.2,16.58 c 0.88,6.34 0.81,12.85 1.14,19.3 z M 926.52,1713.5 a 23.66,23.66 0 0 1 0,3.75 c -0.9,5.51 -3.28,10 -10.06,9.4 a 23.87,23.87 0 0 1 -7.57,-1.59 c -18.35,-8.11 -36.86,-15.9 -54.82,-24.79 a 355.45,355.45 0 0 1 -35.89,-21 174.83,174.83 0 0 1 -22.9,-17.94 142.94,142.94 0 0 1 -27.29,-34.45 112.11,112.11 0 0 1 -12.31,-31 c -2.64,-11.72 -3.88,-23.76 -5.73,-35.67 -1.85,-11.91 -3.66,-24.05 -5.59,-36.07 -1.93,-12.02 -4.05,-24 -5.94,-36 -2,-12.56 -3.71,-25.17 -5.67,-37.73 -1.67,-10.67 -3.4,-21.34 -5.32,-32 -2.17,-12.05 -4,-24.2 -7.13,-36 -1.36,-5.22 -4.83,-10.22 -8.37,-14.47 -4.43,-5.31 -9.06,-4 -10.13,2.71 -1.38,8.67 -2.15,17.47 -2.74,26.24 -0.9,13.32 -1.41,26.67 -2.09,40 -0.44,8.71 -1,17.41 -1.33,26.12 -0.52,12 -0.93,24 -1.4,36 -0.23,5.87 -0.4,11.75 -0.77,17.61 -0.83,13.2 -1.89,26.38 -2.6,39.58 a 151.64,151.64 0 0 0 0,19.28 c 0.49,6.66 0.6,13.78 3.06,19.8 9.07,22.25 19,44.15 28.71,66.13 4,9.09 8.36,18 12.47,27.08 q 9.23,20.34 18.33,40.74 c 3.83,8.53 7.56,17.11 11.47,25.6 5.23,11.37 11.91,21.78 23,28.15 11.55,6.62 23.4,12.73 35.3,18.71 15.44,7.76 31,15.21 46.6,22.71 15.08,7.26 30.17,14.51 45.34,21.59 15.76,7.36 31.65,14.44 47.42,21.76 19.14,8.89 38.29,17.76 57.31,26.92 21.59,10.39 42.75,21.58 61.93,36.11 6.57,5 12.86,10.31 19.2,15.58 4,3.32 7.82,6.87 11.77,10.24 a 7.39,7.39 0 0 0 9.28,0.14 c 2.27,-1.88 4.38,-3.94 6.61,-5.87 9.85,-8.48 19.36,-17.42 29.66,-25.31 a 324.74,324.74 0 0 1 59.58,-36 q 26,-12.24 52.11,-24.43 c 10.12,-4.76 20.17,-9.65 30.29,-14.4 q 19.74,-9.27 39.53,-18.43 28.76,-13.36 57.54,-26.71 c 6.74,-3.14 13.54,-6.16 20.14,-9.58 9.43,-4.88 19.1,-9.46 27.92,-15.3 10.2,-6.74 17.09,-16.72 22.15,-27.8 6.7,-14.67 13.12,-29.47 19.77,-44.17 8.27,-18.29 16.7,-36.51 25,-54.8 8.3,-18.29 16.6,-36.62 24.72,-55 a 68.14,68.14 0 0 0 5.65,-29 c -0.12,-6.8 -0.38,-13.61 -0.68,-20.41 -0.39,-8.93 -0.9,-17.86 -1.32,-26.8 -0.48,-10.17 -0.91,-20.35 -1.39,-30.53 -0.44,-9.39 -0.95,-18.77 -1.36,-28.16 -0.51,-11.55 -0.93,-23.11 -1.42,-34.67 -0.18,-4.18 -0.36,-8.36 -0.66,-12.54 -0.64,-9 -1.37,-18 -2,-27 -0.5,-6.76 -0.4,-13.62 -1.54,-20.27 -1.3,-7.58 -4.32,-9.43 -11.23,-4.46 a 31.76,31.76 0 0 0 -12.84,19.42 c -2.82,13.66 -5.26,27.4 -7.59,41.16 -3.1,18.3 -5.91,36.65 -8.9,55 -2.71,16.57 -5.36,33.14 -8.28,49.67 -3.25,18.38 -6.55,36.76 -10.26,55 -4.12,20.36 -9.19,40.39 -19.94,58.6 a 111.71,111.71 0 0 1 -32.21,34.78 298.1,298.1 0 0 1 -31.48,19.79 c -17.95,9.57 -36.35,18.29 -54.66,27.17 a 76.66,76.66 0 0 1 -13.94,5.2 c -6.57,1.72 -11.85,1.25 -14.78,-6.48 -4.57,-12.06 -0.83,-22.46 6.88,-31.67 7.54,-9 17.69,-14.58 28.1,-19.69 14.12,-6.93 28.29,-13.78 42.12,-21.24 a 105,105 0 0 0 18.92,-13 81.72,81.72 0 0 0 25.63,-40.77 139.29,139.29 0 0 0 3.39,-18.91 18.67,18.67 0 0 0 -0.93,-7.66 c -1.29,-4.17 -6.52,-5.44 -12,-2.86 -7.56,3.58 -15,7.33 -22.47,11.16 -9.32,4.79 -18.48,9.91 -27.86,14.57 -15.81,7.85 -31.72,15.52 -47.65,23.14 -14.25,6.81 -28.6,13.42 -42.88,20.17 -19.31,9.13 -38.76,18 -57.81,27.61 a 123.32,123.32 0 0 0 -32.17,23 c -6.85,6.91 -13.35,14.2 -19.58,21.67 -9.77,11.69 -16.92,25.06 -23.05,38.91 a 244.34,244.34 0 0 0 -15.08,47.18 c -2.06,9.45 -3.84,19 -5.72,28.46 -1.31,6.62 -2.4,13.29 -4,19.84 -0.39,1.64 -2.28,2.92 -3.47,4.36 -1,-1.47 -2.55,-2.8 -3,-4.42 -1.17,-4.33 -1.94,-8.78 -2.75,-13.21 -2.69,-14.59 -4.89,-29.28 -8.11,-43.75 a 191.54,191.54 0 0 0 -15.24,-44 340,340 0 0 0 -17.57,-30.5 c -3.49,-5.49 -8.24,-10.17 -12.39,-15.24 -9,-11 -20,-19.66 -32.07,-26.83 -8,-4.74 -16.47,-8.7 -24.83,-12.81 -13.66,-6.73 -27.41,-13.3 -41.12,-19.93 -21.08,-10.2 -42.25,-20.22 -63.21,-30.65 -15.7,-7.81 -31.14,-16.13 -46.68,-24.26 -7.41,-3.88 -14.74,-7.91 -22.18,-11.73 -5.52,-2.83 -11.05,-5.69 -16.78,-8.07 -5,-2.09 -8.09,-0.8 -10.11,4.12 a 19.47,19.47 0 0 0 -1.65,8.52 126.4,126.4 0 0 0 2.68,19.34 c 4.72,20 15.42,36.17 32.8,47.27 9.65,6.16 20,11.24 30.15,16.62 6.45,3.42 13,6.75 19.67,9.69 12.12,5.34 23.52,11.72 32.61,21.53 5.93,6.51 9.93,13.96 9.68,23.13 z M 795.21,1500.91 c -0.19,-2 -0.28,-4.07 -0.59,-6.08 -1.41,-9 -2.94,-18 -4.33,-27 -1.35,-8.78 -2.47,-17.6 -3.9,-26.38 -2,-12.42 -4.28,-24.8 -6.36,-37.21 -1.67,-10 -2.7,-20.15 -7,-29.42 -2.95,-6.36 -6.64,-12.42 -13.34,-15.7 -3.89,-1.9 -5.6,-0.91 -5.3,3.43 0.39,5.5 1.27,11 2,16.43 1,7.49 1.85,15 2.94,22.47 1.2,8.24 2.61,16.44 3.88,24.67 1.55,10 3,20.05 4.57,30.07 1.18,7.55 2.41,15.1 3.73,22.63 1.52,8.64 3,17.29 4.82,25.87 0.64,3 1.7,6.3 5.45,7.09 7.57,1.6 13.22,-3.07 13.43,-10.87 z M 1473.64,1363 c -1.74,0.14 -2.79,0 -3.57,0.33 -5.84,2.76 -10.55,7.05 -12.4,13.17 -2.63,8.68 -4.27,17.66 -6.34,26.51 -1.55,6.66 -3.35,13.27 -4.6,20 -1.25,6.73 -1.7,13.62 -2.92,20.37 -2.77,15.39 -5.86,30.71 -8.66,46.09 a 128.76,128.76 0 0 0 -2.1,16 c -0.26,4.85 2.65,7.21 8.6,8 3.64,0.47 5.49,-0.7 6.65,-5.5 2.08,-8.61 3.86,-17.3 5.53,-26 2.14,-11.15 4.08,-22.33 6.06,-33.51 1.43,-8.08 2.84,-16.16 4.18,-24.25 q 2.72,-16.47 5.31,-33 c 1.44,-9.21 2.79,-18.41 4.26,-28.21 z m -658.89,53.53 a 22,22 0 0 0 -0.94,4.37 52.79,52.79 0 0 0 0.63,6.37 c 1.22,9 2.33,18.08 3.74,27.08 1.82,11.66 3.83,23.29 5.87,34.92 1.54,8.75 2.9,17.56 5.08,26.15 0.75,3 3.32,5.9 5.83,7.87 3.63,2.84 6,1.48 6.5,-3.12 a 19.77,19.77 0 0 0 -0.18,-4.4 c -0.33,-2.79 -0.77,-5.57 -1.16,-8.36 -1.06,-7.45 -2,-14.91 -3.22,-22.34 -1.33,-8.45 -2.67,-16.9 -4.3,-25.29 -1.86,-9.58 -3.68,-19.21 -6.24,-28.61 a 23.47,23.47 0 0 0 -11.6,-14.63 z m 604.88,0.79 a 18,18 0 0 0 -9.54,10 c -6,14.1 -8.46,29.09 -11.28,44 -2,10.48 -3.72,21 -5.3,31.56 a 135.58,135.58 0 0 0 -1.5,16.51 c -0.13,4.73 3.11,6.23 7.1,3.92 3.99,-2.31 4.7,-6.28 5.43,-10.05 2.28,-11.69 4.22,-23.46 6.28,-35.19 2.94,-16.81 6,-33.61 8.73,-50.44 0.53,-3.16 0.09,-6.45 0.09,-10.29 z m -553.41,49.09 c -2.56,2.37 -3,3.27 -2.52,7 0.61,5 1.24,10.08 2.08,15.08 q 4,23.62 8.14,47.21 c 0.87,4.88 2.44,9.44 7.53,11.74 4.88,2.21 7.47,0.68 7.12,-4.65 -0.3,-4.6 -1,-9.18 -1.68,-13.74 -1.16,-7.66 -2.28,-15.33 -3.76,-22.92 -1.61,-8.27 -3.1,-16.62 -5.61,-24.63 -1.9,-6.1 -5.28,-11.75 -11.29,-15.07 z m 503.17,6.82 -1.92,-4 c -1.53,0.81 -3.75,1.24 -4.48,2.51 -2.9,5 -6.21,10.08 -7.75,15.57 -2.72,9.67 -4.42,19.65 -6.24,29.56 -1.42,7.74 -2.41,15.57 -3.52,23.37 -0.43,3 1.31,5.09 3.79,6.13 2.66,1.11 4.86,-0.55 6.44,-2.56 a 12.35,12.35 0 0 0 2.45,-4.75 c 1.94,-8.87 3.8,-17.76 5.42,-26.69 1.28,-7.06 2.17,-14.19 3.22,-21.29 0.85,-5.61 1.66,-11.29 2.61,-17.83 z"
         transform="translate(3164.81,-958.94)"
         id="path20" />
      <path
         inkscape:connector-curvature="0"
         class="cls-1"
         d="m 1119.07,1614.45 c 0.88,-7.8 1.47,-15.65 2.69,-23.4 2,-12.67 7.5,-16.13 19.47,-13.52 5.82,1.27 11.69,2.39 17.59,3.11 2.22,0.27 4.68,-0.53 6.89,-1.27 2.21,-0.74 2.78,-2.54 2,-4.63 -1,-2.74 -2.12,-5.48 -3.38,-8.12 -2.87,-6 -2.49,-12.32 -2.16,-18.64 0.39,-7.44 1.22,-14.87 1.34,-22.31 a 89.27,89.27 0 0 0 -1.11,-16.72 c -1.84,-10.53 -8.74,-16.94 -18.41,-20.75 -3.67,-1.45 -7.27,-3.06 -10.88,-4.65 -5.51,-2.43 -7.14,-8.19 -6.57,-12.59 0.83,-6.48 1.94,-12.93 2.6,-19.42 0.51,-5.06 0.53,-10.17 0.77,-15.26 0.33,-7.06 2.94,-12.63 11.21,-12.69 3.47,0 6.92,-0.88 10.39,-1.21 9.82,-0.94 17.68,-6 24.92,-12.09 9.37,-7.82 18.43,-16 27.54,-24.15 a 22.64,22.64 0 0 0 4.49,-5.44 c 1.49,-2.58 0.31,-4.24 -2.69,-3.81 a 14.41,14.41 0 0 0 -5.62,2.09 c -7.18,4.68 -14,10 -21.38,14.25 -12.68,7.22 -26,8.9 -39.32,1.52 a 33.16,33.16 0 0 1 -8,-6.73 c -4.23,-4.62 -3.85,-10 0.6,-14.5 2.39,-2.44 4.89,-4.78 7.15,-7.34 4.49,-5.1 4.43,-11.45 3.53,-17.46 a 222.34,222.34 0 0 0 -5.32,-24 c -1.54,-5.8 -6.16,-6.86 -10.34,-2.44 a 64.1,64.1 0 0 0 -8.3,10.64 c -3.16,5.2 -7,9.31 -12.61,11.87 -3.6,1.63 -7.85,3.13 -8.1,8.17 -0.09,1.82 -0.21,4 0.68,5.45 6.33,10 2.68,18.41 -2.86,27.32 -10.35,16.66 -21.26,33.16 -26.84,52.23 -2.2,7.51 -4,15.41 -4.15,23.17 -0.19,8 0.34,16.28 6.29,23 3.71,4.18 8,5.81 13.15,4.3 10.2,-3 20.5,-3.16 30.93,-1.9 4.47,0.54 9.06,0.55 13.39,1.61 5,1.23 7.78,7 6.08,11.94 -2.7,7.79 -7.48,13.91 -15.16,17.33 a 13.4,13.4 0 0 1 -6.18,1.43 c -4.19,-0.35 -6.52,-1.39 -7.41,-6.3 -0.77,-4.26 -3.83,-6.29 -7.88,-4.78 a 32.91,32.91 0 0 0 -9.53,4.92 c -8.27,6.83 -17.13,7.14 -26.29,2.8 a 46.21,46.21 0 0 1 -23.93,-25.4 c -6.27,-15.61 -6.09,-31.36 -1.64,-47.18 4.75,-16.91 12.18,-32.73 20.6,-48.11 2.8,-5.1 5.17,-10.45 7.48,-15.8 2,-4.54 1.13,-8.92 -1.82,-12.82 -6.38,-8.43 -11.48,-17.43 -14.1,-27.82 a 46.92,46.92 0 0 1 -0.06,-23.68 54.11,54.11 0 0 1 17.68,-27.93 45.84,45.84 0 0 1 22.75,-10.56 c 14,-2.31 27.93,-2.57 41.44,2.57 18,6.85 28.73,19.87 31.61,38.93 1.37,9.1 4.61,17.59 7.19,26.31 1.55,5.22 1.82,10.84 2.4,16.31 0.36,3.42 0.75,3.89 3.82,2.23 5.46,-3 10.82,-6.09 16.24,-9.13 6.2,-3.48 12.91,-5.94 19.91,-6.1 14.53,-0.31 28.51,7.51 29.16,25.21 0.37,10.24 -4.36,18.16 -11,24.94 -10,10.2 -20.71,19.73 -30.93,29.74 -6.24,6.11 -12.16,12.58 -19.8,17 a 107.73,107.73 0 0 1 -13.08,6.35 c -2.86,1.17 -5.22,2.83 -5.52,5.77 -0.3,2.94 1.21,5.25 3.73,7.08 8.55,6.19 16.72,12.76 22.39,22 a 52.65,52.65 0 0 1 7.59,25.29 c 0.37,7 0.33,14 0,21.05 -0.29,6.19 -1.3,12.33 -1.85,18.51 a 42.37,42.37 0 0 0 3.62,21.17 c 2.1,4.74 4.51,9.4 6,14.34 2.23,7.51 -2.64,16.55 -10.25,18.61 a 142.32,142.32 0 0 1 -19.9,3.4 82.07,82.07 0 0 1 -11.61,0.07 c -9.39,-0.2 -10.72,2.78 -11.66,11.59 -0.69,6.4 -0.6,12.89 -1.51,19.24 -2.29,15.93 -15.54,24 -31.16,19.24 -7.37,-2.23 -13.7,-6.2 -19.57,-11.12 -7.94,-6.64 -15.13,-14 -20.51,-22.81 -6.15,-10.06 -7.48,-21.12 -4.94,-32.64 2.35,-10.66 4.29,-21.43 7.09,-32 2.63,-9.9 6.29,-11.24 16.11,-12.67 9.38,-1.36 18.68,-3 26.95,-8.16 6.57,-4.09 11.72,-9.62 16.29,-15.73 1.89,-2.54 3.64,-5.19 5.35,-7.86 1.82,-2.85 4,-5 7.71,-4.35 2.76,0.47 5,3.66 5.66,7.36 1.84,10 -1.6,18.56 -7.73,26 -9.06,11 -20.69,18.72 -33.68,24.45 -3.8,1.67 -6.65,4.34 -7.77,8.44 -2.12,7.8 -4.12,15.63 -6.16,23.45 -2.77,10.63 1.68,18.43 9.76,24.79 a 4.68,4.68 0 0 0 1.68,1.1 c 1.65,0.33 3.59,1.07 4.93,0.49 1.17,-0.5 2.17,-2.49 2.37,-3.95 a 59.77,59.77 0 0 0 0.11,-8.19 z"
         transform="translate(3164.81,-958.94)"
         id="path22" />
    </g>
  </g>
</svg>
