<?xml version="1.0" encoding="UTF-8" standalone="no"?>
<!-- Created with Inkscape (http://www.inkscape.org/) -->

<svg
   xmlns:dc="http://purl.org/dc/elements/1.1/"
   xmlns:cc="http://creativecommons.org/ns#"
   xmlns:rdf="http://www.w3.org/1999/02/22-rdf-syntax-ns#"
   xmlns:svg="http://www.w3.org/2000/svg"
   xmlns="http://www.w3.org/2000/svg"
   xmlns:sodipodi="http://sodipodi.sourceforge.net/DTD/sodipodi-0.dtd"
   xmlns:inkscape="http://www.inkscape.org/namespaces/inkscape"
   width="462mm"
   height="120mm"
   viewBox="0 0 462 120"
   version="1.1"
   id="svg5836"
   inkscape:version="0.92.3 (2405546, 2018-03-11)"
   sodipodi:docname="uvm.svg">
  <defs
     id="defs5830" />
  <sodipodi:namedview
     id="base"
     pagecolor="#ffffff"
     bordercolor="#666666"
     borderopacity="1.0"
     inkscape:pageopacity="0.0"
     inkscape:pageshadow="2"
     inkscape:zoom="0.35"
     inkscape:cx="659.9386"
     inkscape:cy="582.6006"
     inkscape:document-units="mm"
     inkscape:current-layer="layer1"
     showgrid="false"
     inkscape:window-width="1366"
     inkscape:window-height="705"
     inkscape:window-x="-8"
     inkscape:window-y="-8"
     inkscape:window-maximized="1" />
  <metadata
     id="metadata5833">
    <rdf:RDF>
      <cc:Work
         rdf:about="">
        <dc:format>image/svg+xml</dc:format>
        <dc:type
           rdf:resource="http://purl.org/dc/dcmitype/StillImage" />
        <dc:title></dc:title>
      </cc:Work>
    </rdf:RDF>
  </metadata>
  <g
     inkscape:label="Capa 1"
     inkscape:groupmode="layer"
     id="layer1"
     transform="translate(0,-177)">
    <g
       transform="matrix(0.18631663,0,0,0.18631663,-1080.5769,94.453024)"
       id="dkoOs5.tif">
      <path
         inkscape:connector-curvature="0"
         class="cls-1"
         d="m 4934.64,1675.09 8,2.77 q 0,17.65 0,35.3 c 0,96.08 0.62,192.17 -0.38,288.25 -0.27,25.66 7.66,36.86 34.53,35.17 27.82,-1.75 55.84,-0.32 83.77,-0.39 43.62,-0.11 43.85,-0.15 43.88,-45.44 q 0.16,-241.33 0,-482.66 c 0,-23.46 2,-47.27 -1.52,-70.2 -1.43,-9.22 -15.61,-23.74 -23.61,-23.49 -56.78,1.77 -111.17,13.31 -152.07,57.51 -35.63,38.5 -70.12,78 -105.41,116.86 -40.19,44.21 -80.71,88.12 -122.7,133.92 -71.19,-79 -141.17,-152.54 -206.28,-230.22 -41.28,-49.25 -93,-70.63 -153.38,-78.53 -37.68,-4.92 -44.89,1.73 -45.23,40.8 -0.16,19 0,38 0,57 0,162 0.52,324 -0.45,486 -0.17,28.77 8.67,41 38.46,38.9 a 585.28,585.28 0 0 1 83.73,0 c 30.17,2.22 41.22,-7.84 40.64,-39.43 -1.79,-98.29 -0.72,-196.63 -0.57,-294.94 0,-9.25 1.33,-18.49 2.44,-32.88 10.79,11.46 17.77,18.44 24.28,25.84 64.13,72.95 128.78,145.46 191.9,219.28 18.2,21.28 29.68,23.58 49.06,0.68 61.31,-72.4 124.67,-143.07 187.29,-214.36 7.72,-8.74 15.75,-17.17 23.62,-25.74 z m -2285,-27.24 c 0,60.34 -0.15,120.69 0,181 0.26,83.86 41,148.36 119.72,175.23 140.81,48.07 283.7,45.21 424.11,-1.06 66.45,-21.9 116.34,-69.28 118.76,-143.42 4.63,-141.71 3.19,-283.63 2.41,-425.46 0,-6.89 -19.16,-20.78 -27.1,-19.28 -33.67,6.35 -66.94,15.91 -99.44,27 -25.94,8.84 -35.66,28.15 -35.14,57.19 1.78,99.42 0.72,198.9 0.66,298.35 0,65 -29.36,100.64 -94.87,106.07 a 1076.47,1076.47 0 0 1 -156.42,1.24 c -63.21,-4 -89.65,-34.88 -89.95,-97.4 -0.44,-93.87 -0.12,-187.74 -0.13,-281.6 0,-68.6 -16.78,-89.15 -85,-103.59 -13.11,-2.77 -26.48,-4.32 -39.57,-7.2 -26.68,-5.87 -39.26,1.53 -38.54,31.76 1.6,67.04 0.5,134.12 0.49,201.17 z m 1154.52,173.76 c -10.26,-14.74 -16.75,-23.66 -22.83,-32.86 q -93.26,-141 -186.39,-282.08 c -50,-75.82 -161.1,-114.86 -253.4,-86.1 6.48,11.89 11.75,23.63 18.79,34.19 115.87,173.57 233.9,345.75 346.71,521.28 29.7,46.22 60.38,67.44 115.19,61.44 27,-3 44.09,-9.42 59.55,-32.71 123.43,-185.9 248.32,-370.84 372.55,-556.21 5.73,-8.56 9.5,-18.44 14.18,-27.7 l -5.09,-11.92 c -48.9,5.83 -98.3,9.1 -146.57,18.24 -44.4,8.41 -77.08,35 -101.76,74.86 -49.33,79.66 -102.22,157.12 -153.85,235.35 -17.65,26.74 -35.93,53.05 -57.08,84.22 z"
         transform="translate(3164.81,-958.94)"
         id="path25" />
      <path
         inkscape:connector-curvature="0"
         class="cls-1"
         d="m 4934.64,1675.09 c -7.87,8.57 -15.9,17 -23.58,25.73 -62.62,71.29 -126,142 -187.29,214.36 -19.39,22.89 -30.86,20.6 -49.06,-0.68 -63.12,-73.82 -127.76,-146.33 -191.9,-219.28 -6.5,-7.4 -13.49,-14.38 -24.28,-25.84 -1.11,14.39 -2.43,23.63 -2.44,32.88 -0.15,98.32 -1.22,196.66 0.57,294.94 0.58,31.59 -10.47,41.65 -40.64,39.43 a 585.28,585.28 0 0 0 -83.73,0 c -29.79,2.1 -38.63,-10.13 -38.46,-38.9 1,-162 0.46,-324 0.45,-486 0,-19 -0.13,-38 0,-57 0.34,-39.07 7.55,-45.72 45.23,-40.8 60.4,7.89 112.1,29.28 153.38,78.53 65.11,77.67 135.09,151.26 206.28,230.22 42,-45.79 82.51,-89.71 122.7,-133.92 35.29,-38.81 69.78,-78.36 105.41,-116.86 40.9,-44.2 95.3,-55.74 152.07,-57.51 8,-0.25 22.18,14.27 23.61,23.49 3.55,22.93 1.51,46.75 1.52,70.2 q 0.05,241.33 0,482.66 c 0,45.29 -0.26,45.33 -43.88,45.44 -27.93,0.07 -55.95,-1.36 -83.77,0.39 -26.87,1.69 -34.8,-9.5 -34.53,-35.17 1,-96.07 0.39,-192.16 0.38,-288.25 q 0,-17.65 0,-35.3 z"
         transform="translate(3164.81,-958.94)"
         id="path27" />
      <path
         inkscape:connector-curvature="0"
         class="cls-1"
         d="m 2649.64,1647.85 c 0,-67 1.1,-134.12 -0.49,-201.13 -0.72,-30.23 11.87,-37.64 38.54,-31.76 13.08,2.88 26.46,4.43 39.57,7.2 68.24,14.44 85,35 85,103.59 0,93.87 -0.31,187.74 0.13,281.6 0.29,62.52 26.74,93.4 89.95,97.4 a 1076.47,1076.47 0 0 0 156.42,-1.24 c 65.51,-5.44 94.83,-41.1 94.87,-106.07 0.06,-99.46 1.12,-198.93 -0.66,-298.35 -0.52,-29 9.2,-48.35 35.14,-57.19 32.5,-11.08 65.77,-20.64 99.44,-27 7.95,-1.5 27.07,12.39 27.1,19.28 0.78,141.82 2.22,283.75 -2.41,425.46 -2.42,74.15 -52.31,121.53 -118.76,143.42 -140.41,46.27 -283.3,49.12 -424.11,1.06 -78.71,-26.87 -119.46,-91.37 -119.72,-175.23 -0.17,-60.35 -0.02,-120.7 -0.01,-181.04 z"
         transform="translate(3164.81,-958.94)"
         id="path29" />
      <path
         inkscape:connector-curvature="0"
         class="cls-1"
         d="m 3804.16,1821.61 c 21.16,-31.17 39.43,-57.48 57.07,-84.21 51.63,-78.23 104.52,-155.69 153.85,-235.35 24.68,-39.85 57.35,-66.45 101.76,-74.86 48.28,-9.15 97.67,-12.41 146.57,-18.24 l 5.09,11.92 c -4.68,9.26 -8.44,19.14 -14.18,27.7 -124.23,185.37 -249.12,370.31 -372.55,556.21 -15.46,23.28 -32.56,29.75 -59.55,32.71 -54.8,6 -85.49,-15.22 -115.19,-61.44 -112.81,-175.54 -230.83,-347.71 -346.71,-521.28 -7,-10.56 -12.32,-22.3 -18.79,-34.19 92.3,-28.76 203.4,10.27 253.4,86.1 q 93.06,141.13 186.39,282.08 c 6.09,9.18 12.58,18.11 22.84,32.85 z"
         transform="translate(3164.81,-958.94)"
         id="path31" />
    </g>
  </g>
</svg>
