<?xml version="1.0" encoding="UTF-8" standalone="no"?>
<!-- Created with Inkscape (http://www.inkscape.org/) -->

<svg
   xmlns:dc="http://purl.org/dc/elements/1.1/"
   xmlns:cc="http://creativecommons.org/ns#"
   xmlns:rdf="http://www.w3.org/1999/02/22-rdf-syntax-ns#"
   xmlns:svg="http://www.w3.org/2000/svg"
   xmlns="http://www.w3.org/2000/svg"
   xmlns:sodipodi="http://sodipodi.sourceforge.net/DTD/sodipodi-0.dtd"
   xmlns:inkscape="http://www.inkscape.org/namespaces/inkscape"
   version="1.1"
   id="svg2"
   xml:space="preserve"
   width="1000"
   height="270"
   viewBox="0 0 1000 270"
   sodipodi:docname="uvm.svg"
   inkscape:version="0.92.3 (2405546, 2018-03-11)"><metadata
     id="metadata8"><rdf:RDF><cc:Work
         rdf:about=""><dc:format>image/svg+xml</dc:format><dc:type
           rdf:resource="http://purl.org/dc/dcmitype/StillImage" /><dc:title></dc:title></cc:Work></rdf:RDF></metadata><defs
     id="defs6"><clipPath
       clipPathUnits="userSpaceOnUse"
       id="clipPath18"><path
         d="M 0,612 H 792 V 0 H 0 Z"
         id="path16"
         inkscape:connector-curvature="0" /></clipPath></defs><sodipodi:namedview
     pagecolor="#ffffff"
     bordercolor="#666666"
     borderopacity="1"
     objecttolerance="10"
     gridtolerance="10"
     guidetolerance="10"
     inkscape:pageopacity="0"
     inkscape:pageshadow="2"
     inkscape:window-width="1366"
     inkscape:window-height="705"
     id="namedview4"
     showgrid="false"
     inkscape:zoom="0.40901275"
     inkscape:cx="83.4021"
     inkscape:cy="38.220002"
     inkscape:window-x="-8"
     inkscape:window-y="-8"
     inkscape:window-maximized="1"
     inkscape:current-layer="g12" /><g
     id="g10"
     inkscape:groupmode="layer"
     inkscape:label="uvm"
     transform="matrix(1.3333333,0,0,-1.3333333,0,270)"><g
       id="g12"><g
         id="g14"
         clip-path="url(#clipPath18)"
         transform="translate(-19.245763,-207.45763)"><g
           id="g20"
           transform="translate(182.9058,382.8862)"><path
             d="m 0,0 c 0.088,-33.275 0,-72.858 0,-108.964 0,-24.567 -55.553,-22.285 -55.553,-22.285 0,0 -52.152,-2.282 -52.152,22.285 V 0 c -10.142,12.743 -23.795,17.375 -45.537,17.174 v -126.138 c 0,-44.474 42.132,-62.394 97.689,-62.131 55.557,0.262 98.82,16.788 98.82,62.131 V 17.174 C 21.36,17.375 10.146,12.743 0,0"
             style="fill:#231f20;fill-opacity:1;fill-rule:nonzero;stroke:none"
             id="path22"
             inkscape:connector-curvature="0" /></g><g
           id="g24"
           transform="translate(762.6641,400.0601)"><path
             d="m 0,0 c 0,0 -25.413,0.013 -44.979,-17.226 l -74.493,-80.023 -76.663,80.023 C -216.162,0 -239.815,0 -239.815,0 c 0,0 0.019,-187.621 0,-188.4 h 43.451 v 112.705 l 76.664,-83.805 74.493,83.805 V -188.4 H 0 Z"
             style="fill:#231f20;fill-opacity:1;fill-rule:nonzero;stroke:none"
             id="path26"
             inkscape:connector-curvature="0" /></g><g
           id="g28"
           transform="translate(445.8682,382.8862)"><path
             d="m 0,0 c 0,0 -50.452,-75.097 -73.303,-109.242 -25.212,34.526 -49.004,73.883 -73.158,109.242 -20.303,17.174 -39.994,17.174 -63.244,17.174 0.469,-0.869 77.741,-129.512 117.169,-188.4 h 37.28 c 39.737,59.964 80.028,128.938 120.497,188.4 C 44.94,17.174 21.482,17.174 0,0"
             style="fill:#231f20;fill-opacity:1;fill-rule:nonzero;stroke:none"
             id="path30"
             inkscape:connector-curvature="0" /></g></g></g></g></svg>