<?xml version="1.0" encoding="utf-8"?>
<!-- Generator: Adobe Illustrator 16.0.0, SVG Export Plug-In . SVG Version: 6.00 Build 0)  -->
<!DOCTYPE svg PUBLIC "-//W3C//DTD SVG 1.0//EN" "http://www.w3.org/TR/2001/REC-SVG-20010904/DTD/svg10.dtd" [
	<!ENTITY ns_flows "http://ns.adobe.com/Flows/1.0/">
	<!ENTITY ns_extend "http://ns.adobe.com/Extensibility/1.0/">
	<!ENTITY ns_ai "http://ns.adobe.com/AdobeIllustrator/10.0/">
	<!ENTITY ns_graphs "http://ns.adobe.com/Graphs/1.0/">
]>
<svg version="1.0" id="Layer_1" xmlns:x="&ns_extend;" xmlns:i="&ns_ai;" xmlns:graph="&ns_graphs;"
	 xmlns="http://www.w3.org/2000/svg" xmlns:xlink="http://www.w3.org/1999/xlink" xmlns:a="http://ns.adobe.com/AdobeSVGViewerExtensions/3.0/"
	 x="0px" y="0px" width="800px" height="800px" viewBox="0 0 800 800" enable-background="new 0 0 800 800" xml:space="preserve">
<g>
	<path fill-rule="evenodd" clip-rule="evenodd" fill="#6B163B" d="M307.549,391.906c-1.158,1.872-2.057,3.634-3.012,6.075l5.45-0.13
		l2.626-4.622L307.549,391.906z M315.274,393.999l-1.927,3.929l11.819-1.122L315.274,393.999z M235.758,394.312l-24.186,12.515
		l24.204-2.258L235.758,394.312z M379.299,359.94l2.735-5.084c-2.201-0.718-4.421-1.248-6.625-1.561l-3.174,5.376
		C374.677,358.911,377.044,359.279,379.299,359.94z M376.767,364.638l1.303-2.44c-2.236-0.643-4.642-1.066-7.173-1.268l-1.577,2.715
		C371.813,363.83,374.309,364.16,376.767,364.638z M375.96,366.38l-6.717,12.258l-12.753,6.734l11.783-19.944
		C368.859,365.168,375.282,366.032,375.96,366.38z M324.101,348.763l3.027,5.745v-5.745H324.101z M349.628,347.847v28.516
		l13.779-22.774v-6.973L349.628,347.847z M196.045,120.162l15.488-5.818v50.046l-15.488,5.173V120.162z M196.045,175.84
		l15.488-5.155v52.189l-15.488,4.02V175.84z M196.045,232.417l15.488-3.781v51.201l-15.488,3.21v-13.14l-9.212-12.367l9.212-22.886
		V232.417z M196.045,288.847l15.488-3.174l-0.036,50.814l-14.737,1.999l-1.835,6.846c-7.487-4.515-14.973-11.653-22.462-21.436
		l5.047-25.526c6.147,2.296,13.176,2.864,18.534,6.699V288.847z M218.16,341.239l17.819-2.349l-0.148,42.3l-17.91,9.982
		L218.16,341.239z M218.307,284.331l17.469-3.631l-0.018,52.445l-17.598,2.605L218.307,284.331z M218.307,226.764l17.469-4.146
		l-0.018,52.356l-17.433,3.212L218.307,226.764z M218.307,168.354l17.469-5.708l-0.018,54.154l-17.433,4.221L218.307,168.354z
		 M218.307,112.051l17.469-6.423l-0.018,50.942l-17.433,5.818L218.307,112.051z M218.307,53.033l17.469-7.321l-0.018,52.869
		l-17.433,6.057L218.307,53.033z M242.271,42.794l21.416-8.956l0.185,54.283l-21.345,7.689L242.271,42.794z M242.345,103.096
		l21.104-7.854l0.167,52.262l-21.344,6.921L242.345,103.096z M242.345,160.699l21.104-6.844l0.167,55.714l-21.344,5.871
		L242.345,160.699z M242.198,220.854l21.25-5.046l0.167,53.477l-21.344,4.386L242.198,220.854z M242.345,279.396l21.25-4.292v54.334
		l-21.159,2.938L242.345,279.396z M242.345,338.026l21.25-2.88l0.055,30.978l-21.306,12.113V338.026z M270.772,30.847l22.553-9.615
		l18.15,11.58l0.204,53.859l-18.077-8.662l-22.866,7.489L270.772,30.847z M270.772,92.893l22.553-8.149l18.15,8.589l0.056,22.206
		l-18.059,6.386v15.38l-22.736,7.89L270.772,92.893z M270.772,151.929l22.7-8.186v58.34l-22.736,6.24L270.772,151.929z
		 M270.772,214.011l22.7-5.522l0.018,44.171l-2.44,0.641v10.038l-20.313,4.405L270.772,214.011z M270.772,273.728l20.24-4.59
		l0.021,18.168l2.367-0.479l18.094,4.607l0.056,37.272l-17.837-3.304l-22.975,3.101L270.772,273.728z M270.772,334.469l22.553-3.543
		l18.15,3.616v5.688l-40.739,22.606L270.772,334.469z M363.372,58.337l-13.561-6.771v53.677l4.403,1.928l-0.018-6.514l9.176-3.304
		V58.337z M344.506,49.289l-9.505-4.696l0.239,53.438l9.36,4.294L344.506,49.289z M329.864,41.73l-13.14-6.405l0.33,53.732
		l12.883,6.185L329.864,41.73z M330.008,101.39l-13.048-6.277l0.056,18.554l12.847-3.873L330.008,101.39z M344.506,108.308
		l-9.505-4.698l0.091,9.195l9.36,4.752L344.506,108.308z M329.864,295.417l-12.756-2.588l-0.091,37.767l10.737,2.185
		c-0.021-2.771,0.457-5.25,2.11-6.369V295.417z M344.488,296.885l-3.486,0.329l-6.001-0.477l0.091,25.783
		c3.781-0.716,6.938,0.092,9.414,2.349L344.488,296.885z M363.39,293.764l-13.709,2.753l-0.108,42.647l13.855-0.935L363.39,293.764z
		 M354.105,113.262l-4.477-2.239l0.092,9.157l4.348,2.204L354.105,113.262z M311.531,353.131v28.646l-34.519-9.874L311.531,353.131z
		 M316.869,356.012v27.068l9.838,3.377v-13.325L316.869,356.012z M327.992,338.064l-11.031-2.166v3.599l11.563-0.552
		L327.992,338.064z M263.726,389.999h6.826l0.091-8.9l32.354,9.14l-10.531-0.021h-5.818v12.662l-25.931,2.403v-15.065h-18.444
		l21.454-10.899V389.999z M195.606,62.539l15.468-6.753v51.566l-15.248,5.909L195.606,62.539z M300.464,408.974
		c-1.927,6.477-3.065,11.929-3.726,18.406l5.12-2.955c0.901-5.45,2.019-10.514,3.781-15.966L300.464,408.974z M308.831,408.166
		c-1.32,2.973-3.044,9.414-3.873,14.756c5.948-5.856,12.517-6.096,21.271-4.168l-0.018-12.385L308.831,408.166z M411.049,355.076
		l3.32,0.496l-4.606,2.074L411.049,355.076z M407.378,353.883l-19.617-5.34l-15.341,28.665l32.976-17.819L407.378,353.883z
		 M488.546,62.412l20.829,55.622V74.67L488.546,62.412z M422.719,90.6l19.214,9.01c2.313,1.064,4.074,2.567,4.038,5.615
		l0.257,61.823c-0.386,13.398-9.357,21.637-33.674,23.712l-22.573-10.993c18.241-4.387,33.821-8.898,33.089-27.287L422.719,90.6z
		 M350.581,405.562l36.408-3.377c15.563,22.683,11.38,61.549-2.843,73.589c-6.679-7.525-14.13-12.427-21.8-16.408
		c12.478-7.524,7.614-24.681-11.765-34.572V405.562z M428.886,456.152l-2.001-0.439c-2.255,11.359-6.329,22.244-13.157,32.245
		l1.982,1.063C422.004,478.982,426.646,467.037,428.886,456.152z M416.241,491.518l-5.761-3.377
		c5.67-7.487,12.368-22.133,13.488-34.538l6.991,0.222C428.738,468.283,423.839,480.764,416.241,491.518z M412.646,387.65
		l11.467-26.591l4.46-2.24l-9.358,23.214c1.964,1.176,2.992,3.047,3.8,4.827L412.646,387.65z M403.287,372.896l16.001-8.388
		l-10.368,23.508l-12.735,1.193L403.287,372.896z M398.772,375.134l-34.758,17.894l28.133-3.341L398.772,375.134z M208.672,642.363
		c4.936-12.515,11.506-21.524,18.314-25.325l-0.239,28.098C221.333,643.134,215.315,641.886,208.672,642.363z M494.582,416.277
		c-32.425,2.733-60.833,4.109-93.26,7.248c0.733,5.8,1.357,12.718,0.807,18.589l82.344-5.357l-0.092-4.551L494.582,416.277z
		 M415.489,496.435l-2.092,0.367l48.283,113.393l0.935,1.596L415.489,496.435z M556.978,227.48v-28.536l33.344,18.021v27.38
		L556.978,227.48z M297.563,283.91l257.818-54.594l33.287,16.497l-249.264,47.914L297.563,283.91z M355.243,242.364l-25.435,5.744
		l-0.386-132.901v0.074l25.821,14.056V242.364z M411.652,229.573l-23.635,5.34v-54.081l23.635,12.02V229.573z M509.21,207.478
		l-22.83,5.157V142.22L509.21,207.478z M511.008,389.08l-5.562,8.532c-0.514-5.484,0.055-2.089-0.641-7.668L511.008,389.08z
		 M511.449,379.666l-8.041,0.587l-0.494-3.23L511.449,379.666z M181.438,552.076c-3.891,1.872-2.881,0.808-6.956,2.385
		l-5.137-23.178c3.981-4.312,6.405-6.899,12.111-11.064L181.438,552.076z M226.712,603.974l-5.083-15.38l-27.271,23.93l31.987,0.331
		l-0.018,2.036l-34.226-0.365l-0.11,0.056V578.85l21.123-21.506l-0.424-2.001h-20.955v-2.036h20.498l-3.743-16.995
		c-7.065,4.954-9.25,7.251-16.902,10.938l-0.055-33.747c6.259-4.569,5.799-3.983,12.259-6.645
		c-1.341-9.817-2.422-19.782-3.23-29.877c-4.588,0.259-4.698,0.516-9.304,0.498l-0.018-27.602l16.514-26.553l18.96,30.499V603.974z
		 M181.365,477.332c-7.651-0.02-9.855-0.421-17.489-1.321l-0.018-23.729c8.13-4.533,12.479-7.469,21.25-10.717l-3.761,5.837
		L181.365,477.332z M199.11,416.826c-0.147,4.149,0.018,1.818-0.018,4.536l3.044-4.793L199.11,416.826z M337.459,326.594
		L337.459,326.594L337.459,326.594L337.459,326.594L337.459,326.594c-1.76,0-3.34,0.716-4.496,1.874
		c-1.156,1.155-1.854,2.732-1.854,4.478l0,0l0,0l0,0l0,0c0,1.759,0.698,3.339,1.854,4.495c1.156,1.155,2.735,1.871,4.496,1.871l0,0
		l0,0l0,0l0,0c1.762,0,3.359-0.716,4.497-1.871h-0.018c1.173-1.156,1.871-2.736,1.871-4.495l0,0l0,0l0,0l0,0
		c0-1.745-0.698-3.322-1.854-4.478C340.819,327.31,339.222,326.594,337.459,326.594z M511.997,690.297v0.02h-0.017h-0.02v-0.02
		c-9.287,0-17.671,1.542-23.746,4.039c-5.78,2.367-9.358,5.542-9.358,8.955l0,0l0,0l0,0l0,0c0,3.412,3.578,6.587,9.358,8.953
		c6.075,2.479,14.459,4.021,23.766,4.021l0,0l0,0h0.017l0,0c9.305,0,17.711-1.541,23.765-4.021c5.783-2.366,9.38-5.541,9.38-8.953
		l0,0l0,0l0,0l0,0c0-3.413-3.597-6.588-9.38-8.955C529.708,691.839,521.302,690.297,511.997,690.297z M188.338,414.976
		l350.949-32.28l5.817-0.532l-5.652-1.45l-161.435-41.657l-0.186-0.037h-0.147l-60.833,4.682l-0.222,0.017l-0.183,0.11
		l-128.696,69.237l-4.351,2.386L188.338,414.976z M343.719,391.906l-24.428-44.905l-0.751-1.376l1.559-0.128l53.79-4.148
		l1.962-0.146l-1.028,1.689l-29.344,49.052l-0.899,1.524L343.719,391.906z M263.908,374.747l75.37,22.335l5.028,1.523l-5.25,0.495
		l-141.009,12.975l-4.937,0.438l4.349-2.366l65.68-35.324l0.365-0.186L263.908,374.747z M341.517,395.65l-73.132-21.689
		l-2.367-0.717l2.166-1.12l47.456-25.563l0.863-0.46l0.496,0.881L342.69,394.2l1.193,2.147L341.517,395.65z M527.524,381.76
		l-177.548,16.33l-5.12,0.46l4.551-2.367l79.681-41.602l0.311-0.165l0.406,0.092l97.867,25.25l5.632,1.433L527.524,381.76z
		 M354.875,395.614l166.684-15.361l-91.884-23.708L354.875,395.614z M347.259,392.915l30.537-51.069l0.366-0.643l0.754,0.165
		l45.014,11.633l2.571,0.644l-2.349,1.229l-75.57,39.456l-3.195,1.668L347.259,392.915z M328.779,360.214v-13.34l-6.991,0.53
		L328.779,360.214z M347.774,345.386v38.813l24.313-40.667L347.774,345.386z M345.738,387.595v-42.044l-14.922,1.14v17.23
		l13.856,25.472L345.738,387.595z M328.926,389.814v-16.683l-13.231-24.295l-44.372,23.873L328.926,389.814z M330.963,376.86v13.561
		l8.792,2.606L330.963,376.86z M328.926,397.981v-1.836l-65.201-19.323l-60.925,32.774L328.926,397.981z M330.963,396.734v1.046
		l2.697-0.222L330.963,396.734z M292.464,561.36c5.338,2.131,11.687,3.764,19.158,4.771c1.798,0.257,2.936-0.09,3.449-0.624
		c0.129-0.11,0.203-0.218,0.22-0.31h-0.018c0.018-0.131,0-0.258-0.038-0.422c-0.348-0.717-1.395-1.47-3.249-1.892
		c-10.699-2.477-18.827-5.56-24.369-8.79C289.066,556.662,290.681,559.085,292.464,561.36z M277.25,526.842
		c-0.955,0.808-1.78,1.688-2.496,2.608c-2.093,2.658-3.195,5.633-3.322,8.733c-0.109,3.157,0.807,6.404,2.77,9.599
		c2.792,4.403,7.598,8.625,14.554,11.981c-1.726-2.529-3.303-5.173-4.68-7.944c-1.175-0.881-2.201-1.763-2.991-2.626
		c-2.054-2.183-3.045-4.402-3.045-6.53c0-1.377,0.384-2.661,1.173-3.799C278.203,534.99,277.542,530.97,277.25,526.842z
		 M328.779,446.998c-6.918,2.807-11.395,6.071-14.295,9.726c-1.835,2.294-2.9,4.734-3.23,7.211
		c5.452-2.807,11.324-4.77,17.525-5.761V446.998z M328.779,425.306c-3.375-0.604-6.974-1.028-10.791-1.267l0,0
		c-5.67-0.054-7.743,1.579-10.257,3.524c-1.414,1.119-2.917,2.311-5.139,3.448c-1.209,0.646-2.073,1.432-2.585,2.275
		c-0.316,0.517-0.46,1.085-0.443,1.598c0.018,0.403,0.184,0.808,0.534,1.176l0,0c0.439,0.457,1.138,0.863,2.108,1.117
		c1.966,0.533,3.581,1.214,5.157,1.875c2.883,1.173,5.801,2.366,10.938,2.584c3.266,0.112,5.063-0.769,6.699-1.576
		c1.211-0.604,2.349-1.177,3.779-1.45V425.306z M345.738,430.316c-4.241-1.89-9.196-3.505-14.922-4.643v12.771
		c0.569,0.018,1.232,0.073,1.946,0.165l0.168,0.056l0.162,0.057l12.646,4.402V430.316z M347.774,455.916
		c6.953-0.351,11.377-1.87,13.358-4.662c1.066-1.506,1.397-3.247,1.102-5.137c-0.331-2.075-1.468-4.294-3.358-6.534
		c-2.478-2.936-6.203-5.818-11.102-8.275V455.916z M330.815,421.563c5.618,1.063,10.608,2.587,14.922,4.386v-23.416l-14.922,1.376
		V421.563z M393.449,501.683c-9.231-5.909-21.967-10.881-33.729-15.453c-12.571-4.916-24.133-9.448-29.97-14.532
		c-3.796-3.321-5.67-6.956-4.108-10.847c-5.084,1.138-9.964,2.975-14.498,5.436c0.018,0.438,0.091,0.916,0.147,1.336
		c0.549,3.983,2.788,8.078,6.458,12.15c6.973,7.689,18.978,15.046,34.96,20.772h0.036c22.48,8.075,34.593,11.194,40.612,12.719
		c1.102,0.313,2.019,0.53,2.788,0.751C395.651,509.758,394.734,505.63,393.449,501.683z M397.726,532.864
		c2.9-0.057,4.899-0.864,6.221-2.533c1.559-1.945,2.402-5.085,2.862-9.434c0.698-6.697-3.67-12.406-10.698-17.414
		c1.008,3.632,1.762,7.396,2.163,11.265c0.498,0.222,0.863,0.46,1.138,0.772c1.562,1.689,0.828,2.678-0.805,4.186
		c0.018,0.695,0.018,1.395,0.018,2.072v0.017l0,0C398.625,525.577,398.295,529.284,397.726,532.864z M330.559,459.973
		c-2.44,2.971-1.043,6.109,1.854,8.681c5.285,4.624,16.534,9.026,28.775,13.781c10.204,3.981,21.05,8.22,29.986,13.191
		c-4.881-11.193-12.828-20.589-22.701-26.993c-3.266-2.146-6.773-3.944-10.425-5.339c-3.652-1.432-7.486-2.46-11.433-3.104l0,0
		h-0.036l-0.843-0.127v-0.881v-11.78l-13.82-4.812c-0.386-0.034-0.772-0.091-1.103-0.091v16.553v0.881L330.559,459.973z
		 M288.665,533.542c-0.607-4.109-0.975-8.222-0.975-12.26c-3.357,1.029-6.166,2.386-8.533,4.038
		c0.221,4.035,0.79,7.964,1.689,11.746c0.129-0.13,0.295-0.24,0.439-0.351C283.013,535.412,285.453,534.292,288.665,533.542z
		 M295.471,532.421c-0.493-4.126-0.713-8.146-0.661-12.037l0.021-0.678c-1.798,0.257-3.505,0.586-5.102,0.991
		c-0.018,4.091,0.292,8.257,0.917,12.387C292.114,532.808,293.729,532.585,295.471,532.421z M302.227,532.146
		c-0.369-4.659-0.33-8.9,0.091-12.957c-1.909,0.02-3.725,0.13-5.45,0.296c-0.02,0.292-0.02,0.622-0.038,0.916
		c-0.074,3.856,0.165,7.781,0.68,11.875C298.979,532.184,300.555,532.146,302.227,532.146z M304.685,536.202
		c0.073,0.643,0.183,1.284,0.256,1.962l-1.998,0.277c-0.112-0.754-0.204-1.505-0.313-2.239h-0.313c-1.524,0-2.917,0.018-4.276,0.092
		c0.351,2.057,0.734,4.093,1.158,6.201l-1.966,0.407c-0.477-2.206-0.86-4.352-1.211-6.461c-1.724,0.146-3.304,0.365-4.716,0.642
		c0.569,3.047,1.285,6.093,2.111,9.066l-1.945,0.531c-0.826-2.991-1.559-6.074-2.128-9.175c-2.46,0.624-4.313,1.432-5.597,2.423
		c-0.79,0.624-1.341,1.284-1.542,1.943c0.44,1.413,0.935,2.789,1.485,4.167c0.11,0.128,0.222,0.255,0.349,0.384
		c4.058,4.331,13.599,8.977,28.831,12.518c3.304,0.751,5.267,2.403,6.056,4.201c0.404,0.918,0.514,1.836,0.349,2.734v0.018
		c-0.183,0.919-0.604,1.763-1.285,2.44c-1.359,1.395-3.705,2.24-6.9,1.818c-4.825-0.643-9.231-1.562-13.195-2.699
		c10.48,10.315,24.519,16.591,39.933,16.591l0,0l0,0h0.018l0,0c16.205,0,30.886-6.936,41.511-18.205
		c7.598-8.018,13.103-18.222,15.673-29.637H304.685z M310.776,519.263c-0.165,1.854-0.201,3.688-0.073,5.472l-2.017,0.108
		c-0.129-1.836-0.112-3.707,0.036-5.597l-4.368-0.037c-0.439,4.037-0.478,8.278-0.092,12.938h91.536
		c0.531-3.377,0.808-6.844,0.808-10.352l0,0v-0.017c0-0.496-0.018-0.973-0.018-1.486L310.776,519.263z M315.934,502.381v0.02
		c-0.366,0.512-0.698,1.138-1.063,1.853c-0.386,0.733-0.755,1.578-1.138,2.515l0,0c-0.938,2.422-1.819,5.375-2.406,8.458
		l77.059,0.955c-6.938-1.854-18.498-5.154-37.016-11.799l-0.035-0.037c-16.591-5.928-29.179-13.69-36.574-21.857
		c-4.129-4.551-6.699-9.285-7.415-13.947c-10.313,6.644-18.536,16.552-23.399,28.354c-1.56,3.78-2.771,7.798-3.614,11.966
		c-0.734,3.796-1.194,7.743-1.248,11.744c2.514-1.45,5.43-2.661,8.734-3.581c0.11-1.558,0.238-3.101,0.421-4.585
		c0.313-2.186,0.716-4.278,1.25-6.331c0.551-2.075,1.211-4.094,2.019-6.002l0.018,0.02v-0.057l1.871,0.771l-0.018,0.053l0,0
		c-0.79,1.854-1.415,3.764-1.928,5.71c-0.513,1.98-0.917,4.017-1.193,6.093c-0.147,1.284-0.274,2.53-0.366,3.799
		c1.633-0.369,3.377-0.661,5.193-0.899c0.46-5.432,1.615-10.663,3.522-15.818l1.889,0.716c-1.815,4.843-2.879,9.78-3.374,14.881
		c1.815-0.147,3.743-0.221,5.726-0.221c0.878-5.21,2.423-10.277,4.53-15.745l1.91,0.734c-2.037,5.211-3.504,10.076-4.386,15.029
		l4.386,0.037c0.586-3.374,1.542-6.588,2.55-9.193l0,0c0.386-0.955,0.808-1.853,1.193-2.66c0.422-0.847,0.826-1.523,1.229-2.111l0,0
		L315.934,502.381z M384.934,540.387c-3.522,8.352-8.149,15.156-13.726,20.735c-5.526,5.6-11.983,9.929-19.213,13.233l-0.828-1.836
		c6.994-3.192,13.251-7.396,18.609-12.809c5.378-5.376,9.891-12.021,13.304-20.112L384.934,540.387z M234.694,653.172v23.27
		c5.651-3.138,9.066-7.231,9.102-11.635h-0.036l0,0l0,0h0.036C243.76,660.403,240.345,656.329,234.694,653.172z M230.639,649.08
		c0.678,0.276,1.394,0.551,2.036,0.845V452.318l0,0v-0.274l-0.147-0.256l-23.452-36.686l-3.487,0.329l-20.095,32.575l-0.165,0.237
		v0.275v199.99c0.679-0.199,1.34-0.438,2.037-0.659V449.088v-0.274l0.165-0.256l19.031-31.346l0.86-1.412l0.864,1.396l22.205,35.16
		l0.148,0.257v0.296V649.08z M207.259,645.063L207.259,645.063v0.018c7.908,0,15.229,1.194,21.377,3.267V453.199l-21.215-33.544
		l-18.021,29.709v197.918c5.324-1.413,11.397-2.202,17.838-2.202v-0.018H207.259z M230.639,665.872
		c0.66-0.863,1.025-1.799,1.025-2.752h-0.018l0,0V663.1h0.018c0-0.935-0.366-1.871-1.025-2.752V665.872z M207.259,653.135
		L207.259,653.135L207.259,653.135h-0.02l0,0c-6.862,0-13.083,1.212-17.562,3.121c-4.202,1.837-6.846,4.274-6.846,6.844l0,0v0.021
		l0,0l0,0c0,2.586,2.644,5.028,6.846,6.844c4.479,1.928,10.7,3.137,17.562,3.137l0,0h0.02h0.018l0,0
		c6.861,0,13.066-1.209,17.543-3.137l0,0c1.485-0.642,2.753-1.358,3.816-2.126v-9.437c-1.063-0.769-2.331-1.484-3.816-2.126
		C220.343,654.347,214.139,653.135,207.259,653.135z M232.675,666.478c-0.495,0.808-1.173,1.577-2.036,2.332v9.558
		c0.734-0.292,1.394-0.587,2.036-0.878V666.478z M230.639,657.43c0.863,0.734,1.541,1.523,2.036,2.33v-7.614
		c-0.643-0.313-1.302-0.604-2.036-0.899V657.43z M207.259,651.136L207.259,651.136L207.259,651.136
		c7.156,0,13.635,1.248,18.351,3.284c1.102,0.46,2.128,0.973,3.027,1.542v-5.468c-6.036-2.147-13.434-3.413-21.377-3.413l0,0l0,0
		h-0.02l0,0c-10.204,0-19.415,2.072-26.096,5.395c-6.422,3.229-10.441,7.58-10.441,12.331l0,0l0,0l0,0l0,0
		c0,4.771,4.019,9.122,10.441,12.332c6.682,3.342,15.892,5.396,26.096,5.396l0,0h0.02h0.018l0,0c7.926,0,15.324-1.267,21.359-3.395
		v-8.862c-0.899,0.53-1.925,1.081-3.027,1.541l0,0c-4.716,2.037-11.194,3.284-18.333,3.284l0,0h-0.018h-0.02l0,0
		c-7.157,0-13.617-1.247-18.368-3.284c-4.957-2.131-8.039-5.231-8.039-8.698l0,0l0,0V663.1l0,0c0-3.447,3.082-6.551,8.056-8.68
		c4.734-2.036,11.194-3.284,18.351-3.284l0,0H207.259z M551.914,718.853c5.981-3.764,9.54-8.424,9.54-13.379l0,0v-0.018v-0.039l0,0
		c0-4.973-3.579-9.635-9.597-13.413L551.914,718.853z M547.877,721.11c0.677-0.33,1.354-0.7,2.036-1.064l-0.074-29.234
		c-0.66-0.365-1.339-0.716-2.038-1.082L547.877,721.11z M547.784,687.507l0.33,0.13c0.569,0.273,1.155,0.587,1.725,0.863
		l-0.66-257.836v-0.292l-0.13-0.259l-28.132-43.694l-4.057,0.35l-27.524,45.457l-0.147,0.239v0.292l0,0v250.346
		c0.66-0.164,1.34-0.294,2.019-0.477V433.344v-0.311l0.147-0.237l26.864-44.265l0.844-1.396l0.899,1.376l27.051,42.19l0.164,0.256
		v0.313L547.784,687.507z M511.98,688.279h0.017l0,0c9.562,0,18.241,1.614,24.555,4.164c4.314,1.781,7.542,4.038,9.231,6.609
		v-10.244c-8.884-3.868-20.737-6.218-33.786-6.218l0,0h-0.017h-0.02l0,0c-13.745,0-26.222,2.641-35.216,6.879
		c-8.773,4.15-14.203,9.818-14.203,15.947h0.017v0.039v0.018h-0.017c0,6.148,5.43,11.799,14.186,15.911
		c9.012,4.293,21.488,6.919,35.253,6.919l0,0l0,0h0.017l0,0c13.086,0,24.979-2.37,33.86-6.277l-0.057-14.551
		c-1.688,2.584-4.935,4.881-9.284,6.622c-6.278,2.589-14.938,4.203-24.52,4.203l0,0h-0.017l0,0l0,0
		c-9.562,0-18.243-1.614-24.518-4.203c-6.589-2.697-10.643-6.495-10.643-10.807l0,0l0,0l0,0l0,0c0-4.333,4.054-8.146,10.643-10.848
		c6.274-2.55,14.956-4.164,24.498-4.164l0,0H511.98z M379.116,343.532l-28.297,47.346l70.084-36.573L379.116,343.532z
		 M314.594,427.967c1.34,0,2.478,0.661,2.478,1.506c0,0.808-1.138,1.468-2.478,1.468c-1.394,0-2.514-0.66-2.514-1.468
		C312.08,428.628,313.2,427.967,314.594,427.967z M313.182,448.336c-10.738-0.403-20.995-6.79-22.223-12.917h-37.785
		c-9.965,0.53-9.691,16.772,0,17.91h54.246C308.649,451.016,310.833,449.438,313.182,448.336z M306.482,456.209l-49.969,0.238
		c0.698,24.902,3.395,51.623,8.312,75.991c1.452-4.513,4.15-8.842,9.746-12.185c-0.385-13.285,3.487-24.884,10.205-35.233
		c-0.828-7.579-1.121-15.305,0.421-23.472l14.863-0.238v6.001c1.377-1.56,3.083-2.532,5.103-2.9
		C305.015,461.679,305.457,458.943,306.482,456.209z M269.561,554.425c2.643,12.698,7.708,27.252,12.844,40.022l10.755-24.863
		l-2.735-1.837C283.82,566.354,275.25,561.122,269.561,554.425z M295.857,571.382l-13.782,35.345
		c-3.209,9.726,11.948,15.708,16.626,6.898l12.222-31.362C305.144,579.73,300.408,575.603,295.857,571.382z M495.666,446.759
		l12.003-0.715c0.034,36.976-4.261,70.486-11.985,100.601v119.482c4.35-6.183,8.462-12.624,11.615-19.396
		c6.296,8.811,12.388,16.535,19.144,23.307h-30.503v2.02h31.822l5.286,9.176l1.744-0.99l-3.176-5.562l11.048,0.018l0.054-24.26
		c-5.155-13.267-11.653-22.992-20.405-32.978l11.833-29.782c2.719,3.247,5.546,6.312,8.462,9.101l0.258-36.113
		c-0.166-0.094-0.331-0.204-0.531-0.277l0.273-2.072l-0.017-126.351l-23.528-36.994l-12.424,20.626l-0.073,0.129l-10.569,17.25
		l-0.201,3.379l11.743-1.067c0.021,1.469,0.038,2.936,0.057,4.424l-11.875,0.716L495.666,446.759z M493.226,446.904v-6.311v-6.991
		l25.875-42.633l26.058,40.593l0.625,255.046c-9.028-3.761-20.848-6.037-33.786-6.037l0,0h-0.017h-0.02l0,0
		c-6.585,0-12.921,0.588-18.735,1.687V446.904z M416.498,399.302c2.772,4.883,5.8,13.985,6.534,18.17l3.928-0.186
		c-1.322-6.422-3.542-12.554-6.664-18.424L416.498,399.302z M495.593,412.9l-65.734,4.002c-0.953-4.606-3.613-12.295-6.423-18.279
		l5.249-0.604c2.036,4.938,4.441,10.184,5.229,15.12l64.359-3.742L495.593,412.9z M393.229,401.412l20.445-1.98
		c2.532,5.083,5.689,11.854,6.328,18.645l-20.036,1.615C399.138,413.378,396.329,407.468,393.229,401.412z M568.283,287.801
		l-35.365-14.407l10.26,30.061C549.288,297.747,560.024,291.782,568.283,287.801z M575.384,286.719
		c-3.523-6.534-7.726-12.332-12.847-17.251c-5.577-5.396-12.238-9.726-20.279-12.661l-14.092,2.696l3.874,11.341l38.736,15.783
		c0.737-0.312,1.451-0.659,2.11-0.937L575.384,286.719z M595.606,359.48l-1.578-7.322l-41.896-15.579l3.764,27.93
		c9.926-6.497,22.626-9.414,32.553-7.248L595.606,359.48z M595.04,350.378c6.017-2.439,11.229-5.8,15.87-9.855
		c4.516-3.943,8.497-8.515,12.114-13.543l-43.512-16.735c-5.285,9.506-16.241,19.71-26.627,24.46L595.04,350.378z M596.893,407.706
		l-35.804-10.532l0.164,34.298c11.542-2.532,21.416-2.146,31.528,1.084l6.092,1.595L596.893,407.706z M561.362,395.154l35.75,10.498
		l0.751,0.054c7.744,0.221,14.24-0.881,19.802-3.01c5.229-1.962,9.653-4.807,13.578-8.258l-39.547-13.34
		C584.007,388.272,574.74,393.669,561.362,395.154z M572.1,462.687l26.957,5.12h0.021c6.018,1.25,12.164,1.524,18.294,1.23
		c4.625-0.221,9.285-0.771,13.872-1.448l-37.361-9.582C588.026,460.944,580.724,462.797,572.1,462.687z M562.427,498.84
		l31.327,1.927l0.056,0.018c0.493,0.056,1.009,0.129,1.504,0.201c0.751-5.009,1.303-10.147,1.725-15.324
		c0.478-5.265,0.825-10.643,1.119-15.983l-38.574-7.304l-3.192,36.079C558.5,498.436,560.537,498.565,562.427,498.84z
		 M625.373,516.714c-4.055-3.029-8.368-5.8-13.066-8.11c-5.616-2.753-11.801-4.828-18.736-5.819l-22.626-1.393
		c6.109,2.915,11.212,7.98,15.963,15.322H625.373z M583.294,654.182c-0.368-1.45-0.718-2.789-1.415-4.129l0,0
		c-0.808-1.669-1.706-3.302-2.66-4.917c-4.899-8.278-11.635-15.983-19.415-22.683h-0.018l-5.379,0.182l-0.07-2.036l4.696-0.126
		l3.284-9.324c-3.191-1.596-5.854-3.303-8.294-5.083l-0.019-37.491c6.276,5.376,11.926,11.744,16.021,20.093l40.115,1.285
		c-3.56-5.376-7.837-10.111-12.517-14.388c-5.027-4.587-10.496-8.624-16.036-12.22H554.26v-2.02h27.105
		c1.287-3.652,2.312-7.286,3.084-10.955c0.808-3.817,1.394-7.598,1.817-11.415h-2.59c-11.542-1.945-19.157-4.789-29.158-11.306
		l-0.533-98.71l-27.159-40.575l38.703-4.77l-64.688-18.48c-5.306-32.372-12.938-60.34-25.856-95.39l-8.993,1.724l-32.903,77.371
		l-3.6-1.12l31.693-75.331l-3.54,0.678l-31.528,74.012l-10.551-2.753l30.72-69.074l-4.625,0.898l-29.528,67.02l-19.983-4.975
		l25.58-57.438l-78.137,15.012l-0.221,0.056l-0.204-0.074l-46.17-10.828l3.761-0.825l-3.778,0.825v-28.442l4.238-0.954v-130.81
		l32.205-11.653v0.038l25.821,14.021v-24.663l32.996-12.609c8.936-3.396,15.781-5.283,20.57-5.522c3.58-0.222,6.48,0.2,8.7,1.247
		l-0.039-0.036l26.592,13.322c4.148,2.166,3.911,3.321,4.001,6.772l0.11,62.484v0.038c-0.238,8.589-4.147,14.333-10.552,18.059
		c-6.093,3.577-14.389,5.302-23.93,6.073v36.831l43.199-9.765V66.979l27.36-9.192l0.056,0.018l25.198,13.728V51.07l31.085-11.305
		v0.02l25.544,13.909l0.515,0.312v0.588l0.054,145.268h-2.018l-0.075-144.662l-24.02-13.103v158.279l16.388-3.725v0.018
		l34.849,18.792l0.531,0.311v0.589v29.965v0.864l-0.825,0.129l-45.584,8.754c7.011,3.01,12.938,7.045,18.002,11.91
		c5.818,5.633,10.498,12.385,14.369,19.909l41.401,16.903l5.449,23.03c-0.036-0.018-12.056,13.47-12.937,14.239
		c-4.716,4.111-10.039,7.543-16.148,10.094l1.778,8.002l34.444,10.644l1.102,24.333l0.036,0.038
		c-4.312,3.962-9.21,7.213-15.046,9.433c-5.563,2.091-11.928,3.229-19.452,3.117l1.98,26.977l35.2,9.214v24.901l0.015,0.054
		c-6.184,0.994-12.424,1.874-18.66,2.205c-5.817,0.273-11.601,0.054-17.344-1.011c-0.274,5.231-0.587,10.516-1.062,15.801
		c-0.46,5.23-1.011,10.441-1.783,15.487c5.781,1.155,11.049,3.065,15.912,5.433c5.668,2.81,10.99,6.13,15.709,9.837l0.072,0.092
		l-0.036,0.184l0.056,0.056l-0.073,0.054l-3.177,21.948h-37.453c-0.459,3.964-1.029,7.891-1.874,11.854
		c-0.807,3.743-1.814,7.468-3.153,11.214c5.429,3.561,10.787,7.522,15.705,12.037c5.158,4.698,9.875,9.947,13.691,15.948
		l0.018,0.018l-7.56,21.764l-40.703-0.514l-3.412,9.579c7.982,6.864,14.919,14.772,19.946,23.253
		c0.991,1.669,1.907,3.359,2.735,5.045l0,0c0.918,1.779,1.541,3.635,1.833,5.193l0,0h0.038l-0.109,0.203l-11.433,20.242
		l-19.564-0.057l-0.073-21.323L583.294,654.182z M406.553,775.502l38.52-0.919c0.77-4.13,0-8.368-0.773-12.55l-0.107-0.606h-1.104
		l-13.929-31.198l-21.634,8.295C409.269,752.673,408.682,763.52,406.553,775.502z M351.296,776.712l33.6-0.844
		c-2.697-11.268-4.165-21.268-4-32.683l-24.498-1.468C355.977,753.37,354.545,765.061,351.296,776.712z M295.674,758.526
		l32.922-1.375c-0.091-6.957,0.312-13.763,1.12-20.426l-23.122-10.826C304.428,735.517,300.151,749.572,295.674,758.526z
		 M252.77,722.282l29.049,1.25c1.064-6.313,2.24-12.24,3.377-16.957l-16.938-17.232C264.807,698.813,259.228,713.329,252.77,722.282
		z M247.447,666.313l4.551,0.183c0.368-0.79,0.753-1.542,1.102-2.295l-11.836-24.921l-4.313,3.89l-0.111-159.36
		c10.811,142.883,69.295,211.517,135.139,209.204c-30.205-15.378-54.797-37.673-74.341-68.137l15.801-40.869
		c2.9,1.303,6.956,2.917,9.891,3.744l-5.211,14.33c10.956,21.783,23.93,37.458,37.364,52.303
		c-12.076-15.345-24.684-31.474-34.776-52.797l5.267-14.075c1.632,0.569,3.266,0.937,4.881,1.046l-5.102,13.653
		c30.738,59.586,67.073,82.689,111.648,52.612l-40.703-106.894l2.992-7.508c4.185-0.881,7.377-3.448,10.112-6.734l43.491,108.344
		c0.552-0.733,1.085-1.484,1.615-2.236l-42.631-108.805c4.789-14.662-1.541-28.501-15.835-35.271
		c-2.072-5.782-4.845-10.862-7.947-15.617c7.56-7.689,12.223-21.58,13.34-33.804l82.746-5.176l-0.055,6.313l-48.411,3.14
		c-1.504,16.809-7.651,33.581-17.121,46.335l46.998,116.459c6.44-8.259,11.928-17.765,17.157-27.603
		c0.497-1.246,0.954-2.514,1.45-3.799l0.093,98.934c-20.719,6.717-29.803,16.662-26.224,28.957c-0.698,0.66-1.43,1.338-2.147,2.037
		c3.395,12.277,5.577,24.959,5.907,38.244l44.172,0.366l0,0c0.294-2.807,0.681-5.211,0.479-7.764
		c-0.24-2.528-0.752-5.247-1.633-8.625l1.963-0.512c0.897,3.449,1.414,6.258,1.671,8.975c0.238,2.696-0.239,5.119-0.553,8.037
		l-0.09,0.053l-17.417,10.756h-44.554l0.052,0.239c0.826,4.679,1.689,9.34,0.569,14.129l-0.166,0.755l-0.785,0.017l-39.917,0.991
		v-0.057l-20.607,0.404l-0.018-0.035l-34.684,0.882v0.017l-20.902-2.956c-0.678-5.633-1.064-11.194-1.194-16.644l-34.059,1.413
		v0.036l-16.114-11.119c0.552-7.087,1.707-15.728,3.03-23.969l-30.408-0.989h-0.038l-13.212-14.847
		c3.156-12.205,7.966-29.123,13.286-41.215l-3.743-0.167L247.447,666.313z M396.606,126.109l-10.699-5.947v30.994
		c6.405-1.082,9.8-1.559,10.699-7.395V126.109z M387.357,118.676l9.249,5.12C396.68,116.657,393.871,117.465,387.357,118.676z
		 M487.169,447.289v236.328c-4.147,1.103-7.964,2.461-11.285,4.02c-9.47,4.516-15.361,10.79-15.361,17.78l0,0v0.039v0.018l0,0
		c0,7.01,5.892,13.287,15.361,17.764c9.25,4.386,22.002,7.064,36.097,7.084l0,0l0,0h0.017l0,0
		c14.095-0.02,26.848-2.698,36.117-7.084c9.487-4.477,15.357-10.754,15.357-17.764l0,0v-0.018v-0.039l0,0
		c0-6.018-4.346-11.523-11.614-15.779l-0.625-258.974v-0.587v-0.312l-0.165-0.239l-0.313-0.514L523.192,386.2l16.26-1.487
		l11.615-1.082l5.783-0.533l-5.636-1.448l-11.267-2.92l-161.436-41.638l-0.351-0.073l-0.144-0.054L377.832,337l-0.31,0.019
		l-35.105,2.699c0.347-0.259,0.66-0.516,0.969-0.827l0,0c1.506-1.524,2.461-3.617,2.461-5.945l0,0l0,0l0,0l0,0
		c0-2.293-0.955-4.406-2.461-5.909c-1.521-1.524-3.613-2.459-5.926-2.459l0,0l0,0l0,0l0,0c-2.329,0-4.422,0.935-5.928,2.441
		c-1.504,1.521-2.458,3.634-2.458,5.927l0,0l0,0l0,0l0,0c0,2.328,0.935,4.403,2.458,5.945c0.589,0.606,1.286,1.102,2.057,1.505
		l-16.882,1.303l-0.423,0.019l-0.239,0.017l-0.165,0.112l-0.365,0.183l-128.717,69.277l-8.736,4.695l-4.385,2.349l4.954-0.439
		l9.891-0.898l15.032-1.395L183.75,446.96h-0.019l-0.274,0.477l-0.148,0.257v0.257v0.569v200.764
		c-1.082,0.438-2.092,0.898-3.065,1.376c-7.138,3.561-11.56,8.57-11.56,14.147l0,0l0,0l0,0l0,0c0,5.598,4.421,10.606,11.56,14.15
		c6.919,3.468,16.461,5.597,26.995,5.597l0,0h0.02h0.018l0,0c10.514,0,20.057-2.129,26.977-5.597
		c7.136-3.544,11.56-8.553,11.56-14.15l0,0l0,0l0,0l0,0c0-5.468-4.22-10.366-11.12-13.908v-198.58l0,0v-0.568v-0.275l-0.147-0.255
		l-0.312-0.517l0,0l-23.323-35.746l49.804-4.626v18.224l-26.461,0.771c0.054-4.111,0.183-8.532,0.349-14.479l-20.446,1.633
		l20.281,31.215c-0.183-6.128-0.259-10.607-0.203-15.12l57.275-0.733c1.208-1.798,3.063-3.505,5.229-4.332l-10.092,0.294v-19.839
		l42.133-3.869v17.101c-3.322-0.549-6.844-0.952-10.588-1.191h-0.073c-7.121-0.111-9.726,1.928-12.9,4.404
		c-1.249,0.972-2.625,2.055-4.479,3.026c-1.907,0.993-3.339,2.332-4.201,3.764c-0.736,1.246-1.084,2.587-1.028,3.891
		c0.073,1.376,0.624,2.658,1.615,3.725h0.017c0.92,1.009,2.258,1.799,4.002,2.256c1.707,0.478,3.175,1.119,4.66,1.706
		c3.23,1.341,6.479,2.683,12.35,2.92c2.166,0.054,3.819-0.203,5.175-0.606c-5.358,2.699-9.34,5.782-12.019,9.085
		c-3.01,3.798-4.351,7.893-4.222,12.131c-11.028,6.864-19.838,17.32-25.014,29.819c-1.612,3.928-2.862,8.057-3.725,12.334
		c-0.861,4.275-1.303,8.714-1.303,13.302l0,0v0.02v0.017l0,0v0.094c-2.201,1.486-4.018,3.193-5.468,5.047
		c-2.626,3.34-4.038,7.156-4.185,11.102c-0.165,3.945,0.955,8.002,3.377,11.873c3.982,6.388,11.598,12.297,23.104,16.258
		c0.313,0.351,0.643,0.717,0.956,1.046c10.991,11.655,26.205,18.867,42.995,18.884l0,0l0,0h0.018l0,0
		c16.774-0.017,32.006-7.229,42.999-18.884c7.816-8.273,13.487-18.752,16.13-30.516v0.22c4.642,0.092,7.872-1.228,10.11-4.054
		c2.109-2.607,3.213-6.444,3.746-11.544c1.043-9.91-6.187-17.582-16.756-24.005c-4.937-12.681-13.581-23.27-24.5-30.37
		c-3.414-2.223-6.992-4.055-10.771-5.562c-1.945-0.733-3.928-1.394-5.929-1.928c5.617-0.897,9.471-2.896,11.563-5.854
		c1.706-2.422,2.292-5.192,1.797-8.146c-0.439-2.792-1.907-5.689-4.255-8.479c-3.102-3.67-7.873-7.23-14.204-10.131V402.35
		l166.572-15.324l-26.756,44.172l-0.291,0.478l-0.131,0.257v0.257v0.568l0,0v8.22 M213.205,393.89l-1.871-0.221l-0.038-0.186h0.147
		l0.018-50.83l-15.488,2.293v34.098c-7.452-6.387-18.259-8.094-30.959-7.142l-0.457,24.354c7.963,6.422,15.285,9.982,23.269,11.872
		L213.205,393.89z"/>
</g>
</svg>
